<?xml version="1.0" encoding="UTF-8"?>
<svg id="Layer_1" xmlns="http://www.w3.org/2000/svg" version="1.1" viewBox="0 0 60 60">
  <!-- Generator: Adobe Illustrator 29.8.2, SVG Export Plug-In . SVG Version: 2.1.1 Build 3)  -->
  <defs>
    <style>
      .st0 {
        fill: #fff;
      }
    </style>
  </defs>
  <path class="st0" d="M31.51,4.33c.61.15,1.3.13,1.94.21,4.16.54,8.13,2.2,11.55,4.6l-.76,1.16-.27-.03c-10.57-7.49-25.11-5.26-33.05,4.9-6.96,8.91-6.79,21.98.74,30.47v-2.51h1.5v5.21h-5.31v-1.5h2.71l-2.45-3.42c-1.72-2.81-2.87-5.95-3.44-9.19l-.33-2.63c.05-1.06-.06-2.15,0-3.21C5.08,15.87,15.53,5.06,28.16,4.44l.24-.1h3.11Z"/>
  <path class="st0" d="M55.67,31.5c-.2.26-.07.63-.1.95-.49,5.11-2.59,10.07-5.86,13.99l-1.15-.9c7.41-8.81,7.56-22.54-.2-31.18v2.51h-1.5v-5.21h5.31v1.5h-2.71l2.45,3.42c2.11,3.53,3.53,7.71,3.77,11.82v3.11Z"/>
  <path class="st0" d="M31.51,55.67h-3.01c-.59-.15-1.3-.13-1.94-.21-4.19-.55-8.13-2.23-11.59-4.6l.87-1.19.23.04c8.72,6.43,21.23,5.75,29.47-1.15l.9,1.15c-3.91,3.28-8.87,5.37-13.98,5.86-.29.03-.71.09-.95.1Z"/>
  <path class="st0" d="M14.78,20.37l1.31.66c1.33-2,3.05-3.63,4.99-5.02l-.69-1.25c-.19-.14-2.33,1.87-2.57,1.89-.28.02-.77-.87-1.03-1.04,2.23-2.04,4.96-3.61,7.89-4.43,14.88-4.16,28.51,9.72,24.02,24.54-3.78,12.46-18.68,17.84-29.57,10.53-9.92-6.66-11.62-20.68-3.51-29.48l1.04,1.03-1.89,2.57ZM29.21,11.95c-2.61.18-5.23.77-7.51,2.07.09.26.57,1.25.83,1.23.17-.02,1.4-.64,1.75-.76,1.62-.57,3.22-.91,4.94-1.03v-1.5ZM30.81,11.95v1.5c1.72.11,3.32.46,4.94,1.03.35.12,1.58.74,1.75.76.27.03.73-.98.84-1.23-2.3-1.27-4.9-1.89-7.52-2.06ZM45.24,20.37c-1.4-2.27-3.34-4.21-5.61-5.61l-.66,1.2.05.16c1.98,1.3,3.58,2.97,4.92,4.92l1.31-.66ZM40.6,40.69c7.06-7,5.45-18.91-3.17-23.78-11.34-6.4-24.77,3.6-22.1,16.3,2.42,11.5,16.89,15.8,25.27,7.48ZM15.27,22.29c-.48-.01-1.11-.94-1.42-.38-.86,1.57-1.6,4.25-1.78,6.04-.02.24-.15,1.21,0,1.31l1.41.04c.1-1.75.44-3.39,1.03-5.04.11-.3.84-1.87.77-1.97ZM46.04,21.68c-.06-.05-1.31.59-1.29.83.02.17.64,1.4.76,1.75.58,1.65.93,3.29,1.03,5.04l1.46-.09c-.04-2.62-.84-5.18-1.96-7.53ZM13.47,30.8h-1.5c.17,2.62.79,5.22,2.06,7.52l1.26-.66c-.98-2.18-1.68-4.46-1.81-6.86ZM48.05,30.8h-1.5c-.12,1.71-.46,3.32-1.03,4.94-.13.38-.74,1.52-.76,1.75-.03.28.99.69,1.23.84,1.25-2.3,1.89-4.91,2.06-7.52ZM20.39,45.24l.66-1.2c.05-.2-.86-.71-1.06-.87-1.54-1.23-2.81-2.57-3.91-4.21l-1.31.66c1.39,2.28,3.35,4.2,5.61,5.61ZM45.24,39.63l-1.4-.7c-.01.12-.05.24-.12.33-1.31,1.78-2.82,3.54-4.8,4.58l.7,1.4c2.28-1.4,4.2-3.35,5.61-5.61ZM29.21,46.54c-1.71-.12-3.32-.46-4.94-1.03-.38-.13-1.52-.74-1.75-.76-.27-.03-.73.98-.84,1.23,2.31,1.25,4.9,1.9,7.52,2.06v-1.5ZM30.81,46.54v1.5c2.62-.17,5.22-.8,7.52-2.06-.11-.25-.57-1.26-.84-1.23-.17.02-1.4.64-1.75.76-1.62.57-3.22.92-4.94,1.03Z"/>
  <polygon class="st0" points="47.6 46.55 48.64 47.68 47.6 48.64 46.55 47.6 47.6 46.55"/>
  <path class="st0" d="M30.91,21.38v4.61h1.5v1.5c-.48.07-1.13-.16-1.5.15v1.96h-1.5v-2.11h-3.91l3.56-6.12h1.85ZM29.41,25.99v-2.21l-1.3,2.2h1.3Z"/>
  <path class="st0" d="M21.49,28.1h2.71c-.06.31.15,1.39-.16,1.49l-4.35-.09v-1.75c0-.28,2.75-2.66,2.96-3.46.19-.7-.08-1.42-.89-1.37s-.89.84-.97,1.47l-1.49-.36c.1-.34.12-.71.24-1.04.96-2.59,4.99-1.81,4.66,1.25-.17,1.53-1.71,2.45-2.56,3.56-.08.1-.19.13-.15.3Z"/>
  <polygon class="st0" points="36.82 25.4 30.91 38.12 29.51 37.52 35.43 24.89 36.82 25.4"/>
  <path class="st0" d="M35.42,33.41c.06-.31-.15-1.39.16-1.49l4.95.03.09.91-3.31,7.47-1.4-.65,2.81-6.27h-3.31Z"/>
  <path class="st0" d="M40.43,20.88l-.04,1.41c-.14.2-1.16.04-1.46.09v-1.5h1.5Z"/>
  <path class="st0" d="M41.94,23.88l-.04,1.41c-.14.2-1.16.04-1.46.09v-1.5h1.5Z"/>
</svg>