<?xml version="1.0" encoding="UTF-8"?>
<svg id="Layer_1" xmlns="http://www.w3.org/2000/svg" version="1.1" viewBox="0 0 60 60">
  <!-- Generator: Adobe Illustrator 29.8.2, SVG Export Plug-In . SVG Version: 2.1.1 Build 3)  -->
  <defs>
    <style>
      .st0 {
        fill: #fff;
      }
    </style>
  </defs>
  <path class="st0" d="M32.14,5.52c1,.2,1.99.42,2.93.84,3.01,1.36,5.3,4.56,5.47,7.88.08,1.47-.35,2.23-1.82,2.58,2.44.86,2.44,4.11-.08,4.83.07,1.59-.43,3.06-1.33,4.35-.17.25-1.03,1.16-1.05,1.24-.15.5.09,1.96.46,2.37,4.23,2.35,9,4,13.23,6.33,2.17,1.19,4.2,2.74,4.42,5.41.32,3.95-.24,8.32,0,12.31,0,.25-.07.53-.31.64H5.83s-.31-.31-.31-.31v-12.88c.39-2.52,2.32-3.86,4.39-5.01,3.91-2.18,8.16-3.96,12.09-6.13.64-.36.9-1.49.97-2.18.15-1.48-.22-1.32-.83-2.39s-.9-2.37-.92-3.66c-2.41-.76-2.54-4.2-.05-4.91-3.01-.42-1.62-4.67-.69-6.41,1.39-2.58,4.32-4.63,7.27-4.9h4.39ZM38.92,12.3c-.77-2.82-3.5-5.05-6.36-5.52-1.18-.19-3.07-.19-4.28-.11-3.27.2-6.39,2.45-7.29,5.63h17.94ZM39.3,13.44h-18.7c0,.76-.45,1.79.43,2.19l.31-.73c.19-.36.81-.77,1.22-.79.18,0,.36.09.56.09,4.87.01,9.73-.02,14.6,0,.93.15.93,1.43,1.06,1.43l.6-.45-.08-1.75ZM22.46,15.35c-.24,0-.06.97-.02,1.17.28,1.31,1.4,2.44,2.78,2.46,3.06-.17,6.33.21,9.36,0,1.21-.08,1.8-.47,2.41-1.5.13-.22.96-2.13.45-2.13h-14.98ZM21.17,20.41v-2.29c-.94.45-.89,1.79,0,2.29ZM38.73,20.41c.89-.5.94-1.84,0-2.29v2.29ZM22.41,18.88v3.96c0,1.47,1.72,3.5,2.96,4.2,2.14,1.21,7.25,1.2,9.34-.1,1.16-.72,2.77-2.78,2.77-4.19v-3.96l-1.31,1.02c-.47.2-1.08.28-1.59.32-2.66.17-6.81.2-9.45,0-1.12-.09-1.93-.45-2.72-1.24ZM35.1,28.04c-.53.28-1.06.54-1.64.69-1.53.41-5.33.42-6.87.04-.89-.22-1.67-.67-2.46-1.12-.07.79-.27,1.56-.57,2.29l6.51,1.32,5.42-1.27c.15-.1.05-.12.02-.22-.14-.58-.4-1.12-.41-1.74ZM29,32.24l-5.91-1.24c.06.63-.31,1.67-.19,2.24.06.31,3.14,2.24,3.58,2.62l2.53-3.62ZM36.25,31l-5.34,1.24,2.53,3.62,3.25-2.67c.17-.27-.45-1.76-.43-2.19ZM28.14,53.23l-6.54-17.84c-.11-1.37.21-2.75.34-4.11l-7.44,3.86v2.91c.53-.07,2.16-.86,2.29.05.07.53-1.35,2.51-1.2,2.81l10.02,12.31h2.53ZM45.41,35.01l-7.92-3.63c.31,1.31.86,2.67.84,4.03l-6.66,17.82h2.62l10.09-12.43c.16-.38-1.36-2.07-1.27-2.69.13-.92,1.75-.07,2.29-.05v-3.05ZM30.42,53.22l1.54-4.23v-13.08s-1.96-3-1.96-3l-2.33,3.39v12.02s1.72,4.9,1.72,4.9h1.03ZM33.1,37.3v8.49c.17-.03.16-.19.22-.31,1.47-3.31,2.52-7.05,3.89-10.43-.07-.14,0-.69-.24-.62l-3.2,2.62-.66.25ZM26.51,37.2l-3.77-2.58.02.75,3.75,9.85v-8.02ZM53.23,53.23v-11.98c0-1.1-1.23-2.55-2.05-3.19-1.36-1.06-3.1-1.72-4.63-2.48v3.39c0,.66-1.26.29-1.62.24-.08.06,1.14,1.5.68,1.87l-9.74,12.16h17.36ZM13.35,38.78c-.14-.92.1-2.15,0-3.1-2,1.09-5.31,2.21-6.31,4.42-.09.2-.36,1-.36,1.16v11.98h17.36l-9.62-11.99c-.51-.43.78-1.98.65-2.14-.64.17-1.57.65-1.72-.33Z"/>
</svg>