<?xml version="1.0" encoding="UTF-8"?>
<svg id="Layer_1" xmlns="http://www.w3.org/2000/svg" version="1.1" viewBox="0 0 60 60">
  <!-- Generator: Adobe Illustrator 29.8.2, SVG Export Plug-In . SVG Version: 2.1.1 Build 3)  -->
  <defs>
    <style>
      .st0 {
        fill: #fff;
      }
    </style>
  </defs>
  <path class="st0" d="M43.1,31.95v8.93c-.48,2.1-2.13-.2-3.02-.71-1.24,5.44-5.61,9.91-11.01,11.32-11.58,3.03-22.04-7.57-18.82-19.11,1.54-5.52,6.29-10,11.98-10.91v-1.78c-2.22-.39-2.77-3.42-.76-4.5,1.27-.68,4.44-.17,6.01-.32,1.99-.2,1.14-2.81,2.4-4.11,1.18-1.21,2.35-.66,3.72-.61,1.46.05,1.73-1.12,2.8-1.74,1.14-.67,2.33-.47,3.34.33.87.68,1.09,1.46,2.37,1.42,1.37-.04,2.55-.6,3.72.61,1.09,1.12.66,3.14,1.57,3.81,1.15.84,2.39.88,2.82,2.56.47,1.84-1.21,2.97-.86,4.35.31,1.21,1.26,1.73.87,3.32-.41,1.69-1.7,1.73-2.8,2.58-.85.66-.64,2.08-1.09,3.06-.57,1.24-1.98,1.75-3.26,1.51ZM30.95,30.12c.73.73,2.07.12,2.95.12,1.66,0,2.08,1.23,3.16,1.93,1.35.88,2.14-.72,3.06-1.36,1.49-1.04,2.4-.2,3.83-.33,1.55-.14,1.14-2.63,1.99-3.77,1-1.33,3.49-1.16,2.67-3.37-.2-.55-.65-1.11-.76-1.7-.28-1.53.38-2,.82-3.24.6-1.68-1.13-1.88-2.13-2.63-1.39-1.04-1-1.96-1.48-3.34-.58-1.69-2.31-.67-3.64-.8-1.64-.16-2.46-2.15-3.59-2.15s-1.96,1.99-3.59,2.15c-1.44.14-3.11-.96-3.68.94-.41,1.36-.11,2.21-1.43,3.2-.62.46-1.85.82-2.15,1.53-.42.96.68,2.08.85,3.02.27,1.44-.36,1.92-.79,3.09-.68,1.89,1.17,1.97,2.28,2.88,1.38,1.13.84,3.06,1.61,3.82ZM25.73,16.37h-3.16c-.05,0-.5.22-.57.28-.45.4-.21,1.51.29,1.51h3.16c-.22-.58.11-1.23.28-1.79ZM26.39,21.18c.06-.54-.18-1.11-.52-1.51h-2.12v1.51h2.64ZM25.73,22.7c-12.03-.53-19.11,13.47-11.28,22.85,6.69,8.02,19.87,5.88,23.61-3.87.19-.49.7-1.97.71-2.42,0-.31-.78-.95-1.03-.84-.48.22-.75,1.94-.97,2.53-2.78,7.54-12.05,10.44-18.7,5.91-7.02-4.79-7.21-15.22-.38-20.27,2.23-1.65,4.89-2.47,7.67-2.48l.39-1.41ZM32.62,31.95c-1.15.18-2.23-.09-2.97-1.05-.67-.87-.53-1.8-.84-2.75s-1.48-1.17-2.23-1.73c-.92-.69-.49-.85-1.94-.8-7.36.3-12.3,7.74-9.84,14.66,2.82,7.98,13.25,9.73,18.72,3.28.44-.52,1.64-2.36,1.75-2.97,0-.05.02-.16-.05-.14-.75.56-1.89,2.17-2.58.69l-.02-9.19ZM41.59,31.85c-.66-.02-1.05.7-1.51,1.09-1.61,1.36-2.83,1.35-4.44,0-.47-.39-.82-1.06-1.51-1.09v7.46c.22-.03.43-.25.61-.38.76-.57,2.01-1.87,2.75-2.25.3-.15.43-.15.73,0,.75.38,1.99,1.67,2.75,2.25.18.14.39.35.61.38v-7.46Z"/>
  <path class="st0" d="M12.34,24.65c-.14-.14-.2-.48-.22-.68-.27-2.94.21-6.28,0-9.26.14-1.55,1.3-2.9,2.87-3.07h11.81c.77.1.8,1.21.09,1.42h-11.14c-1.15.09-1.99.5-2.12,1.75-.3,2.97.23,6.42,0,9.44-.07.62-.88.81-1.29.4Z"/>
  <path class="st0" d="M47,32.83c.4-.43,1.23-.2,1.3.39v12.38c-.18,1.46-1.28,2.57-2.7,2.87l-7.02-.04c-.59-.37-.52-1.25.18-1.42l6.66-.05c.72-.19,1.24-.71,1.38-1.46.26-3.86-.35-8.19,0-12,.02-.22.07-.51.22-.67Z"/>
  <path class="st0" d="M25.83,33.92c1.5.36,2.28,1.94,1.99,3.4.59.43,2.52,1.2,2.86,1.72.46.71-.26,1.37-.99,1.09-.56-.2-2.14-1.45-2.6-1.47-.19,0-1.14.7-1.89.72-3.3.07-3.97-4.53-.89-5.45.15-.69-.34-2.8.48-3.06,1.6-.51.89,2.22,1.05,3.06ZM24.66,35.37c-.21.05-.67.47-.75.66-.45,1.1.59,2.16,1.69,1.69,1.37-.58.78-2.75-.94-2.36Z"/>
  <path class="st0" d="M25.6,46.84c-.29.25-.73.23-1.02-.01-.65-.56-.35-3.24.99-2.31.38.26.36,2.04.03,2.32Z"/>
  <path class="st0" d="M24.75,26.21c.41-.12.98.05,1.06.5.08.41.08,1.66-.25,1.92-1.37,1.09-1.7-2.16-.82-2.42Z"/>
  <path class="st0" d="M17.11,36.03c.29.29.25.81-.03,1.1-.35.37-2.94.51-2.33-.92.25-.58,2.02-.52,2.36-.19Z"/>
  <path class="st0" d="M37.51,13.56c6.32-.29,10.13,7.13,6.11,12.06-3.48,4.27-10.32,3.4-12.53-1.64-2.09-4.76,1.22-10.18,6.42-10.42ZM37.7,15.07c-7.94.21-7.34,12.49.72,11.78,7.42-.65,6.79-11.97-.72-11.78Z"/>
  <path class="st0" d="M40.15,18.46c.64-.13,1.07.52.8,1.09l-3.29,3.79c-.26.15-.59.15-.86.03-.39-.45-1.84-1.27-2.05-1.72-.16-.34-.04-.84.3-1.02.48-.25.68-.03,1.06.22.23.15.86.85,1.05.75.65-.49,2.37-3.02,3-3.15Z"/>
</svg>