<?xml version="1.0" encoding="UTF-8"?>
<svg id="Layer_1" xmlns="http://www.w3.org/2000/svg" version="1.1" viewBox="0 0 60 60">
  <!-- Generator: Adobe Illustrator 29.8.2, SVG Export Plug-In . SVG Version: 2.1.1 Build 3)  -->
  <defs>
    <style>
      .st0 {
        fill: #fff;
      }
    </style>
  </defs>
  <path class="st0" d="M49.33,20.12v-2.77c0-.26.41-.86.7-.95.37-.11,3.28-.12,3.69-.03.5.11.64.52.68.97.11,1.19.13,3.91,0,5.08-.07.58-.44.82-1,.88s-2.73.07-3.25-.06c-.85-.22-.83-1.23-.82-1.95h-2.95c.07.53.27,1.16.59,1.59,1.4,1.93,3.84,3.68,5.35,5.61.74,1.08.24,1.99.31,3.17,1.32.06,2.01,1.05,2.12,2.3-.32,4.51.41,9.58,0,14.03-.13,1.41-.87,2.18-2.29,2.3-1.19.1-5.24.15-6.24-.13-.79-.22-1.6-1.1-1.6-1.94v-5.72h-1.71c-.69,0-3.99,2.24-5.65,2.36-4.79.35-10.01-.26-14.84-.02-1.32-.15-4.69-2.34-5.32-2.34h-1.71v5.72c0,.84-.81,1.72-1.6,1.94-1,.28-5.06.23-6.24.13-1.43-.12-2.16-.9-2.29-2.3-.42-4.45.31-9.51,0-14.03.11-1.25.8-2.24,2.12-2.3.07-1.18-.43-2.09.31-3.17,1.51-1.92,3.95-3.68,5.35-5.61.32-.44.52-1.06.59-1.59h-2.95c0,.71.17,1.58-.64,1.89-.48.19-2.7.17-3.31.12s-1.04-.36-1.12-1c-.13-1.1-.11-3.72,0-4.84.05-.58.25-1.04.89-1.12s2.81-.09,3.42.01c.29.05.77.49.77.76v3.01h3.36l2.55-6.64c.36-.53,1.06-.78,1.68-.79l24,.06c.5.16,1.01.37,1.23.89l2.47,6.49h3.36ZM9.02,35.56h9.78v-8.07c0-.72,1.19-1.74,1.94-1.71,5.95.34,12.39-.45,18.27,0,.72.05,1.39.28,1.8.91.07.1.37.75.37.81v8.07h9.78c.01-1.76.51-3.63.59-5.36.01-.23.03-.46-.02-.68-.06-.25-1.86-2.13-2.21-2.5-.96-1.01-2.03-1.91-2.91-2.99l-4.48,2.33-.61-.89,4.32-2.57c-.62-1.1-2.78-8.53-3.34-8.89-.17-.11-.37-.14-.57-.13l-23.96.09-.29.3-3.13,8.64,4.32,2.57-.62.89-4.38-2.35c-.26.02-.34.36-.53.54-.83.81-1.68,1.62-2.48,2.47-.35.37-2.15,2.25-2.21,2.5-.05.22-.04.45-.02.68.08,1.73.58,3.6.59,5.36ZM9.49,17.52h-2.71v4.6h2.71v-4.6ZM53.22,17.52h-2.71v4.42l.18.18h2.53v-4.6ZM40.02,35.56v-7.96c0-.27-.67-.76-1-.65h-18.16c-.29-.07-.88.43-.88.65v7.96h2.95v-5.78h1.18v5.78h3.18v-5.78h1.18v5.78h3.06v-5.78h1.18v5.78h3.18v-5.78h1.18v5.78h2.95ZM14.21,48.23v-5.72h-4.89c-.17,0-.85-.66-.86-.91l-.96-8.68c-.34-.47-1.26.73-1.08,1.16.32,4.44-.41,9.43,0,13.8.07.79.3,1.14,1.12,1.23,1.21.14,4.33.14,5.54,0,.52-.06,1.02-.32,1.12-.88ZM45.79,42.51v5.72c0,.51.67.83,1.12.88,1.21.14,4.33.14,5.54,0,.82-.09,1.05-.45,1.12-1.23.41-4.37-.32-9.36,0-13.8.18-.44-.74-1.63-1.08-1.16l-.96,8.68c0,.26-.69.91-.86.91h-4.89ZM50.86,36.85H9.14l.47,4.48h7.6l5.31,2.35c4.75-.25,9.91.37,14.61.02,1.59-.12,4.71-2.36,5.65-2.36h7.6l.47-4.48Z"/>
  <path class="st0" d="M22.57,10.8h-3.42v-1.18h3.24c.32.28.13.79.18,1.18Z"/>
  <path class="st0" d="M40.84,9.63v1.18h-3.42c.04-.39-.15-.9.18-1.18h3.24Z"/>
  <path class="st0" d="M18.65,14.95h22.7c.32.09.52.82.64,1.13.39.96,1.39,3.36,1.54,4.24.08.45-.11.95-.62.98l-26.03-.03c-.36-.19-.48-.56-.41-.95.11-.63,1.48-4.34,1.81-4.92.1-.18.15-.38.38-.45ZM42.14,20.12l-1.49-3.99-21.38.04-1.41,3.95h24.28Z"/>
  <path class="st0" d="M12.05,28.63c.74-.12,2.85-.11,3.63-.03.82.09,1.35.53,1.46,1.37.09.65.09,2.55-.17,3.11-.14.31-.34.51-.65.65-.61.27-3.18.25-3.95.18-.87-.08-1.45-.45-1.58-1.37-.08-.56-.08-2.01,0-2.57.1-.71.54-1.22,1.26-1.34ZM12.14,29.78l-.18.18v2.59l.18.18h3.65l.18-.18v-2.59l-.18-.18h-3.65Z"/>
  <path class="st0" d="M44.11,28.63c.74-.12,2.85-.11,3.63-.03.82.09,1.35.53,1.46,1.37.09.65.09,2.55-.17,3.11-.14.31-.34.51-.65.65-.61.27-3.18.25-3.95.18-.87-.08-1.45-.45-1.58-1.37-.08-.56-.08-2.01,0-2.57.1-.71.54-1.22,1.26-1.34ZM44.2,29.78l-.18.18v2.59l.18.18h3.65l.18-.18v-2.59l-.18-.18h-3.65Z"/>
  <path class="st0" d="M24.43,37.94c3.45.23,7.55-.41,10.93-.03.56.06,1.11.37,1.1,1,0,.23-.81,2.76-.95,3.04-.13.24-.31.4-.56.51l-9.61.06c-.32,0-.65-.21-.81-.48-.16-.26-.96-2.72-.99-3.03-.05-.53.38-.99.89-1.06ZM35.19,39.09h-10.37l.78,2.24h8.71s.19-.08.19-.08l.69-2.17Z"/>
</svg>