<?xml version="1.0" encoding="UTF-8"?>
<svg id="Layer_1" xmlns="http://www.w3.org/2000/svg" version="1.1" viewBox="0 0 60 60">
  <!-- Generator: Adobe Illustrator 29.8.2, SVG Export Plug-In . SVG Version: 2.1.1 Build 3)  -->
  <defs>
    <style>
      .st0 {
        fill: #fff;
      }
    </style>
  </defs>
  <path class="st0" d="M55.7,23.25v2.31c-.42,1.17-1.17,1.59-2.41,1.56.52,1.58.22,3.26.32,4.9l.15.15c.84,0,1.57-.08,1.94.82v12.33c-.24.55-.6,1.03-1.25,1.11l-16.48-.07c-.4-.04-1.02-.73-1.02-1.08v-4.26h-18.85v3.26c0,.97-1.33,2.05-2.26,2.16-.75.08-3.13.08-3.8-.11-2.38-.67-1.66-3.49-1.76-5.34-1.57-.64-2.2-1.64-2.31-3.32-.13-1.81-.1-4.41,0-6.23.09-1.71.49-3.05,1.61-4.36h-3.76c-.14,0-.8-.41-.92-.54-.63-.67-.65-2.25-.53-3.12.11-.82.84-1.54,1.65-1.65.69-.09,3.01-.1,3.68.02s1.34.81,1.45,1.45l.12.83c.77-2.34,1.39-4.75,2.21-7.07.65-1.85,1.3-3.15,3.46-3.46l25.52.04c1.39.29,2.27,1.13,2.8,2.41.34.81,1.74,5.93,2,6.12l1.86.52c.41-.36.73-.78,1.31-.86.67-.1,2.92-.09,3.59,0,.85.12,1.36.76,1.66,1.5ZM12.38,25.36c.33.02.62-.09.95-.1,8.86-.3,17.9.24,26.78,0,.31-.06,1.02-1.06,1.35-1.35,1.25-1.1,2.37-1.45,3.96-1.76.12-.02.19-.04.25-.15l-1.83-5.68c-.31-.59-.82-1.04-1.45-1.25-8.54-.2-17.17-.24-25.7.02-.62.18-1.12.62-1.42,1.19l-2.89,9.09ZM5.98,23.28c-.17.15-.17,1.64-.13,1.94.04.37.22.41.56.45.37.04,2.86.04,3.06-.05.43-.2.43-2.05.09-2.3-.3-.23-3.34-.24-3.58-.03ZM54.07,23.28c-.3-.26-3.03-.12-3.58-.02.42.47.94.83,1.35,1.3.19.21.6.96.75,1.05.21.13,1.4.1,1.55-.15.11-.19.09-2.04-.08-2.18ZM52.19,32.18v-3.36c0-1.39-1.28-3.33-2.37-4.14-3.75-2.8-8.98-.24-9.36,4.35-.05.6-.1,2.37,0,2.91.07.37.41.24.7.25v-3.46c0-.48.46-1.55.72-1.99,1.75-2.93,5.75-3.42,8.16-.98,1.77,1.79,1.44,3.93,1.46,6.26.08.25.47.15.69.16ZM42.66,32.18h7.27l.15-.15v-2.71c0-3.02-3.63-4.71-6.01-2.9-.5.38-1.41,1.58-1.41,2.2v3.56ZM39.45,26.66H13.43c-.24,0-1.71.44-1.76.65,1.3,2.02,3.67,3.19,6.06,3.36h19.56c.72.06,1,.8.48,1.3l-20.74.09c-2.59-.31-5.01-1.69-6.52-3.81-.45.47-.78,1.15-.92,1.78-.31,1.39-.28,6.36-.13,7.89.08.83.58,1.48,1.45,1.56l26.03.1v-6.57s.25-.45.3-.5c.44-.47,1.07-.32,1.64-.36l.15-.15c.1-1.14-.08-2.37.02-3.49.06-.63.35-1.22.4-1.86ZM54.19,33.58h-15.74v11.43h15.74v-11.43ZM16.59,41h-4.91v2.96c0,.17.33.69.5.8.59.39,3.41.39,3.98-.02.09-.06.42-.44.42-.48v-3.26Z"/>
  <path class="st0" d="M16.95,33.52c.34.33,1.04,2.62,1.04,3.13.02.96-.72,1.44-1.64,1.33s-3.27-.73-4.17-1.05c-1.11-.4-1.08-1.13-1.21-2.2-.16-1.26-.29-2.74,1.51-2.52.88.11,3.01.72,3.89,1.02.18.06.43.15.57.29ZM16.49,36.49l-.6-1.85-3.51-.95c.04.34.09,1.69.3,1.86l3.81.95Z"/>
  <path class="st0" d="M18.87,33.6l15.62-.02c.9.02.95,1.3.1,1.41h-15.65c-.78-.08-.76-1.23-.07-1.39Z"/>
  <path class="st0" d="M35.01,36.92c.43.46.06,1.32-.62,1.28h-13.54c-1.14-.06-1.08-1.42,0-1.51,4.33.3,9.18-.39,13.44,0,.2.02.59.09.72.23Z"/>
  <path class="st0" d="M46.85,42.98c-.07.07-.42.18-.53.18-1.06,0-.68-1.52-.77-2.2-.07-.19-.5-.29-.68-.42-1.35-1-1.17-3.2.3-4,2.11-1.15,4.33,1.12,3.24,3.24-.32.62-.8.8-1.33,1.18-.09.5.15,1.65-.24,2.01ZM46.94,37.92c-.95-.82-2.19.81-1.13,1.48.99.63,1.94-.78,1.13-1.48Z"/>
  <path class="st0" d="M47.25,27.79c.78-.2,1.18.53.77,1.18-.49.78-2.76,2.32-3.65,2.56-.84.23-1.34-.56-.86-1.16.17-.21,1.54-.77,1.95-1.05.46-.32,1.44-1.43,1.79-1.52Z"/>
</svg>