<?xml version="1.0" encoding="UTF-8"?>
<svg id="Layer_1" xmlns="http://www.w3.org/2000/svg" version="1.1" viewBox="0 0 60 60">
  <!-- Generator: Adobe Illustrator 29.8.2, SVG Export Plug-In . SVG Version: 2.1.1 Build 3)  -->
  <defs>
    <style>
      .st0 {
        fill: #fff;
      }
    </style>
  </defs>
  <path class="st0" d="M4.44,30.04c.22-.25.39-.55.75-.59h5.03c.13-2.94,1.57-5.48,4.73-5.7,3.62-.25,7.52.2,11.17,0,1.16.04,1.31,1.6.19,1.9-4.02.11-8.11-.2-12.1.16-1.97.67-2.03,2.92-2.21,4.68l-.79,3.66h17.39c.06,0,.53.31.6.4.32.44.2,1.26-.35,1.44l-20.86.05-1.56,4.8h29.85c.09,0,.47.34.54.46.3.58-.12,1.44-.73,1.44h-5.23v2.8h9.57c.06,0,.2-.7.85-.7.38,0,.84.28.93.67l-.03,6.12c-.21.39-.36.47-.79.51-2.46.23-5.28-.18-7.78,0-.38.07-.84-.57-.84-.85v-3.84h-1.89c.06.66-.46.93-1.05,1-4.15-.23-8.65.31-12.76,0-.66-.05-1.28-.21-1.24-1h-1.89v3.94c0,.44-.56.72-.94.75-2.47.23-5.28-.18-7.78,0-.37,0-.51-.38-.74-.6v-10.98l1.8-5.34c-.74-.08-1.44.05-1.8-.75v-4.39ZM9.82,31.34h-3.49v1.9h3.19l.3-1.9ZM15.8,42.72H6.33v2.8h9.47v-2.8ZM29.05,42.72h-11.36v3.79h11.21l.15-.15v-3.64ZM12.01,47.42h-5.68v2.9h5.53l.15-.15v-2.75ZM40.31,47.42h-5.68v2.75l.15.15h5.53v-2.9Z"/>
  <path class="st0" d="M55.46,15.86c-.24,4.08.33,8.55,0,12.58-.58,7.18-7.88,9.8-12.58,14-.46.27-.63.35-1.14.1-4.54-4.08-12.14-6.91-12.69-13.85-.32-4.08.24-8.56,0-12.69.14-1.41,2.11-.57,3.05-.54,3.17.09,6.44-1.4,8.62-3.64.61-.63.91-1.65,2.05-1.16,2.65,3.38,6.34,5.09,10.66,4.7.82-.07,1.58-.57,2.04.5ZM53.57,17.26c-4.21.45-8.47-1.2-11.33-4.29-.5.35-.91.88-1.38,1.29-2.7,2.28-6.51,3.39-10.01,3,.12,3.25-.15,6.6,0,9.84.13,2.83.87,5.24,3.05,7.13l8.28,6.28c.17.03,1.65-1.14,1.92-1.34,3.34-2.5,9.48-6.11,9.48-10.77v-11.13Z"/>
  <path class="st0" d="M42.08,16.68c.26-.04.33,0,.56.09.52.21,1.46,1.05,2.09,1.41,1.22.69,2.59,1.22,3.95,1.53.54.12,1.82.21,2.19.41.34.18.48.53.51.89.16,1.75.15,5.24,0,6.99-.38,4.26-5.74,6.23-8.49,8.86-.41.3-.85.31-1.26.02-2.59-2.51-8.14-4.68-8.48-8.68-.16-1.85-.17-5.45,0-7.3.02-.22.02-.35.16-.54.3-.42,2.09-.54,2.7-.69,1.67-.39,3.13-1.12,4.57-2.01.41-.25,1.1-.92,1.52-.98ZM49.48,21.75c-2.63-.3-5.04-1.47-7.22-2.89-2.2,1.38-4.59,2.59-7.23,2.89.15,2.03-.2,4.34,0,6.34.09.84.63,1.78,1.25,2.34l5.83,4.45.26-.03c2.07-1.7,4.38-3.12,6.31-4.97,1.49-1.92.52-5.81.8-8.14Z"/>
  <path class="st0" d="M43.2,25.65c.74-.09,1.98-.01,1.87,1.02-.1.97-1.14.92-1.87.87.15.8-.14,2.11-1.2,1.85-.9-.22-.69-1.15-.7-1.85-.9.11-2.15,0-1.87-1.23.19-.84,1.24-.68,1.87-.67,0-.71-.2-1.64.7-1.85,1.05-.25,1.34,1.05,1.2,1.85Z"/>
</svg>