<?xml version="1.0" encoding="UTF-8"?>
<svg id="Layer_1" xmlns="http://www.w3.org/2000/svg" version="1.1" xmlns:xlink="http://www.w3.org/1999/xlink" viewBox="0 0 170 100">
  <!-- Generator: Adobe Illustrator 29.8.2, SVG Export Plug-In . SVG Version: 2.1.1 Build 3)  -->
  <defs>
    <style>
      .st0 {
        font-family: Square721BT-Bold, 'Square721 BT';
        font-size: 8.62px;
        font-weight: 700;
        letter-spacing: 1.5em;
      }

      .st0, .st1 {
        fill: #f8ffff;
      }

      .st2 {
        fill: url(#linear-gradient1);
      }

      .st3 {
        fill: #636262;
      }

      .st4 {
        fill: url(#linear-gradient);
      }
    </style>
    <linearGradient id="linear-gradient" x1="60.79" y1="33.41" x2="107.87" y2="33.41" gradientUnits="userSpaceOnUse">
      <stop offset="0" stop-color="#fff"/>
      <stop offset=".01" stop-color="#f0f0f0"/>
      <stop offset=".06" stop-color="#bdbdbd"/>
      <stop offset=".09" stop-color="#989898"/>
      <stop offset=".12" stop-color="#818181"/>
      <stop offset=".14" stop-color="#797979"/>
      <stop offset=".18" stop-color="gray"/>
      <stop offset=".22" stop-color="#949494"/>
      <stop offset=".28" stop-color="#b6b6b6"/>
      <stop offset=".35" stop-color="#e4e4e4"/>
      <stop offset=".38" stop-color="#fff"/>
      <stop offset=".53" stop-color="#f9f9f9"/>
      <stop offset=".7" stop-color="#eaeaea"/>
      <stop offset=".9" stop-color="#d1d1d1"/>
      <stop offset="1" stop-color="#c2c2c2"/>
    </linearGradient>
    <linearGradient id="linear-gradient1" x1="85.31" y1="54.63" x2="85.24" y2="67.66" xlink:href="#linear-gradient"/>
  </defs>
  <g>
    <path class="st1" d="M38.24,83.98v-11.68h3.66v9.59h3.46v2.09h-7.13Z"/>
    <path class="st1" d="M51.38,83.98h-3.66v-11.68h3.66v11.68Z"/>
    <path class="st1" d="M54.9,83.98v-11.68h5.31l2.11,9.22,2.21-9.22h5.22v11.68h-3.32l.22-9.87-2.44,9.87h-4.06l-2.36-9.87.27,9.87h-3.17Z"/>
    <path class="st1" d="M82.46,80.84c0,.8-.06,1.38-.18,1.72s-.33.63-.62.87c-.32.26-.72.44-1.2.54s-1.39.15-2.72.15-2.25-.05-2.73-.15-.88-.28-1.2-.54c-.3-.24-.51-.54-.64-.89-.13-.35-.19-.92-.19-1.7v-5.4c0-.78.06-1.34.19-1.69.12-.35.34-.65.64-.89.32-.26.75-.45,1.29-.55s1.41-.16,2.64-.16,2.1.05,2.62.16.95.29,1.28.55c.3.24.52.54.64.89.12.35.19.92.19,1.69v5.4ZM78.71,81.23v-6.16c0-.32-.07-.54-.2-.65-.13-.11-.39-.17-.78-.17s-.66.06-.79.17c-.13.11-.2.33-.2.65v6.16c0,.33.07.55.2.66.13.11.39.16.79.16s.65-.05.78-.16c.13-.11.2-.33.2-.66Z"/>
    <path class="st1" d="M85.58,72.3h3.68v8.9c0,.33.06.54.19.65.13.11.39.17.78.17s.65-.06.78-.17c.13-.11.2-.33.2-.65v-8.9h3.52v7.92c0,.91-.06,1.58-.19,2-.13.42-.34.78-.64,1.07-.32.3-.75.52-1.3.64-.55.13-1.37.19-2.46.19s-1.94-.06-2.48-.19c-.54-.13-.96-.34-1.27-.64-.29-.28-.5-.63-.62-1.05-.12-.41-.19-1.09-.19-2.03v-7.92Z"/>
    <path class="st1" d="M101.15,80.08v1.13c0,.3.08.52.24.64.16.13.44.19.83.19.42,0,.71-.06.86-.18.15-.12.22-.35.22-.68v-.83c0-.25-.02-.44-.06-.56-.04-.12-.11-.23-.21-.32-.24-.21-.79-.39-1.66-.54-.4-.06-.7-.12-.92-.17-1.02-.21-1.72-.52-2.1-.9-.38-.39-.57-.99-.57-1.82v-1.08c0-1.05.27-1.78.82-2.2.55-.41,1.49-.62,2.84-.62h1.08c.85,0,1.54.05,2.09.16.54.11.97.28,1.28.52.25.18.42.42.52.7.1.28.15.74.15,1.36v.9h-3.25v-.73c0-.37-.07-.61-.2-.73-.13-.12-.4-.18-.8-.18s-.65.06-.79.17-.21.32-.21.63v.76c0,.57.66.98,1.97,1.23.37.07.67.13.89.18,1.01.21,1.7.5,2.08.88.38.38.57.98.57,1.79v1.57c0,.98-.31,1.68-.94,2.11-.62.43-1.64.65-3.06.65h-.97c-1.55,0-2.62-.2-3.2-.59-.58-.39-.87-1.12-.87-2.18v-1.27h3.38Z"/>
    <path class="st1" d="M113.66,83.98h-3.66v-11.68h3.66v11.68Z"/>
    <path class="st1" d="M117.16,83.98v-11.68h5.16l2.84,9.24-.21-9.24h3.32v11.68h-5.14l-2.89-9.49.24,9.49h-3.32Z"/>
    <path class="st1" d="M131.65,83.98v-11.68h6.92v2.09h-3.25v2.58h3.05v2.01h-3.05v2.9h3.56v2.09h-7.22Z"/>
  </g>
  <path class="st3" d="M108.06,55.82h-2.17v-28.54c0-.14,1.64-1.79,2.17-1.81v30.34Z"/>
  <path class="st3" d="M103,55.82h-2.17v-23.48c0-.14,1.64-1.79,2.17-1.81v25.28Z"/>
  <path class="st3" d="M97.95,55.82h-2.17v-18.42c0-.14,1.64-1.79,2.17-1.81v20.23Z"/>
  <polygon class="st3" points="92.89 41.37 92.89 54.74 90.72 55.82 90.72 42.46 92.89 41.37"/>
  <text class="st0" transform="translate(63.09 66.28) scale(1.06 1)"><tspan x="0" y="0">YAZ</tspan></text>
  <path class="st4" d="M62.33,22.83c2.27,1.04,4.4,2.28,6.53,3.5,2.12,1.25,4.18,2.56,6.21,3.91,4.07,2.7,8,5.59,11.82,8.6l-3.11.03c1.75-1.41,3.53-2.8,5.33-4.15,1.8-1.36,3.64-2.66,5.49-3.95,1.87-1.27,3.76-2.52,5.7-3.7,1.95-1.17,3.9-2.34,5.98-3.35-1.41,1.83-2.95,3.51-4.48,5.19-1.55,1.66-3.15,3.26-4.77,4.84-1.64,1.56-3.28,3.1-4.97,4.59-1.68,1.5-3.4,2.96-5.14,4.39l-1.52,1.26-1.58-1.22c-3.85-2.98-7.61-6.09-11.21-9.38-1.8-1.65-3.58-3.33-5.3-5.08-1.7-1.78-3.42-3.54-4.98-5.49Z"/>
  <rect class="st2" x="83.47" y="40.62" width="3.76" height="15.42"/>
  <path class="st3" d="M142.06,78.14c6.36-1.37,13-1.38,19.36,0-6.36,1.38-12.99,1.37-19.36,0h0Z"/>
  <path class="st3" d="M15.7,78.21c6.36-1.37,13-1.38,19.36,0-6.36,1.38-12.99,1.37-19.36,0h0Z"/>
  <path class="st3" d="M15.7,16.96s72.42-3.05,145.72,1.09"/>
  <polygon class="st3" points="90.72 55.82 90.72 56.03 92.89 56.03 92.89 54.38 91.25 54.38 90.72 55.82"/>
  <path class="st3" d="M62.55,56.44h2.17s0-28.54,0-28.54c0-.14-1.64-1.79-2.17-1.81v30.34Z"/>
  <path class="st3" d="M67.61,56.44h2.17s0-23.48,0-23.48c0-.14-1.64-1.79-2.17-1.81v25.28Z"/>
  <path class="st3" d="M72.66,56.44h2.17s0-18.42,0-18.42c0-.14-1.64-1.79-2.17-1.81v20.23Z"/>
  <polygon class="st3" points="77.72 41.99 77.72 55.36 79.89 56.44 79.89 43.07 77.72 41.99"/>
  <polygon class="st3" points="79.89 56.44 79.89 56.65 77.72 56.65 77.72 55 79.36 55 79.89 56.44"/>
</svg>