<?xml version="1.0" encoding="UTF-8"?>
<svg id="Layer_1" xmlns="http://www.w3.org/2000/svg" version="1.1" xmlns:xlink="http://www.w3.org/1999/xlink" viewBox="0 0 1040.33 814.69">
  <!-- Generator: Adobe Illustrator 29.8.2, SVG Export Plug-In . SVG Version: 2.1.1 Build 3)  -->
  <defs>
    <style>
      .st0 {
        fill: url(#linear-gradient134);
      }

      .st1 {
        fill: url(#linear-gradient139);
      }

      .st2 {
        fill: url(#linear-gradient75);
      }

      .st3 {
        fill: url(#linear-gradient2);
      }

      .st4 {
        fill: url(#linear-gradient81);
      }

      .st5 {
        fill: url(#linear-gradient120);
      }

      .st6 {
        fill: url(#linear-gradient36);
      }

      .st7 {
        fill: url(#linear-gradient39);
      }

      .st8 {
        fill: url(#linear-gradient107);
      }

      .st9 {
        fill: url(#linear-gradient130);
      }

      .st10 {
        fill: url(#linear-gradient34);
      }

      .st11 {
        fill: url(#linear-gradient58);
      }

      .st12 {
        fill: url(#linear-gradient131);
      }

      .st13 {
        fill: url(#linear-gradient73);
      }

      .st14 {
        fill: url(#linear-gradient83);
      }

      .st15 {
        fill: url(#linear-gradient129);
      }

      .st16 {
        fill: url(#linear-gradient33);
      }

      .st17 {
        fill: url(#linear-gradient10);
      }

      .st18 {
        fill: url(#linear-gradient63);
      }

      .st19 {
        fill: url(#linear-gradient82);
      }

      .st20 {
        fill: url(#linear-gradient71);
      }

      .st21 {
        fill: url(#linear-gradient32);
      }

      .st22 {
        fill: url(#linear-gradient123);
      }

      .st23 {
        fill: url(#linear-gradient21);
      }

      .st24 {
        fill: url(#linear-gradient85);
      }

      .st25 {
        fill: url(#linear-gradient112);
      }

      .st26 {
        fill: url(#linear-gradient37);
      }

      .st27 {
        fill: url(#linear-gradient56);
      }

      .st28 {
        fill: url(#linear-gradient27);
      }

      .st29 {
        fill: url(#linear-gradient126);
      }

      .st30 {
        fill: url(#linear-gradient53);
      }

      .st31 {
        fill: url(#linear-gradient57);
      }

      .st32 {
        fill: url(#linear-gradient113);
      }

      .st33 {
        fill: url(#linear-gradient35);
      }

      .st34 {
        fill: url(#linear-gradient116);
      }

      .st35 {
        fill: url(#linear-gradient119);
      }

      .st36 {
        fill: url(#linear-gradient26);
      }

      .st37 {
        fill: url(#linear-gradient1);
      }

      .st38 {
        fill: url(#linear-gradient118);
      }

      .st39 {
        fill: url(#linear-gradient109);
      }

      .st40 {
        fill: url(#linear-gradient9);
      }

      .st41 {
        fill: url(#linear-gradient125);
      }

      .st42 {
        fill: url(#linear-gradient18);
      }

      .st43 {
        fill: url(#linear-gradient61);
      }

      .st44 {
        fill: url(#linear-gradient101);
      }

      .st45 {
        fill: url(#linear-gradient132);
      }

      .st46 {
        fill: url(#linear-gradient138);
      }

      .st47 {
        fill: url(#linear-gradient23);
      }

      .st48 {
        fill: url(#linear-gradient72);
      }

      .st49 {
        fill: url(#linear-gradient43);
      }

      .st50 {
        fill: url(#linear-gradient78);
      }

      .st51 {
        fill: url(#linear-gradient69);
      }

      .st52 {
        fill: url(#linear-gradient8);
      }

      .st53 {
        fill: url(#linear-gradient11);
      }

      .st54 {
        fill: none;
      }

      .st55 {
        fill: #242122;
      }

      .st56 {
        fill: url(#linear-gradient104);
      }

      .st57 {
        fill: url(#linear-gradient105);
      }

      .st58 {
        fill: url(#linear-gradient16);
      }

      .st59 {
        fill: url(#linear-gradient135);
      }

      .st60 {
        fill: url(#linear-gradient24);
      }

      .st61 {
        fill: url(#linear-gradient95);
      }

      .st62 {
        fill: url(#linear-gradient137);
      }

      .st63 {
        fill: url(#linear-gradient140);
      }

      .st64 {
        fill: url(#linear-gradient30);
      }

      .st65 {
        fill: url(#linear-gradient46);
      }

      .st66 {
        fill: url(#linear-gradient114);
      }

      .st67 {
        fill: url(#linear-gradient94);
      }

      .st68 {
        fill: url(#linear-gradient22);
      }

      .st69 {
        fill: url(#linear-gradient108);
      }

      .st70 {
        fill: url(#linear-gradient29);
      }

      .st71 {
        fill: url(#linear-gradient68);
      }

      .st72 {
        fill: url(#linear-gradient49);
      }

      .st73 {
        fill: url(#linear-gradient93);
      }

      .st74 {
        fill: url(#linear-gradient106);
      }

      .st75 {
        fill: url(#linear-gradient19);
      }

      .st76 {
        fill: url(#linear-gradient12);
      }

      .st77 {
        fill: url(#linear-gradient65);
      }

      .st78 {
        fill: url(#linear-gradient128);
      }

      .st79 {
        fill: url(#linear-gradient80);
      }

      .st80 {
        fill: url(#linear-gradient142);
      }

      .st81 {
        fill: url(#linear-gradient42);
      }

      .st82 {
        fill: url(#linear-gradient28);
      }

      .st83 {
        fill: url(#linear-gradient100);
      }

      .st84 {
        fill: url(#linear-gradient67);
      }

      .st85 {
        fill: url(#linear-gradient40);
      }

      .st86 {
        fill: url(#linear-gradient66);
      }

      .st87 {
        fill: url(#linear-gradient84);
      }

      .st88 {
        fill: url(#linear-gradient111);
      }

      .st89 {
        fill: url(#linear-gradient62);
      }

      .st90 {
        fill: url(#linear-gradient7);
      }

      .st91 {
        fill: url(#linear-gradient59);
      }

      .st92 {
        fill: url(#linear-gradient91);
      }

      .st93 {
        fill: url(#linear-gradient20);
      }

      .st94 {
        fill: url(#linear-gradient4);
      }

      .st95 {
        fill: url(#linear-gradient31);
      }

      .st96 {
        fill: url(#linear-gradient96);
      }

      .st97 {
        fill: url(#linear-gradient79);
      }

      .st98 {
        fill: url(#linear-gradient98);
      }

      .st99 {
        fill: url(#linear-gradient14);
      }

      .st100 {
        fill: url(#linear-gradient5);
      }

      .st101 {
        fill: url(#linear-gradient74);
      }

      .st102 {
        fill: url(#linear-gradient3);
      }

      .st103 {
        fill: #eed894;
      }

      .st104 {
        fill: url(#linear-gradient102);
      }

      .st105 {
        fill: url(#linear-gradient87);
      }

      .st106 {
        fill: url(#linear-gradient55);
      }

      .st107 {
        fill: url(#linear-gradient38);
      }

      .st108 {
        fill: url(#linear-gradient25);
      }

      .st109 {
        fill: url(#linear-gradient99);
      }

      .st110 {
        fill: url(#linear-gradient121);
      }

      .st111 {
        fill: url(#linear-gradient52);
      }

      .st112 {
        fill: url(#linear-gradient15);
      }

      .st113 {
        fill: url(#linear-gradient136);
      }

      .st114 {
        fill: url(#linear-gradient88);
      }

      .st115 {
        fill: url(#linear-gradient17);
      }

      .st116 {
        fill: url(#linear-gradient54);
      }

      .st117 {
        fill: url(#linear-gradient141);
      }

      .st118 {
        fill: url(#linear-gradient50);
      }

      .st119 {
        fill: url(#linear-gradient103);
      }

      .st120 {
        fill: url(#linear-gradient124);
      }

      .st121 {
        fill: url(#linear-gradient89);
      }

      .st122 {
        fill: url(#linear-gradient51);
      }

      .st123 {
        fill: url(#linear-gradient6);
      }

      .st124 {
        fill: url(#linear-gradient92);
      }

      .st125 {
        fill: url(#linear-gradient77);
      }

      .st126 {
        fill: url(#linear-gradient117);
      }

      .st127 {
        fill: url(#linear-gradient86);
      }

      .st128 {
        fill: url(#linear-gradient64);
      }

      .st129 {
        fill: url(#linear-gradient90);
      }

      .st130 {
        fill: url(#linear-gradient115);
      }

      .st131 {
        fill: url(#linear-gradient70);
      }

      .st132 {
        fill: url(#linear-gradient76);
      }

      .st133 {
        fill: url(#linear-gradient48);
      }

      .st134 {
        fill: url(#linear-gradient122);
      }

      .st135 {
        fill: url(#linear-gradient13);
      }

      .st136 {
        fill: url(#linear-gradient45);
      }

      .st137 {
        fill: url(#linear-gradient97);
      }

      .st138 {
        fill: url(#linear-gradient47);
      }

      .st139 {
        fill: url(#linear-gradient60);
      }

      .st140 {
        fill: url(#linear-gradient);
      }

      .st141 {
        fill: url(#linear-gradient44);
      }

      .st142 {
        fill: url(#linear-gradient41);
      }

      .st143 {
        fill: url(#linear-gradient133);
      }

      .st144 {
        fill: url(#linear-gradient127);
      }

      .st145 {
        fill: url(#linear-gradient110);
      }

      .st146 {
        fill: url(#linear-gradient143);
      }
    </style>
    <linearGradient id="linear-gradient" x1="716.07" y1="722.53" x2="985.46" y2="724.49" gradientUnits="userSpaceOnUse">
      <stop offset="0" stop-color="#b07d23"/>
      <stop offset=".53" stop-color="#ecd393"/>
      <stop offset="1" stop-color="#fff9ba"/>
    </linearGradient>
    <linearGradient id="linear-gradient1" x1="715.88" y1="758.59" x2="985.24" y2="760.55" xlink:href="#linear-gradient"/>
    <linearGradient id="linear-gradient2" x1="-162.69" y1="722.49" x2="116.57" y2="724.52" gradientTransform="translate(199.82 1447.08) scale(1 -1)" xlink:href="#linear-gradient"/>
    <linearGradient id="linear-gradient3" x1="-162.89" y1="758.57" x2="116.34" y2="760.6" gradientTransform="translate(163.85) rotate(-180) scale(1 -1)" xlink:href="#linear-gradient"/>
    <linearGradient id="linear-gradient4" x1="275.47" y1="556.24" x2="40.15" y2="557.09" xlink:href="#linear-gradient"/>
    <linearGradient id="linear-gradient5" x1="1091.25" y1="552.38" x2="816.92" y2="553.37" gradientTransform="translate(1832.7) rotate(-180) scale(1 -1)" xlink:href="#linear-gradient"/>
    <linearGradient id="linear-gradient6" x1="419.27" y1="553.98" x2="746.14" y2="448.07" gradientUnits="userSpaceOnUse">
      <stop offset="0" stop-color="#b69148"/>
      <stop offset=".02" stop-color="#b9964e"/>
      <stop offset=".13" stop-color="#ceb36e"/>
      <stop offset=".25" stop-color="#dfcc88"/>
      <stop offset=".38" stop-color="#ecde9d"/>
      <stop offset=".53" stop-color="#f5ebab"/>
      <stop offset=".71" stop-color="#fbf3b4"/>
      <stop offset="1" stop-color="#fdf6b7"/>
    </linearGradient>
    <linearGradient id="linear-gradient7" x1="591.8" y1="564.74" x2="744.62" y2="475.26" xlink:href="#linear-gradient6"/>
    <linearGradient id="linear-gradient8" x1="750.35" y1="428.38" x2="602.2" y2="453.97" xlink:href="#linear-gradient6"/>
    <linearGradient id="linear-gradient9" x1="459.53" y1="516.95" x2="460.49" y2="455.91" gradientUnits="userSpaceOnUse">
      <stop offset="0" stop-color="#b5984e"/>
      <stop offset="1" stop-color="#fff9ba"/>
    </linearGradient>
    <linearGradient id="linear-gradient10" x1="441.43" y1="516.67" x2="442.39" y2="455.63" xlink:href="#linear-gradient9"/>
    <linearGradient id="linear-gradient11" x1="438.4" y1="516.61" x2="439.36" y2="455.57" xlink:href="#linear-gradient9"/>
    <linearGradient id="linear-gradient12" x1="438.03" y1="516.66" x2="438.99" y2="455.55" xlink:href="#linear-gradient9"/>
    <linearGradient id="linear-gradient13" x1="438.81" y1="516.62" x2="439.77" y2="455.58" xlink:href="#linear-gradient9"/>
    <linearGradient id="linear-gradient14" x1="443.09" y1="516.69" x2="444.05" y2="455.65" xlink:href="#linear-gradient9"/>
    <linearGradient id="linear-gradient15" x1="448.72" y1="516.78" x2="449.68" y2="455.74" xlink:href="#linear-gradient9"/>
    <linearGradient id="linear-gradient16" x1="456.81" y1="516.91" x2="457.77" y2="455.87" xlink:href="#linear-gradient9"/>
    <linearGradient id="linear-gradient17" x1="463.73" y1="517" x2="464.69" y2="455.97" xlink:href="#linear-gradient9"/>
    <linearGradient id="linear-gradient18" x1="468.44" y1="517.07" x2="469.4" y2="456.06" xlink:href="#linear-gradient9"/>
    <linearGradient id="linear-gradient19" x1="470.51" y1="517.11" x2="471.47" y2="456.08" xlink:href="#linear-gradient9"/>
    <linearGradient id="linear-gradient20" x1="472.75" y1="517.19" x2="473.72" y2="456.1" xlink:href="#linear-gradient9"/>
    <linearGradient id="linear-gradient21" x1="472.4" y1="517.18" x2="473.36" y2="456.11" xlink:href="#linear-gradient9"/>
    <linearGradient id="linear-gradient22" x1="469.09" y1="517.06" x2="470.05" y2="456.06" xlink:href="#linear-gradient9"/>
    <linearGradient id="linear-gradient23" x1="463.52" y1="517.04" x2="464.49" y2="455.97" xlink:href="#linear-gradient9"/>
    <linearGradient id="linear-gradient24" x1="456.78" y1="516.88" x2="457.74" y2="455.86" xlink:href="#linear-gradient9"/>
    <linearGradient id="linear-gradient25" x1="446.8" y1="516.74" x2="447.76" y2="455.71" xlink:href="#linear-gradient9"/>
    <linearGradient id="linear-gradient26" x1="455.54" y1="516.89" x2="456.51" y2="455.86" xlink:href="#linear-gradient9"/>
    <linearGradient id="linear-gradient27" x1="733.73" y1="409.5" x2="739.48" y2="409.5" xlink:href="#linear-gradient9"/>
    <linearGradient id="linear-gradient28" x1="731.97" y1="413.26" x2="739.03" y2="413.26" xlink:href="#linear-gradient9"/>
    <linearGradient id="linear-gradient29" x1="731.53" y1="417.57" x2="739.15" y2="417.57" xlink:href="#linear-gradient9"/>
    <linearGradient id="linear-gradient30" x1="731.95" y1="420.81" x2="739.19" y2="420.81" xlink:href="#linear-gradient9"/>
    <linearGradient id="linear-gradient31" x1="733.95" y1="423.42" x2="740.12" y2="423.42" xlink:href="#linear-gradient9"/>
    <linearGradient id="linear-gradient32" x1="737.34" y1="425.01" x2="740.61" y2="425.01" xlink:href="#linear-gradient9"/>
    <linearGradient id="linear-gradient33" x1="740.8" y1="425.26" x2="742.74" y2="425.26" xlink:href="#linear-gradient9"/>
    <linearGradient id="linear-gradient34" x1="742.26" y1="424.4" x2="746.2" y2="424.4" xlink:href="#linear-gradient9"/>
    <linearGradient id="linear-gradient35" x1="743" y1="423.03" x2="748.79" y2="423.03" xlink:href="#linear-gradient9"/>
    <linearGradient id="linear-gradient36" x1="743.03" y1="420.27" x2="750.27" y2="420.27" xlink:href="#linear-gradient9"/>
    <linearGradient id="linear-gradient37" x1="743.69" y1="416.98" x2="751.22" y2="416.98" xlink:href="#linear-gradient9"/>
    <linearGradient id="linear-gradient38" x1="743.61" y1="412.84" x2="751.13" y2="412.84" xlink:href="#linear-gradient9"/>
    <linearGradient id="linear-gradient39" x1="743.05" y1="409.78" x2="749.46" y2="409.78" xlink:href="#linear-gradient9"/>
    <linearGradient id="linear-gradient40" x1="741.89" y1="407.54" x2="746.79" y2="407.54" xlink:href="#linear-gradient9"/>
    <linearGradient id="linear-gradient41" x1="741.19" y1="406.73" x2="742.93" y2="406.73" xlink:href="#linear-gradient9"/>
    <linearGradient id="linear-gradient42" x1="736.5" y1="407.73" x2="740.5" y2="407.73" xlink:href="#linear-gradient9"/>
    <linearGradient id="linear-gradient43" x1="739.05" y1="415.98" x2="743.87" y2="415.98" xlink:href="#linear-gradient9"/>
    <linearGradient id="linear-gradient44" x1="480.4" y1="443.9" x2="370.34" y2="454.48" xlink:href="#linear-gradient6"/>
    <linearGradient id="linear-gradient45" x1="317.66" y1="502.18" x2="341.21" y2="482" xlink:href="#linear-gradient"/>
    <linearGradient id="linear-gradient46" x1="506.59" y1="390.13" x2="343.91" y2="380.76" xlink:href="#linear-gradient6"/>
    <linearGradient id="linear-gradient47" x1="244.38" y1="420.67" x2="302.42" y2="434.73" xlink:href="#linear-gradient"/>
    <linearGradient id="linear-gradient48" x1="686.3" y1="391.06" x2="691.3" y2="391.06" xlink:href="#linear-gradient6"/>
    <linearGradient id="linear-gradient49" x1="239.44" y1="402.04" x2="304.2" y2="409.01" xlink:href="#linear-gradient6"/>
    <linearGradient id="linear-gradient50" x1="238.82" y1="407.8" x2="303.59" y2="414.77" xlink:href="#linear-gradient6"/>
    <linearGradient id="linear-gradient51" x1="238" y1="415.47" x2="302.76" y2="422.44" xlink:href="#linear-gradient6"/>
    <linearGradient id="linear-gradient52" x1="237.26" y1="422.29" x2="302.03" y2="429.26" xlink:href="#linear-gradient6"/>
    <linearGradient id="linear-gradient53" x1="236.44" y1="429.92" x2="301.21" y2="436.89" xlink:href="#linear-gradient6"/>
    <linearGradient id="linear-gradient54" x1="235.67" y1="437.12" x2="300.43" y2="444.09" xlink:href="#linear-gradient6"/>
    <linearGradient id="linear-gradient55" x1="234.94" y1="443.93" x2="299.7" y2="450.9" xlink:href="#linear-gradient6"/>
    <linearGradient id="linear-gradient56" x1="586.78" y1="399.45" x2="591.09" y2="399.45" xlink:href="#linear-gradient6"/>
    <linearGradient id="linear-gradient57" x1="514.15" y1="403.48" x2="518.45" y2="403.48" xlink:href="#linear-gradient"/>
    <linearGradient id="linear-gradient58" x1="724.76" y1="389.15" x2="731.54" y2="389.15" xlink:href="#linear-gradient"/>
    <linearGradient id="linear-gradient59" x1="736.77" y1="385.96" x2="721.27" y2="387.4" xlink:href="#linear-gradient"/>
    <linearGradient id="linear-gradient60" x1="584.79" y1="397.13" x2="568.93" y2="397.85" xlink:href="#linear-gradient"/>
    <linearGradient id="linear-gradient61" x1="526.91" y1="382.19" x2="513.49" y2="382.8" xlink:href="#linear-gradient"/>
    <linearGradient id="linear-gradient62" x1="565.36" y1="357.79" x2="575.78" y2="357.79" xlink:href="#linear-gradient6"/>
    <linearGradient id="linear-gradient63" x1="571.04" y1="357.5" x2="581.47" y2="357.5" xlink:href="#linear-gradient6"/>
    <linearGradient id="linear-gradient64" x1="578.2" y1="357.68" x2="588.21" y2="357.68" xlink:href="#linear-gradient6"/>
    <linearGradient id="linear-gradient65" x1="696.21" y1="361.46" x2="704.1" y2="361.46" xlink:href="#linear-gradient9"/>
    <linearGradient id="linear-gradient66" x1="700.24" y1="361.13" x2="708.14" y2="361.13" xlink:href="#linear-gradient9"/>
    <linearGradient id="linear-gradient67" x1="229.55" y1="423.35" x2="277.85" y2="419.02" gradientUnits="userSpaceOnUse">
      <stop offset="0" stop-color="#b0863e"/>
      <stop offset=".53" stop-color="#ecd393"/>
      <stop offset="1" stop-color="#fff9ba"/>
    </linearGradient>
    <linearGradient id="linear-gradient68" x1="414.63" y1="441.66" x2="362.96" y2="441.66" xlink:href="#linear-gradient"/>
    <linearGradient id="linear-gradient69" x1="414.64" y1="422.02" x2="362.96" y2="422.02" gradientUnits="userSpaceOnUse">
      <stop offset="0" stop-color="#b07d23"/>
      <stop offset=".53" stop-color="#ecd393"/>
      <stop offset=".78" stop-color="#ecd494"/>
      <stop offset=".88" stop-color="#f0db9b"/>
      <stop offset=".94" stop-color="#f5e6a7"/>
      <stop offset="1" stop-color="#fef7b8"/>
      <stop offset="1" stop-color="#fff9ba"/>
    </linearGradient>
    <linearGradient id="linear-gradient70" x1="414.64" y1="423.49" x2="362.96" y2="423.49" xlink:href="#linear-gradient69"/>
    <linearGradient id="linear-gradient71" x1="506.69" y1="431.99" x2="457.67" y2="420.82" xlink:href="#linear-gradient67"/>
    <linearGradient id="linear-gradient72" x1="723.06" y1="424.67" x2="723.05" y2="424.67" xlink:href="#linear-gradient67"/>
    <linearGradient id="linear-gradient73" x1="793.68" y1="377.54" x2="698.03" y2="383.79" xlink:href="#linear-gradient6"/>
    <linearGradient id="linear-gradient74" x1="473.96" y1="412.78" x2="474.27" y2="412.78" xlink:href="#linear-gradient"/>
    <linearGradient id="linear-gradient75" x1="561.59" y1="374.53" x2="542.04" y2="370.08" xlink:href="#linear-gradient67"/>
    <linearGradient id="linear-gradient76" x1="371.06" y1="368.37" x2="361.4" y2="366.17" xlink:href="#linear-gradient67"/>
    <linearGradient id="linear-gradient77" x1="512.66" y1="332.92" x2="512.66" y2="164.08" xlink:href="#linear-gradient6"/>
    <linearGradient id="linear-gradient78" x1="446.17" y1="332.8" x2="446.17" y2="164.09" xlink:href="#linear-gradient6"/>
    <linearGradient id="linear-gradient79" x1="573.66" y1="332.8" x2="573.66" y2="164.09" xlink:href="#linear-gradient6"/>
    <linearGradient id="linear-gradient80" x1="428.57" y1="332.92" x2="428.57" y2="164.07" xlink:href="#linear-gradient6"/>
    <linearGradient id="linear-gradient81" x1="540.04" y1="332.92" x2="540.04" y2="164.07" xlink:href="#linear-gradient6"/>
    <linearGradient id="linear-gradient82" x1="616.16" y1="332.92" x2="616.16" y2="164.07" xlink:href="#linear-gradient6"/>
    <linearGradient id="linear-gradient83" x1="416.47" y1="332.92" x2="416.47" y2="164.08" xlink:href="#linear-gradient6"/>
    <linearGradient id="linear-gradient84" x1="541.9" y1="332.92" x2="541.9" y2="164.08" xlink:href="#linear-gradient6"/>
    <linearGradient id="linear-gradient85" x1="626.12" y1="332.92" x2="626.12" y2="164.08" xlink:href="#linear-gradient6"/>
    <linearGradient id="linear-gradient86" x1="408.13" y1="332.91" x2="408.13" y2="164.07" xlink:href="#linear-gradient6"/>
    <linearGradient id="linear-gradient87" x1="537.14" y1="332.91" x2="537.14" y2="164.07" xlink:href="#linear-gradient6"/>
    <linearGradient id="linear-gradient88" x1="639.14" y1="332.91" x2="639.14" y2="164.07" xlink:href="#linear-gradient6"/>
    <linearGradient id="linear-gradient89" x1="371.74" y1="332.91" x2="371.74" y2="164.07" xlink:href="#linear-gradient6"/>
    <linearGradient id="linear-gradient90" x1="476.8" y1="332.91" x2="476.8" y2="164.07" xlink:href="#linear-gradient6"/>
    <linearGradient id="linear-gradient91" x1="535.98" y1="332.91" x2="535.98" y2="164.07" xlink:href="#linear-gradient6"/>
    <linearGradient id="linear-gradient92" x1="647.45" y1="332.91" x2="647.45" y2="164.07" xlink:href="#linear-gradient6"/>
    <linearGradient id="linear-gradient93" x1="366.33" y1="332.92" x2="366.33" y2="164.07" xlink:href="#linear-gradient6"/>
    <linearGradient id="linear-gradient94" x1="481.01" y1="332.92" x2="481.01" y2="164.07" xlink:href="#linear-gradient6"/>
    <linearGradient id="linear-gradient95" x1="535.98" y1="332.92" x2="535.98" y2="164.07" xlink:href="#linear-gradient6"/>
    <linearGradient id="linear-gradient96" x1="652.91" y1="332.92" x2="652.91" y2="164.07" xlink:href="#linear-gradient6"/>
    <linearGradient id="linear-gradient97" x1="329.96" y1="332.91" x2="329.96" y2="164.07" xlink:href="#linear-gradient6"/>
    <linearGradient id="linear-gradient98" x1="422.32" y1="332.91" x2="422.32" y2="164.07" xlink:href="#linear-gradient6"/>
    <linearGradient id="linear-gradient99" x1="481.03" y1="332.91" x2="481.03" y2="164.07" xlink:href="#linear-gradient6"/>
    <linearGradient id="linear-gradient100" x1="535.98" y1="332.91" x2="535.98" y2="164.07" xlink:href="#linear-gradient6"/>
    <linearGradient id="linear-gradient101" x1="657.75" y1="332.91" x2="657.75" y2="164.07" xlink:href="#linear-gradient6"/>
    <linearGradient id="linear-gradient102" x1="325.97" y1="332.91" x2="325.97" y2="164.06" xlink:href="#linear-gradient6"/>
    <linearGradient id="linear-gradient103" x1="422.32" y1="332.91" x2="422.32" y2="164.06" xlink:href="#linear-gradient6"/>
    <linearGradient id="linear-gradient104" x1="481.08" y1="332.91" x2="481.08" y2="164.06" xlink:href="#linear-gradient6"/>
    <linearGradient id="linear-gradient105" x1="535.98" y1="332.92" x2="535.98" y2="163.98" xlink:href="#linear-gradient6"/>
    <linearGradient id="linear-gradient106" x1="596.95" y1="332.91" x2="596.95" y2="164.06" xlink:href="#linear-gradient6"/>
    <linearGradient id="linear-gradient107" x1="697.64" y1="332.91" x2="697.64" y2="164.06" xlink:href="#linear-gradient6"/>
    <linearGradient id="linear-gradient108" x1="296.04" y1="332.91" x2="296.04" y2="164.07" xlink:href="#linear-gradient6"/>
    <linearGradient id="linear-gradient109" x1="367.87" y1="332.91" x2="367.87" y2="164.07" xlink:href="#linear-gradient6"/>
    <linearGradient id="linear-gradient110" x1="661.26" y1="332.9" x2="661.26" y2="164.26" xlink:href="#linear-gradient6"/>
    <linearGradient id="linear-gradient111" x1="724" y1="332.91" x2="724" y2="164.07" xlink:href="#linear-gradient6"/>
    <linearGradient id="linear-gradient112" x1="566.76" y1="212.69" x2="566.76" y2="212.53" xlink:href="#linear-gradient6"/>
    <linearGradient id="linear-gradient113" x1="507.93" y1="332.91" x2="507.93" y2="164.08" xlink:href="#linear-gradient6"/>
    <linearGradient id="linear-gradient114" x1="560.21" y1="306.56" x2="560.21" y2="174.38" xlink:href="#linear-gradient6"/>
    <linearGradient id="linear-gradient115" x1="562.85" y1="212.88" x2="562.85" y2="212.31" xlink:href="#linear-gradient6"/>
    <linearGradient id="linear-gradient116" x1="566.76" y1="215.09" x2="566.76" y2="211.67" xlink:href="#linear-gradient6"/>
    <linearGradient id="linear-gradient117" x1="571.41" y1="328.78" x2="571.41" y2="165.65" xlink:href="#linear-gradient6"/>
    <linearGradient id="linear-gradient118" x1="566.76" y1="219.06" x2="566.76" y2="210.17" xlink:href="#linear-gradient6"/>
    <linearGradient id="linear-gradient119" x1="455.1" y1="334.44" x2="448.85" y2="334.71" xlink:href="#linear-gradient67"/>
    <linearGradient id="linear-gradient120" x1="507.66" y1="558.23" x2="507.66" y2="126.42" xlink:href="#linear-gradient6"/>
    <linearGradient id="linear-gradient121" x1="149.99" y1="341.29" x2="203.07" y2="341.29" xlink:href="#linear-gradient"/>
    <linearGradient id="linear-gradient122" x1="-2626.11" y1="421.89" x2="-2573.03" y2="421.89" gradientTransform="translate(-1763.41) rotate(-180) scale(1 -1)" xlink:href="#linear-gradient"/>
    <linearGradient id="linear-gradient123" x1="892.79" y1="687.73" x2="892.79" y2="590.23" xlink:href="#linear-gradient6"/>
    <linearGradient id="linear-gradient124" x1="95.47" y1="249.95" x2="93.52" y2="345.47" gradientTransform="translate(0 942.2) scale(1 -1)" gradientUnits="userSpaceOnUse">
      <stop offset="0" stop-color="#b69148"/>
      <stop offset=".02" stop-color="#ba974e"/>
      <stop offset=".13" stop-color="#cfb46e"/>
      <stop offset=".25" stop-color="#e0cc89"/>
      <stop offset=".38" stop-color="#eddf9d"/>
      <stop offset=".53" stop-color="#f6ecac"/>
      <stop offset=".71" stop-color="#fbf4b4"/>
      <stop offset="1" stop-color="#fdf6b7"/>
    </linearGradient>
    <linearGradient id="linear-gradient125" x1="179.5" y1="251.59" x2="177.55" y2="347.11" xlink:href="#linear-gradient124"/>
    <linearGradient id="linear-gradient126" x1="249.67" y1="253.03" x2="247.73" y2="348.55" xlink:href="#linear-gradient124"/>
    <linearGradient id="linear-gradient127" x1="356.28" y1="255.17" x2="354.29" y2="350.73" xlink:href="#linear-gradient124"/>
    <linearGradient id="linear-gradient128" x1="440.23" y1="256.93" x2="438.28" y2="352.44" xlink:href="#linear-gradient124"/>
    <linearGradient id="linear-gradient129" x1="521.77" y1="675.06" x2="521.64" y2="616.2" xlink:href="#linear-gradient6"/>
    <linearGradient id="linear-gradient130" x1="597.08" y1="674.49" x2="598.97" y2="577.52" xlink:href="#linear-gradient6"/>
    <linearGradient id="linear-gradient131" x1="699.09" y1="672.56" x2="701.45" y2="584.56" xlink:href="#linear-gradient6"/>
    <linearGradient id="linear-gradient132" x1="797.42" y1="674.27" x2="797.42" y2="576.69" xlink:href="#linear-gradient6"/>
    <linearGradient id="linear-gradient133" x1="975.59" y1="674.73" x2="973.26" y2="584.33" xlink:href="#linear-gradient6"/>
    <linearGradient id="linear-gradient134" x1="177.09" y1="231.21" x2="243.47" y2="231.21" xlink:href="#linear-gradient"/>
    <linearGradient id="linear-gradient135" x1="226.89" y1="179.33" x2="291.04" y2="179.33" xlink:href="#linear-gradient"/>
    <linearGradient id="linear-gradient136" x1="285.02" y1="128.45" x2="342.52" y2="128.45" xlink:href="#linear-gradient"/>
    <linearGradient id="linear-gradient137" x1="375.64" y1="87.01" x2="429.04" y2="87.01" xlink:href="#linear-gradient"/>
    <linearGradient id="linear-gradient138" x1="446.56" y1="71.9" x2="496.89" y2="71.9" xlink:href="#linear-gradient"/>
    <linearGradient id="linear-gradient139" x1="512.03" y1="71.12" x2="561.02" y2="71.12" xlink:href="#linear-gradient"/>
    <linearGradient id="linear-gradient140" x1="608.25" y1="95.5" x2="665.68" y2="95.5" xlink:href="#linear-gradient"/>
    <linearGradient id="linear-gradient141" x1="671.09" y1="129.11" x2="728.43" y2="129.11" xlink:href="#linear-gradient"/>
    <linearGradient id="linear-gradient142" x1="724.43" y1="178.77" x2="790.07" y2="178.77" xlink:href="#linear-gradient"/>
    <linearGradient id="linear-gradient143" x1="764.16" y1="236.94" x2="829.45" y2="236.94" xlink:href="#linear-gradient"/>
  </defs>
  <g>
    <rect class="st140" x="716.73" y="715.97" width="277.86" height="15.15"/>
    <polygon class="st37" points="848.24 766.65 716.73 766.65 716.73 751.5 859.98 751.59 848.24 766.65"/>
  </g>
  <g>
    <rect class="st3" x="37.82" y="715.97" width="288.04" height="15.15" transform="translate(363.67 1447.08) rotate(-180)"/>
    <polygon class="st102" points="189.53 766.65 325.85 766.65 325.85 751.5 177.36 751.59 189.53 766.65"/>
  </g>
  <g>
    <path class="st103" d="M337.49,778.68v-1.46c4.04-1.01,5.28-1.35,7.3-3.26,1.01-.9,1.57-1.8,1.91-2.7.56-1.69,1.35-7.3,1.46-12.13v-33.7c-.11-2.58-.22-5.06-.56-7.53-.34-2.36-.56-4.04-.9-5.06-.56-1.8-2.7-4.04-4.38-4.61-.9-.34-2.25-.67-4.04-1.12v-1.46h34.38v1.46c-3.93,1.01-5.17,1.35-7.08,3.03-1.01.79-1.57,1.57-1.91,2.36-.56,1.57-1.35,6.4-1.35,10.56-.11,2.13-.11,5.17-.11,9.21v30.89c0,3.48,1.01,4.72,4.27,4.72h11.68c5.62,0,9.55-.79,11.8-2.25,2.13-1.46,4.61-5.06,7.41-10.9l1.57.45-3.37,11.35c-1.24,3.93-1.8,6.96-1.8,8.87,0,1.46.22,2.47.67,3.26h-56.95Z"/>
    <path class="st103" d="M409.72,778.68v-1.46c3.48-.9,4.49-.9,6.18-2.81.79-1.01,1.35-1.91,1.69-2.92.45-1.8,1.12-7.75,1.24-13.14v-33.03c-.11-2.58-.22-5.05-.45-7.64-.34-2.47-.56-4.16-.79-5.06-.56-1.8-2.58-4.04-4.16-4.49-.79-.22-2.14-.56-3.82-1.01v-1.46h32.69v1.46c-3.48.79-4.61.9-6.29,2.7-.9.9-1.46,1.8-1.8,2.7-.56,1.91-1.24,7.53-1.24,12.81-.11,2.58-.11,6.4-.11,11.35v10.9c0,5.05,0,8.76.11,11.35,0,2.58.11,5.17.45,7.64.22,2.58.45,4.27.67,5.17.45,1.8,2.58,4.04,4.04,4.49.79.22,1.91.56,3.59,1.01v1.46h-32.02Z"/>
    <path class="st103" d="M453.53,778.68v-1.46c3.48-.9,4.61-1.01,6.52-2.92.9-1.01,1.57-1.91,1.91-2.92.67-1.8,1.8-7.86,2.36-13.26.22-2.58.56-6.63,1.12-11.91l.9-9.1c.79-8.87,1.24-15.05,1.24-18.53,0-4.16-.56-6.85-1.8-8.2-1.24-1.24-3.71-2.36-7.53-3.26v-1.46h25.61c-.22,2.92,1.24,7.3,4.38,13.03l15.73,30.78c.45.79.9.79,1.35,0l16.51-30.67c3.26-5.84,4.83-10.22,4.72-13.14h25.16v1.46c-3.71.79-6.18,1.8-7.41,3.03-1.24,1.24-1.8,3.93-1.8,8.09,0,3.48.45,9.88,1.24,19.21l1.12,12.36c.45,4.61.79,7.97,1.01,10.33.22,2.36.56,4.72,1.12,6.96.45,2.36.9,3.93,1.24,4.72,1.57,3.15,3.48,4.72,7.86,5.39v1.46h-31.79v-1.46c3.26-.9,5.39-1.91,6.4-3.15,1.01-1.24,1.46-3.71,1.46-7.64,0-3.26-.34-8.76-.9-16.51l-1.57-20c-.34-1.01-1.01-1.01-1.46-.11l-22.8,44.6h-2.58l-22.58-44.49c-.22-.45-.45-.67-.79-.67s-.56.22-.56.79l-1.46,18.2c-.67,7.98-1.01,14.04-1.01,17.97s.56,6.4,1.57,7.64c1.01,1.35,3.15,2.47,6.63,3.37v1.46h-31.12Z"/>
    <path class="st103" d="M569.34,742.96c0-24.6,13.03-38.42,35.61-38.42s34.15,12.92,34.15,37.07c0,12.25-3.26,21.68-9.77,28.31-6.63,6.63-15.28,9.88-25.95,9.88-21.57,0-34.04-13.14-34.04-36.85ZM623.49,741.83c0-16.96-6.74-25.61-18.98-25.61s-19.55,9.21-19.55,25.95,7.08,25.95,18.87,25.95c12.58,0,19.66-9.32,19.66-26.29Z"/>
  </g>
  <path class="st94" d="M276.61,561.05H37.82v-8.76h229.93c1.17,1.51,5.26,6.59,8.87,8.76Z"/>
  <path class="st100" d="M740.12,558.33h278.38s0-10.9,0-10.9h-268.04c-1.37,1.88-6.13,8.2-10.34,10.9Z"/>
  <g>
    <polygon class="st55" points="415.96 186.02 415.96 186.04 415.95 186.04 415.96 186.02"/>
    <polygon class="st55" points="420.11 186.1 420.11 186.31 420.08 186.23 420.04 186.15 420.11 186.1"/>
    <path class="st123" d="M751.69,449.39l-4.86,12.25c-85.72,15.57-232.94,83.42-261.77,96.96-3.24,1.51-4.98,2.35-4.98,2.35l-146.88.54c1.48-.96,3.07-1.92,4.79-2.89,80.53-45.62,413.69-109.21,413.69-109.21Z"/>
    <path class="st90" d="M651.46,558.6c2.93,1.29,7.2,2.05,13.01,2.17l-124.72.35s.89-.88,2.8-2.52c12.47-10.71,68.33-53.52,201.2-90.1-1.69,1.04-123.94,76.23-92.29,90.1Z"/>
    <polygon class="st52" points="724.9 432.93 497.1 476.18 499.26 469.21 724.18 428.84 724.9 432.93"/>
    <g>
      <path class="st40" d="M485.39,486.5c-6.86,11.57-15.77,16.06-22.96,17.67-8.47,1.89-17.46-.17-24.24-5.6-11.07-8.89-9.71-21.63-9.71-21.63,9.96,25.36,25.05,25.48,34.98,22.01,6.25-2.19,11.58-6.37,15.61-11.62,11.76-15.31,8.78-30.47,5.26-39.2-2.34-5.79-6.33-10.84-11.67-14.08-15.13-9.19-29.57,1.12-29.57,1.12,1.61-6.21,7.62-8.68,12.87-9.63,5.93-1.08,12.11-.35,17.54,2.26,9.41,4.51,14.21,12.93,16.65,20.98,3.81,12.64,1.97,26.36-4.76,37.71Z"/>
      <path class="st17" d="M450.66,459.69l-.73.52-.32-.37c-2.04-2.34-4.2-4.56-6.46-6.63-1.13-1.05-2.29-2.05-3.47-3.01-1.17-.95-2.42-1.92-3.58-2.69l-1.91-1.28,3.15-3.88,1.63,1.61c1.22,1.22,2.24,2.39,3.28,3.64,1.02,1.22,2.01,2.48,2.95,3.76,1.88,2.56,3.61,5.2,5.19,7.92l.25.42Z"/>
      <path class="st53" d="M449.38,464.53l-.48.74-.44-.22c-2.74-1.44-5.56-2.72-8.43-3.83-1.43-.56-2.88-1.07-4.33-1.53-1.43-.46-2.94-.9-4.31-1.21l-2.24-.48,1.52-4.77,2.1.91c1.59.69,2.95,1.41,4.37,2.19,1.41.77,2.78,1.58,4.12,2.42,2.69,1.7,5.27,3.53,7.72,5.49l.39.3Z"/>
      <path class="st76" d="M449.74,467.24l-.09.88h-.48c-3.11.03-6.19.23-9.24.59-1.52.19-3.04.42-4.54.69-1.48.26-3.03.58-4.37.97l-2.19.62-.91-4.91,2.28-.19c1.73-.14,3.28-.15,4.9-.14,1.6.02,3.18.09,4.77.2,3.17.23,6.3.63,9.4,1.2l.48.09Z"/>
      <path class="st135" d="M449.86,470.19l-.44.2c-2.84,1.27-5.59,2.69-8.24,4.24-1.32.78-2.62,1.6-3.88,2.45-1.26.85-2.54,1.75-3.62,2.64l-1.76,1.44-2.8-4.14,2.02-1.08c1.52-.82,2.94-1.45,4.43-2.08,1.48-.63,2.95-1.2,4.45-1.73,3-1.06,6.04-1.95,9.09-2.67l.48-.11.28.84Z"/>
      <path class="st99" d="M452.52,473.17l-.36.33c-2.31,2.07-4.51,4.25-6.56,6.54-1.02,1.15-2.01,2.32-2.96,3.51-.93,1.18-1.87,2.43-2.63,3.61l-1.26,1.92-3.92-3.1,1.6-1.65c1.2-1.23,2.36-2.27,3.58-3.33,1.22-1.04,2.46-2.04,3.72-3,2.53-1.93,5.16-3.69,7.86-5.3l.42-.25.52.71Z"/>
      <path class="st112" d="M453.91,474.05l-.15.46c-1.04,2.92-1.91,5.89-2.61,8.89-.35,1.49-.65,3-.9,4.49-.25,1.49-.48,3.04-.58,4.44l-.18,2.28-4.92-.84.61-2.2c.46-1.66.98-3.13,1.54-4.65.57-1.49,1.17-2.96,1.82-4.42,1.3-2.9,2.75-5.71,4.34-8.42l.25-.42.79.37Z"/>
      <path class="st58" d="M460,494.49l-4.87,1.12-.29-2.28c-.21-1.71-.29-3.26-.34-4.88-.06-1.6-.07-3.18-.01-4.77.09-3.18.35-6.33.78-9.44l.07-.48.88.03.02.5c.17,3.1.51,6.18,1,9.21.25,1.51.55,3.02.88,4.51.34,1.47.73,3,1.16,4.32l.72,2.17Z"/>
      <path class="st115" d="M469.94,490.65l-4.22,2.68-1.02-2.05c-.77-1.54-1.36-2.97-1.95-4.48-.58-1.49-1.12-2.99-1.61-4.49-.97-3.03-1.77-6.09-2.4-9.17l-.1-.48.85-.25.19.45c1.19,2.88,2.52,5.66,4.01,8.35.74,1.34,1.52,2.67,2.34,3.96.8,1.28,1.67,2.59,2.53,3.69l1.39,1.81Z"/>
      <path class="st42" d="M477.33,484.92l-3.11,3.91-1.64-1.6c-1.23-1.21-2.26-2.37-3.32-3.6-1.04-1.22-2.03-2.46-2.99-3.73-1.91-2.53-3.67-5.17-5.27-7.87l-.25-.42.72-.52.33.36c2.06,2.32,4.24,4.52,6.51,6.58,1.15,1.04,2.31,2.03,3.5,2.97,1.18.94,2.43,1.89,3.6,2.66l1.91,1.26Z"/>
      <path class="st75" d="M481.57,474.47l-1.11,4.87-2.17-.73c-1.63-.56-3.06-1.16-4.55-1.81-1.45-.65-2.9-1.33-4.31-2.07-2.77-1.42-5.43-3-8.01-4.7-.06-.03-.1-.07-.15-.1l-.41-.28.42-.77.45.19c.11.04.21.09.32.13,2.77,1.15,5.57,2.14,8.42,2.96,1.47.44,2.95.83,4.44,1.17,1.47.33,3.01.65,4.4.83l2.27.31Z"/>
      <path class="st93" d="M484.31,469.62l-2.29-.08c-1.72-.06-3.26-.23-4.87-.42-1.59-.21-3.16-.45-4.73-.75-3.12-.58-6.19-1.34-9.19-2.26h-.04s-.43-.14-.43-.14l.18-.87.33.03.15.02c3.1.33,6.18.48,9.25.46,1.54,0,3.07-.07,4.59-.17,1.5-.1,3.07-.24,4.45-.46l2.26-.36.33,4.99Z"/>
      <path class="st23" d="M484.08,458.43l-2.17.76c-1.63.56-3.13.97-4.69,1.37-1.55.39-3.11.73-4.67,1.01-3.12.58-6.26.99-9.4,1.22h-.18s-.31.03-.31.03l-.14-.87.13-.03.34-.1c3-.82,5.93-1.78,8.79-2.91,1.43-.56,2.83-1.17,4.22-1.81,1.37-.64,2.78-1.34,3.98-2.05l1.97-1.16,2.13,4.53Z"/>
      <path class="st68" d="M479.27,447.23l-1.69,1.56c-1.27,1.17-2.48,2.14-3.76,3.13-1.27.97-2.57,1.91-3.88,2.8-2.63,1.77-5.34,3.4-8.12,4.87l-.44.22-.47-.74.37-.3c2.42-1.95,4.73-4.01,6.9-6.19,1.09-1.08,2.14-2.2,3.15-3.34.99-1.13,2-2.34,2.83-3.47l1.34-1.84,3.76,3.29Z"/>
      <path class="st47" d="M471.64,439.49l-1.15,1.98c-.87,1.5-1.74,2.79-2.67,4.11-.94,1.3-1.88,2.58-2.89,3.81-1.98,2.48-4.1,4.84-6.32,7.05l-.34.35-.68-.57.28-.4c1.74-2.58,3.34-5.23,4.77-7.95.72-1.36,1.38-2.73,2.02-4.12.62-1.38,1.22-2.82,1.67-4.14l.75-2.17,4.56,2.05Z"/>
      <path class="st60" d="M460.57,434.62l-.09,2.28c-.07,1.73-.24,3.27-.44,4.88-.21,1.59-.46,3.16-.77,4.72-.59,3.12-1.38,6.19-2.3,9.19l-.14.46-.87-.18.06-.48c.34-3.1.52-6.18.51-9.25,0-1.53-.04-3.06-.13-4.58-.1-1.51-.23-3.07-.45-4.46l-.35-2.26,4.99-.31Z"/>
      <path class="st108" d="M453.6,457.7l-.84.26-.19-.45c-1.22-2.86-2.58-5.64-4.09-8.32-.75-1.34-1.54-2.66-2.37-3.93-.82-1.27-1.7-2.57-2.57-3.67l-1.41-1.8,4.2-2.71,1.05,2.04c.78,1.53,1.39,2.96,1.99,4.46.59,1.49,1.13,2.99,1.64,4.49,1,3.01,1.83,6.06,2.48,9.13l.1.48Z"/>
      <path class="st36" d="M463.28,465s0,.1-.01.14c0,.33-.02.65-.08.97-.14,1.13-.55,2.19-1.13,3.1-.19.3-.4.57-.63.83-1.26,1.47-3.06,2.38-5.07,2.38-3.81,0-6.91-3.32-6.91-7.41s3.1-7.41,6.91-7.41c2.8,0,5.21,1.77,6.29,4.34.13.29.23.57.32.88.2.69.31,1.43.31,2.19Z"/>
    </g>
    <g>
      <path class="st28" d="M739.48,413.47l-.25.24-.11-.18c-.71-1.1-1.47-2.15-2.26-3.13-.39-.5-.8-.97-1.2-1.42-.41-.44-.85-.9-1.26-1.27l-.66-.59,1.1-1.84.57.76c.43.58.78,1.13,1.15,1.72.36.57.7,1.17,1.03,1.77.66,1.2,1.27,2.45,1.81,3.73l.09.2Z"/>
      <path class="st82" d="M739.03,415.76l-.17.34-.16-.11c-.95-.67-1.94-1.28-2.94-1.81-.5-.25-1-.5-1.51-.72-.5-.22-1.03-.43-1.51-.57l-.77-.23.52-2.25.73.43c.55.33,1.04.67,1.53,1.04.49.36.97.74,1.44,1.15.93.79,1.83,1.66,2.69,2.59l.14.14Z"/>
      <path class="st70" d="M739.15,417.03l-.03.42h-.17c-1.09.01-2.17.11-3.22.29-.53.09-1.07.2-1.59.32-.51.13-1.06.29-1.53.46l-.76.29-.31-2.31.8-.09c.6-.07,1.14-.08,1.71-.07.55.01,1.12.03,1.66.09,1.11.11,2.21.3,3.29.57l.17.03Z"/>
      <path class="st64" d="M739.19,418.42l-.16.1c-.98.59-1.95,1.27-2.87,2.01-.47.36-.92.75-1.36,1.15-.44.4-.89.83-1.27,1.24l-.62.68-.97-1.95.7-.51c.53-.39,1.03-.68,1.55-.99.51-.29,1.04-.56,1.56-.82,1.04-.5,2.1-.91,3.17-1.26l.17-.04.09.39Z"/>
      <path class="st95" d="M740.12,419.83l-.13.15c-.81.98-1.57,2.02-2.29,3.1-.36.54-.7,1.09-1.04,1.65-.32.56-.65,1.16-.92,1.71l-.43.9-1.37-1.47.55-.77c.42-.58.83-1.08,1.26-1.58.42-.48.85-.96,1.3-1.41.88-.91,1.8-1.74,2.74-2.5l.15-.12.18.33Z"/>
      <path class="st21" d="M740.61,420.25l-.05.22c-.37,1.38-.67,2.78-.91,4.19-.13.71-.23,1.42-.31,2.13-.09.69-.17,1.43-.21,2.09l-.05,1.08-1.73-.4.21-1.05c.17-.78.35-1.48.54-2.18.2-.72.41-1.41.64-2.09.45-1.37.95-2.69,1.51-3.97l.09-.2.27.18Z"/>
      <path class="st16" d="M742.74,429.89l-1.71.53-.09-1.07c-.08-.82-.1-1.54-.13-2.3-.02-.76-.02-1.51,0-2.26.02-1.5.12-2.99.27-4.45l.02-.23.3.02v.23c.07,1.47.19,2.91.37,4.34.08.72.19,1.42.3,2.13.12.69.25,1.41.41,2.04l.25,1.02Z"/>
      <path class="st10" d="M746.2,428.08l-1.48,1.26-.36-.97c-.27-.73-.47-1.4-.68-2.12-.21-.69-.39-1.41-.57-2.12-.33-1.43-.62-2.88-.84-4.33l-.03-.22.29-.12.06.21c.42,1.36.89,2.67,1.4,3.94.26.63.53,1.26.82,1.86.28.59.59,1.22.88,1.74l.49.86Z"/>
      <path class="st33" d="M748.79,425.37l-1.09,1.85-.58-.76c-.43-.57-.78-1.11-1.16-1.7-.36-.57-.7-1.16-1.04-1.76-.67-1.2-1.28-2.43-1.84-3.71l-.08-.2.25-.24.11.18c.71,1.09,1.48,2.13,2.27,3.1.4.48.81.96,1.22,1.41.41.44.85.89,1.26,1.24l.67.59Z"/>
      <path class="st6" d="M750.27,420.44l-.39,2.29-.76-.34c-.57-.26-1.07-.54-1.58-.85-.51-.31-1.02-.63-1.51-.98-.96-.67-1.9-1.41-2.79-2.21-.02-.01-.03-.03-.05-.04l-.15-.13.15-.36.16.09s.07.04.12.06c.96.54,1.95,1,2.93,1.41.51.2,1.04.39,1.55.54.51.17,1.06.31,1.54.4l.8.14Z"/>
      <path class="st26" d="M751.22,418.15l-.8-.03c-.61-.03-1.14-.11-1.71-.2-.55-.1-1.1-.21-1.64-.35-1.09-.28-2.17-.63-3.21-1.07h-.02s-.15-.07-.15-.07l.06-.41h.12s.05.02.05.02c1.08.15,2.17.23,3.23.22.53,0,1.07-.03,1.6-.08.52-.04,1.08-.11,1.55-.22l.8-.17.11,2.35Z"/>
      <path class="st107" d="M751.13,412.88l-.75.36c-.56.26-1.09.45-1.64.64-.53.19-1.08.34-1.62.48-1.1.28-2.19.46-3.29.57h-.17s-.05-.4-.05-.4h.04s.13-.06.13-.06c1.05-.39,2.07-.85,3.07-1.38.5-.26.99-.55,1.48-.86.47-.3.97-.63,1.39-.96l.69-.55.73,2.14Z"/>
      <path class="st7" d="M749.46,407.6l-.59.73c-.44.55-.87,1.01-1.32,1.48-.44.46-.89.9-1.35,1.32-.91.84-1.86,1.61-2.84,2.29l-.15.11-.17-.34.13-.15c.85-.91,1.65-1.88,2.42-2.91.38-.52.74-1.05,1.09-1.59.36-.53.7-1.1.99-1.63l.47-.87,1.31,1.56Z"/>
      <path class="st85" d="M746.79,403.94l-.4.94c-.3.71-.61,1.31-.93,1.94-.32.62-.66,1.21-1,1.8-.69,1.17-1.43,2.28-2.21,3.33l-.12.17-.24-.26.09-.19c.61-1.22,1.16-2.47,1.66-3.76.25-.64.48-1.29.7-1.94.22-.65.43-1.33.59-1.96l.26-1.01,1.59.96Z"/>
      <path class="st142" d="M742.93,401.65l-.03,1.08c-.02.82-.08,1.54-.16,2.29-.07.75-.16,1.5-.26,2.23-.21,1.48-.48,2.92-.81,4.34l-.05.22-.3-.09.02-.23c.12-1.45.18-2.91.18-4.36,0-.73-.02-1.44-.05-2.17-.03-.71-.07-1.44-.15-2.09l-.13-1.07,1.74-.14Z"/>
      <path class="st81" d="M740.5,412.53l-.29.12-.06-.21c-.43-1.36-.9-2.66-1.43-3.92-.26-.64-.53-1.26-.83-1.86-.28-.59-.59-1.21-.89-1.73l-.49-.85,1.47-1.28.37.96c.27.73.48,1.41.69,2.12.21.69.4,1.4.58,2.12.35,1.42.64,2.86.87,4.31l.03.23Z"/>
      <path class="st49" d="M743.87,415.97v.07c0,.15-.01.31-.03.45-.05.54-.19,1.04-.39,1.47-.06.14-.14.28-.22.4-.44.69-1.07,1.12-1.77,1.12-1.08,0-2-1.02-2.31-2.45-.06-.33-.1-.69-.1-1.06,0-1.93,1.09-3.49,2.42-3.49.97,0,1.81.84,2.19,2.05.05.13.08.28.12.41.06.33.1.67.1,1.04Z"/>
    </g>
    <path class="st141" d="M491.17,430.44c-.39-.84-.84-1.7-1.48-2.45-8.26-9.64-16.89-11.53-16.89-11.53-11.51-3.75-25.22.15-35.74,13.53-.02.03-.06.07-.08.11-.74,1.17-13.46,21.59-14.63,38.64,0,0-1.41,14.15-6.35,15.81-.1.03-.19.06-.29.07-3.34.46-62.9,8.48-131.18-.98l-10.1-1.92-10.38-1.98-9.81-1.86s-3.36-.56-7.13-2.42c-.8-.41-1.04-1.45-.48-2.17l4.58-5.99c.59-.78,1.8-.74,2.35.09.79,1.23,2.32,2.89,5.21,4.57.01.01.03.02.04.03.84.48,1.78.97,2.88,1.47h.01s.01.01.02.01c2.79,1.23,6.42,2.42,11.19,3.43,1.75.35,3.65.68,5.72.99,0,0,72.69,10.8,126.26,5.54.1-.01,10.21-1.49,11.83-9.61.66-3.28,10.39-56.5,39.58-61.88.5-.09.99-.18,1.48-.3,1.95-.48,8.53-1.71,16.16,1.11.1.03.2.08.31.12,10.47,4.78,14.48,10.87,16,14.5h0c.73,1.73.88,2.89.9,3.08Z"/>
    <path class="st136" d="M378.04,470.92l-.24,4.26c-.08,1.37-1.2,2.43-2.57,2.43h-42.87s-5.03-.24-2.53-4.56c-.34.31-5.94,5.16-15.48,8.76l-2.64-.12,19.84-12.17c.85-.52,1.83-.79,2.82-.79l41.82.22c1.06.01,1.91.9,1.85,1.97Z"/>
    <path class="st65" d="M476.19,377.65l-5.05,2.16c-89.63-6.49-170.38,9.62-170.38,9.62l-.47-5.05c18.88-5.18,41.68-7.91,64.5-9.18,3.18-.19,6.36-.33,9.53-.46,52.28-2.03,101.86,2.91,101.86,2.91Z"/>
    <path class="st138" d="M285.63,405.41s-8.11,44.34-9.01,48.66h1.08s5.05-30.46,10.09-48.48l-2.16-.18Z"/>
    <path class="st133" d="M691.2,396.14c-.13,1.6-.51,3.16-.99,4.68-.06.18-.25.28-.43.22-.17-.06-.26-.23-.23-.4v-.02c.31-1.5.5-3.02.45-4.54-.04-1.51-.19-3.02-.51-4.51-.3-1.49-.7-2.94-1.21-4.37-.37-1.04-.8-2.09-1.28-3.07-.17-.35-.33-.69-.51-1.01l-.02-.03c-.36-.67-.11-1.5.55-1.86.67-.36,1.5-.11,1.86.56.02.04.04.09.05.13.3.73.54,1.43.76,2.14.28.84.5,1.66.7,2.52.37,1.56.64,3.16.78,4.76.17,1.6.14,3.21.01,4.8Z"/>
    <g>
      <path class="st72" d="M327.5,409.3c-.05.26-.15.69-.27,1.24-6.19.19-38.36-1.52-38.36-1.52-.67,0-1.33-.03-1.99-.05-.64-.02-1.27-.05-1.9-.08-16.33-.76-28.74-4.01-28.74-4.01l.9-2.34c1.71.97,14.25,2.31,28.36,3.54.69.06,1.39.13,2.1.18,16.92,1.46,35.4,2.74,39.89,3.04Z"/>
      <path class="st118" d="M326.36,413.86c-.24.82-.5,1.72-.81,2.7-4.43-.05-23.04-.29-40.25-1.13-.49-.03-.99-.05-1.49-.08-12.71-.65-24.39-1.63-28.65-3.09l.36-3.79s10.15,1.83,28.92,3.37c.56.05,1.11.1,1.68.15,10.81.86,24.31,1.61,40.24,1.88Z"/>
      <path class="st122" d="M323.87,421.43c-.33.87-.67,1.79-1.06,2.71-5.51-.02-23.12-.16-39.24-1.01-.39-.03-.79-.05-1.18-.06-11.97-.66-22.93-1.71-27.23-3.42l.36-4.15s4.97,2.65,27.44,4.42c.42.04.84.06,1.28.09,9.75.74,22.64,1.3,39.63,1.42Z"/>
      <path class="st111" d="M321.1,428.07c-.4.86-.82,1.72-1.27,2.59-4.75.05-21.56.12-37.68-.75-.34-.02-.68-.04-1.02-.05-10.3-.57-20.19-1.55-26.33-3.18l-.03-2.83s10.39,1.08,27.06,2.22c.36.03.73.05,1.09.07,10.62.72,23.69,1.45,38.17,1.93Z"/>
      <path class="st30" d="M317.24,435.35c-.63,1.03-1.28,2.06-1.98,3.07-4.64.08-20.22.26-34.63-.68-.32-.02-.63-.05-.94-.06-10.84-.74-20.87-2.13-24.88-4.69l.72-3.06s8.86,2.33,24.87,3.95c.31.04.64.07.96.1,9.6.94,21.68,1.6,35.88,1.38Z"/>
      <path class="st116" d="M312.35,442.35c-1.07,1.3-2.2,2.57-3.4,3.77-2.59-.06-16.72-.5-29.6-1.46-.31-.02-.63-.04-.94-.06-9.55-.74-18.24-1.76-20.77-3.14l-1.32-2.52s10,1.46,22.68,2.54c.3.03.61.05.92.08,10.46.87,22.61,1.47,32.44.79Z"/>
      <path class="st106" d="M303.94,450.45c-.78.57-1.6,1.12-2.44,1.64h-.05c-4.42-.1-13.91-.43-23.17-1.37-.33-.03-.67-.06-.99-.1-7.4-.78-14.53-1.98-18.69-3.76l.12-2.52s7.4,2.01,19.04,3.74c.31.05.63.09.96.14,7.13,1.04,15.77,1.94,25.23,2.23Z"/>
    </g>
    <path class="st27" d="M590.99,405.43c-.14,1.85-.42,3.71-1.04,5.49-.07.19-.26.29-.45.22-.18-.06-.26-.24-.23-.42h.01c.43-1.74.52-3.54.5-5.32-.02-1.8-.23-3.58-.48-5.37-.26-1.77-.62-3.55-1.02-5.3-.42-1.74-.88-3.51-1.41-5.18v-.02c-.04-.1-.07-.2-.07-.3-.06-.63.33-1.22.95-1.42.72-.23,1.49.17,1.72.89.01.03.02.08.03.12.01.08.03.14.04.22.39,1.77.67,3.51.91,5.28.25,1.84.45,3.68.55,5.53.1,1.86.14,3.71-.01,5.57Z"/>
    <path class="st31" d="M518.35,409.45c-.14,1.86-.41,3.72-1.04,5.5-.07.19-.26.28-.45.21-.17-.06-.26-.24-.22-.41h0c.43-1.74.52-3.55.5-5.33-.02-1.78-.23-3.58-.48-5.35-.25-1.78-.62-3.55-1.02-5.3-.31-1.32-.65-2.64-1.04-3.94-.12-.42-.24-.84-.37-1.24v-.02c-.23-.72.17-1.49.88-1.72.73-.22,1.49.18,1.72.89.01.04.02.09.03.12.13.58.24,1.17.35,1.75.24,1.26.44,2.5.62,3.76.25,1.83.45,3.68.54,5.53.1,1.85.14,3.71-.01,5.56Z"/>
    <path class="st11" d="M731.53,388.78c.04.76-.06,1.5-.11,2.23-.13.73-.21,1.45-.4,2.16-.2.69-.34,1.4-.58,2.08l-.7,2.03c-.04.11-.17.17-.28.13-.1-.04-.17-.14-.14-.25h.01s.43-2.08.43-2.08c.14-.68.2-1.39.3-2.07.09-.69.07-1.39.11-2.07-.04-.67-.04-1.37-.17-2.02-.02-.15-.04-.32-.08-.47-.21-1.13-.65-2.2-1.26-3.06-.18-.22-.35-.43-.54-.63-.22-.22-.46-.42-.72-.58-.23-.18-.48-.3-.74-.42-.12-.06-.28-.11-.41-.15h-.01c-.11-.03-.21-.06-.25-.06-.73-.06-1.28-.68-1.23-1.42.06-.73.69-1.29,1.42-1.23.1.01.19.02.28.04l.1.03c.33.1.5.18.7.28.22.09.4.2.58.31.37.23.73.48,1.04.77.44.39.81.83,1.12,1.3h.01c.15.21.29.43.41.65.77,1.44,1.1,3.02,1.1,4.52Z"/>
    <path class="st91" d="M731.01,386.67c0,.77-.44,1.44-1.09,1.77-.21.1-.44.17-.69.19l-7.95.79c-1.09.11-2.06-.68-2.17-1.77-.01-.07-.01-.13-.01-.2,0-1.01.77-1.87,1.78-1.97l7.25-.73.71-.07c1.09-.1,2.06.69,2.17,1.78.01.07.01.13.01.2Z"/>
    <path class="st139" d="M583.32,394.55c0,3.07-2.39,5.65-5.5,5.83l-3.48.2c-3.22.18-5.96-2.28-6.15-5.49l15.12-.87c.01.11.01.22.01.33Z"/>
    <path class="st43" d="M525.64,379.64c0,3.06-2.39,5.63-5.5,5.81l-1.16.07c-3.21.19-5.96-2.27-6.15-5.49l12.79-.73c.01.11.01.23.01.34Z"/>
    <path class="st89" d="M574.92,372.5c-.04.2-.24.32-.44.28-.17-.03-.28-.18-.28-.34v-.02c-.08-2.6-.1-5.13-.51-7.65-.13-1.26-.42-2.48-.65-3.71l-.46-1.83c-.09-.31-.15-.61-.24-.91l-.3-.89c-.74-2.4-1.67-4.74-2.79-7-1.1-2.26-2.38-4.48-3.77-6.57l-.02-.04c-.21-.31-.12-.71.18-.9.25-.18.58-.14.8.06,2.01,1.86,3.58,4.01,4.91,6.33.33.58.65,1.17.96,1.76l.85,1.83c.47,1.24.98,2.49,1.32,3.79l.29.97c.08.32.14.65.22.98.13.66.3,1.31.4,1.97.15,1.33.37,2.66.35,4,.14,2.67-.23,5.34-.83,7.9Z"/>
    <path class="st18" d="M580.62,372.22c-.06.19-.24.32-.44.26-.17-.03-.29-.18-.29-.34v-.02c-.08-2.6-.09-5.13-.5-7.65-.14-1.26-.43-2.48-.66-3.71l-.46-1.83c-.08-.31-.14-.61-.23-.91l-.3-.89c-.74-2.4-1.69-4.74-2.79-7-1.11-2.26-2.38-4.48-3.77-6.57l-.03-.04c-.2-.3-.12-.71.18-.9.26-.18.59-.14.8.07,2,1.85,3.58,4,4.92,6.32.33.58.65,1.17.95,1.76l.85,1.83c.48,1.24.98,2.49,1.33,3.79l.28.97c.09.32.14.65.22.98.13.66.3,1.31.4,1.97.15,1.33.37,2.66.36,4,.13,2.67-.23,5.34-.83,7.91Z"/>
    <path class="st128" d="M587.27,372.15c-.06.2-.25.32-.45.26-.15-.03-.26-.18-.26-.33v-.02c-.14-2.61-.18-5.13-.58-7.63-.13-1.26-.41-2.48-.63-3.71l-.45-1.83-.23-.91-.28-.9c-.7-2.4-1.58-4.77-2.62-7.08-1.05-2.31-2.21-4.58-3.54-6.83h-.01c-.03-.08-.01-.15.04-.2.06-.02.11-.02.15.01,2.07,1.69,3.75,3.8,5.14,6.06.35.57.68,1.15,1,1.74l.89,1.8c.52,1.23,1.04,2.47,1.4,3.77.21.64.41,1.28.53,1.94.14.66.31,1.31.41,1.97.17,1.33.41,2.66.39,4,.14,2.68-.24,5.35-.9,7.91Z"/>
    <path class="st77" d="M703.63,371.8c-.03.14-.18.23-.31.2-.12-.02-.21-.12-.21-.23v-.02c-.11-1.84-.18-3.65-.52-5.41-.13-.89-.35-1.76-.55-2.63l-.36-1.28c-.07-.22-.12-.43-.19-.65l-.23-.63c-.57-1.69-1.3-3.33-2.14-4.9-.83-1.59-1.78-3.14-2.81-4.58l-.02-.03c-.15-.21-.1-.5.11-.65.18-.12.41-.1.57.03,1.45,1.27,2.62,2.77,3.62,4.38.24.41.48.82.72,1.23l.64,1.28c.36.88.75,1.75,1.02,2.67l.22.68c.07.22.12.46.18.69.11.46.24.91.32,1.39.14.94.33,1.87.34,2.83.17,1.89-.04,3.8-.41,5.63Z"/>
    <path class="st86" d="M707.67,371.47c-.03.14-.17.24-.31.21-.12-.02-.2-.12-.21-.24h0c-.11-1.86-.18-3.66-.52-5.43-.12-.88-.35-1.75-.55-2.62l-.36-1.29c-.07-.21-.12-.43-.19-.64l-.23-.63c-.57-1.69-1.3-3.33-2.14-4.91-.83-1.58-1.78-3.13-2.81-4.58l-.02-.03c-.15-.2-.1-.5.11-.64.18-.13.41-.11.57.02,1.45,1.28,2.62,2.78,3.62,4.4.24.41.48.82.72,1.23l.64,1.27c.36.88.75,1.75,1.02,2.67l.22.68c.07.23.12.46.18.69.11.46.24.93.33,1.39.13.95.32,1.88.34,2.83.15,1.89-.06,3.8-.42,5.63Z"/>
    <path class="st84" d="M334.9,402.4c-.22-.17-.45-.32-.7-.47-1.98-.71-3.9-1.38-5.87-2.07l-32.37-4.74c-.63-.09-1.06-.67-.95-1.3l.02-.18c.09-.51.51-.89,1.01-.94.54-.06.97-.48,1.01-1.02.24-3.1.75-12.92-2.56-14.94-.67-.41-1.54.09-1.64.88l-1.91,15.7c-.06.53-.47.95-1.01.99-3.83.31-18.82,1.59-27.4,3.18-1.23.23-2.32.46-3.24.71,0,0,.44-.62,3.27-1.67,3.61-1.37,11.11-3.45,26.51-5.93.55-.09.96-.56.96-1.12v-2.36c0-.74-.68-1.28-1.4-1.1-4.35,1.09-17.84,4.48-25.92,6.86-1.16.34-2.21.66-3.11.96-.11.02-.2.08-.29.15-1.01.8-6.25,5.83-6.41,24.14v.02c-.03,3.29.1,7.02.45,11.23,0,0,.42,10.55,3.75,17.96,1.54,3.42,3.69,6.17,6.71,6.91,0,0,1.33.62,3.75,1.4h0c6.56,2.16,21.1,5.52,38.25.77,2.32-.72,4.51-1.83,6.43-3.28,1.93-1.44,3.6-3.22,4.95-5.26,5.37-8.13,14.41-22.92,19.96-37.79,0,0,.17-.24.36-.67h0c.55-1.31,1.21-4.27-2.62-7.02ZM330.65,410.33c-.35,1.04-.7,2.03-1.05,3.01,0,0-.01.01-.01.02-3.87,11.58-7.98,19.84-11.9,25.74-.01.02-.02.06-.03.07-9.57,14.41-17.85,14.63-17.85,14.63l.07.06c-9.19,1.61-20.74.58-20.74.58-10.47-1.23-15.6-4.19-18.12-6.69-1.4-1.38-1.99-2.63-2.24-3.38-.17-.47-.19-.75-.19-.75-.22-.66-.43-1.31-.61-1.98h0c-.25-.85-.47-1.7-.66-2.56h-.01c-.4-1.74-.72-3.51-.96-5.29-.18-1.26-.32-2.51-.43-3.77-.09-1.05-.15-2.08-.21-3.12h0c-.04-1.01-.08-1.99-.09-2.97-.02-1.4-.01-2.77.02-4.1.03-1.44.1-2.84.19-4.19.07-1.08.15-2.12.24-3.11.12-1.4.26-2.7.42-3.9.17-1.34.33-2.54.48-3.58.15-.97.3-1.78.41-2.41.04-.24.09-.44.12-.63.1-.54.58-.93,1.15-.9,43,1.16,65.97,6.41,71.21,7.76.64.17,1,.85.78,1.47Z"/>
    <g>
      <path class="st71" d="M380.2,429.56c-.17,3.12-2.62,5.63-5.74,5.86-5.7.41-15.21,1.4-25.39,3.81-.15.03-.31.08-.46.11-3,.77-5.82,2.08-8.33,3.86-6.46,4.15-12.47,10.3-12.75,10.58.57-1.07,1.18-2.08,1.8-3.05,3.53-5.59,7.58-9.78,10.27-12.26.01-.01.02-.03.04-.04.39-.35.74-.67,1.05-.96.15-.12.3-.24.43-.35.51-.4,1.04-.78,1.61-1.12.97-.62,2.04-1.12,3.19-1.45,0,0,16.33-4.97,34.29-4.97Z"/>
      <path class="st51" d="M382.39,412.96c.03,1.58-1.51,2.86-3.44,2.89l-22.62.23c-5.55.06-10.69,2.42-13.59,6.27l-8.2,10.81c5.34-22.77,18.33-21.79,18.33-21.79l26.85-.48h.08c1.41,0,2.56.93,2.59,2.08Z"/>
      <path class="st131" d="M382.01,423.12v.04c0,.94-.75,1.72-1.7,1.74l-28.53.65c-.96.02-1.76-.74-1.78-1.7v-.04c0-.94.75-1.71,1.7-1.73l28.55-.66c.96-.02,1.75.74,1.77,1.7Z"/>
    </g>
    <path class="st20" d="M494.15,426.32s-31.04-55.85-78.57,8.65l-.36-.18s5.19-18.83,22.14-29.89c.43-.29.87-.56,1.32-.84,8.76-5.33,19.06-6.95,28.55-4.8h.02c6.14,1.39,11.93,4.36,16.75,8.95,4.48,4.26,8.36,10.11,10.16,18.11Z"/>
    <path class="st48" d="M723.02,424.66v.03s.02-.01.03-.04h-.03Z"/>
    <path class="st13" d="M759.23,390.14v-.04c-.68-4.21-2.41-8.24-6.27-10.1,0,0-6.68-1.26-19.1-12.61,0,0-15.14-18.92-35.32-23.8,0,0-45.83-7.44-103.09-9.79-.79-.03-1.61-.07-2.42-.09l.19-.02c-52.32-3.93-98.83-2.35-126.13-.63-.2.01-.4.03-.58.03-4.75.31-8.9.62-12.38.89-.11.01-.21.01-.31.02-.13.01-.24.02-.37.04h-.04c-.9.09-1.81.18-2.71.28-1.04.11-2.08.23-3.12.36-1.05.12-2.08.25-3.13.4-1.04.13-2.07.29-3.11.44h-.01c-19.43,2.9-38.14,8.48-50.43,18.7l-26.07,20.98-.02.02-.34.29,9.36-.25s.17-.17.51-.5c4.16-4.07,33.18-31.35,62.61-33.75,1.21-.1,2.4-.18,3.6-.32,11.49-1.32,77-8.51,85.88-1.6l-23.79,38.92s3.59,3.72-52.4,6.13c0,0-78.93,6.78-115.33,18.27-.09.02-.18.06-.26.08l2.89,6.93h0s30.65-15.17,170.86-25.27c0,0,18.74-41.08,31.35-46.49,0,0,12.61-1.81,34.25.35l-29.44,1.32s-7.09-1.2-17.54,15.74l-11.18,20.18c.58.58,1.47.78,2.24.47l.24-.09c2.53-.97,4.55-2.99,5.55-5.53,3.19-8.09,11.7-26,25.13-28.14,0,0,42.29-7.56,151.51,8.3,0,0,.22,0,.62.06.64.09,1.71.31,3.15.84h.01c4.75,1.76,13.33,7.01,22,22.54,0,0-175.61-2.29-196.75,6.13l1.92,3.84s153.81-8.65,210.03-4.57c0,0,2.29.28,3.82,1.31,0,0-147.76-1.31-277.53,13.58l-3,.67-35.83,5.5c-15.93,2.43-29.83,12.38-36.93,26.86-8.81,18.02-9.13,38.16-9.13,38.16l9.71.33c1.98-20.91,4.74-30.69,15.59-44.81,5.75-7.49,17.37-12.48,29.17-15.8,11.53-3.24,23.26-4.88,29.87-5.64h.02c2.41-.3,4.14-.46,4.94-.56,6.32-.62,20.99-2.03,40.86-3.75.52-.04,1.04-.09,1.55-.13.86-.08,1.73-.15,2.61-.22,19.58-1.67,43.69-3.6,69.58-5.37.91-.07,1.83-.12,2.74-.19,31.63-2.14,65.76-4.02,97.47-4.91.46-.02.93-.03,1.39-.04.44-.01.88-.02,1.31-.03,12.71-.33,25-.51,36.55-.46h.01c.77,0,1.54.01,2.31.01.48,0,.96.01,1.43.01h.01c5.54.04,10.9.13,16.03.29,0,0,16.81-.85,10.33,24.57,0,0-5.37-25.05-20.41-13.97-4.29,3.15-8.44,11.85-13.74,28.09-250.63,37.25-213.6,39.41-213.6,39.41-4.85-2.74,26.19-5.29,26.19-5.29l173.5-29.07,14.71-2.97h.03c.02-.07.09-.23.19-.48,1.63-4.07,12.78-31.04,21.78-28.88,0,0,6.49,2.17,9.55,17.12,0,0,.9,11.91-2.35,15.69l.36,2.89s6.67-9.12,6.74-24.69c.01-2.71.04-5.42.2-8.14.01-.17.01-.33.02-.5v-.06c.13-2.24.1-4.89-.33-7.48ZM422.97,406.7c-2.23.76-4.41,1.64-6.46,2.79-2.48,1.41-4.84,3.04-6.97,4.95-2.1,1.95-4.02,4.08-5.78,6.36-1.74,2.29-3.25,4.77-4.62,7.33-2.72,5.12-4.81,10.61-6.37,16.26-.83,2.81-1.51,5.66-2.06,8.56-.58,2.89-1.06,5.79-1.38,8.74-.03-5.93.74-11.84,1.97-17.67.66-2.9,1.47-5.77,2.42-8.6.95-2.83,2.06-5.63,3.44-8.3,1.36-2.68,2.89-5.29,4.66-7.73,1.77-2.46,3.81-4.73,6.06-6.79,2.27-2.03,4.77-3.79,7.45-5.27,2.49-1.32,5.13-2.31,7.83-3.08.37-.1.76.12.86.5.03.14.06.29.06.42,0,.69-.43,1.32-1.11,1.55Z"/>
    <path class="st101" d="M474.27,412.85c-.11-.04-.21-.09-.31-.12v-.02c.11.04.21.09.31.14Z"/>
    <path class="st2" d="M556.49,372.69l-31.04,2.08c.19-2.23.85-3.96,1.71-5.29,1.66-2.61,4.44-4.13,7.36-4.33l17.02-1.11c.57-.04,1.15-.02,1.71.12,4.74,1.27,3.24,8.53,3.24,8.53Z"/>
    <path class="st132" d="M371.47,366.57c-1.75-.56-4.31,2.77-4.31,2.77-.09.12-.18.25-.26.36-.57.76-1.15,1.2-1.7,1.44-.04.01-.08.03-.11.04-.3.09-.62.14-.95.14-1.66,0-3.02-1.3-3.12-2.93h0c-.01-.07-.01-.13-.01-.2,0-1.01.48-1.91,1.23-2.48.37-.29.77-.53,1.13-.83,1.08-.86,2.4-1.41,3.81-1.59,4.97-.61,4.27,3.26,4.27,3.26Z"/>
    <g>
      <path class="st125" d="M604.27,175.44l-90.52-1.05-10.33-.12-82.37-.96c27.91-10.84,58.26-16.79,90.01-16.79,27.49,0,53.94,4.46,78.66,12.7.15.06.31.1.46.17,9.17,3.36,14.09,6.05,14.09,6.05Z"/>
      <path class="st50" d="M506.96,182.65l-3.71,7.92h-117.87c4.95-2.8,10-5.44,15.16-7.92h106.42Z"/>
      <path class="st97" d="M636.74,190.57h-122.31l-3.84-7.92h111.55c3.35,1.66,6.64,3.42,9.89,5.22,1.58.89,3.15,1.78,4.72,2.7Z"/>
      <path class="st79" d="M498.84,199.95l-4.24,9.01h-136.3c4.1-3.13,8.3-6.14,12.58-9.01h127.96Z"/>
      <polygon class="st4" points="561.11 199.95 561.11 208.96 523.35 208.96 518.98 199.95 561.11 199.95"/>
      <path class="st19" d="M663.8,208.96h-95.28v-9.01h82.97c2.56,1.75,5.08,3.56,7.57,5.41,1.6,1.18,3.17,2.37,4.74,3.6Z"/>
      <path class="st14" d="M494.57,226.27h-156.2c3.21-3.11,6.48-6.1,9.85-9.01h146.32l.03,9.01Z"/>
      <polygon class="st87" points="560.3 217.26 555.49 226.27 523.49 226.27 523.49 217.26 560.3 217.26"/>
      <path class="st24" d="M683.21,225.76v.51h-109.74l-4.44-9.01h104.86c3.17,2.74,6.28,5.59,9.32,8.51Z"/>
      <path class="st127" d="M494.64,244.09h-173.02c2.69-3.07,5.43-6.07,8.26-9.01h164.73l.03,9.01Z"/>
      <polygon class="st105" points="550.78 235.08 548.46 239.46 548.46 244.09 523.49 244.09 523.49 235.08 550.78 235.08"/>
      <path class="st114" d="M700.46,244.09h-120.02v-3.67l-2.63-5.34h114.61c1.21,1.29,2.41,2.59,3.59,3.9,1.51,1.69,3.01,3.39,4.45,5.11Z"/>
      <path class="st121" d="M435.82,253.11v9.01h-128.16c2.18-3.05,4.43-6.06,6.75-9.01h121.41Z"/>
      <polygon class="st129" points="494.71 262.12 467.24 262.12 467.24 253.98 458.89 253.98 458.89 253.11 494.67 253.11 494.71 262.12"/>
      <rect class="st92" x="523.49" y="253.11" width="24.96" height="9.01"/>
      <path class="st124" d="M714.45,262.12h-134.01v-9.01h127.35c1.51,1.94,2.99,3.91,4.44,5.91.75,1.02,1.49,2.07,2.23,3.11Z"/>
      <path class="st73" d="M435.93,270.05v9.01h-139.21c1.82-3.05,3.7-6.06,5.65-9.01h133.56Z"/>
      <polygon class="st67" points="494.77 279.06 467.24 279.06 467.24 270.05 494.74 270.05 494.77 279.06"/>
      <rect class="st61" x="523.49" y="270.05" width="24.96" height="9.01"/>
      <path class="st96" d="M725.38,279.06h-144.94v-9.01h139.37c1.66,2.57,3.28,5.16,4.86,7.8.23.4.48.79.72,1.21Z"/>
      <path class="st137" d="M372.87,288.13v9.01h-85.82c1.48-3.04,3.02-6.04,4.64-9.01h81.18Z"/>
      <rect class="st98" x="408.71" y="288.13" width="27.22" height="9.01"/>
      <polygon class="st109" points="494.83 297.14 467.24 297.14 467.24 288.13 494.81 288.13 494.83 297.14"/>
      <rect class="st83" x="523.49" y="288.13" width="24.96" height="9.01"/>
      <path class="st44" d="M735.06,297.14h-154.61v-9.01h150.03c.85,1.58,1.69,3.16,2.48,4.76.73,1.41,1.42,2.82,2.1,4.25Z"/>
      <path class="st104" d="M372.87,306.51v9.01h-93.8c1.19-3.03,2.43-6.04,3.73-9.01h90.06Z"/>
      <rect class="st119" x="408.71" y="306.51" width="27.22" height="9.01"/>
      <polygon class="st56" points="494.92 306.51 494.92 315.52 487.2 315.52 487.2 307.07 467.24 307.07 467.24 306.51 494.92 306.51"/>
      <rect class="st57" x="523.49" y="306.51" width="24.96" height="8.73"/>
      <rect class="st74" x="580.44" y="306.51" width="33.02" height="9.01"/>
      <path class="st8" d="M743.03,315.52h-90.79v-9.01h87.11c.98,2.28,1.94,4.58,2.85,6.9.28.71.55,1.41.83,2.12Z"/>
      <path class="st69" d="M321.6,324.05v9.01h-51.11v-1.82c.75-2.41,1.53-4.81,2.36-7.19h48.75Z"/>
      <rect class="st39" x="362.88" y="324.05" width="9.99" height="9.01"/>
      <rect class="st145" x="652.24" y="324.05" width="18.05" height="2.3"/>
      <path class="st88" d="M746.4,333.06h-44.81v-9.01h41.93c.14.42.29.85.43,1.28l.17.5c.17.48.32.97.48,1.45.62,1.92,1.23,3.83,1.8,5.78Z"/>
      <polygon class="st25" points="566.79 212.53 566.79 212.73 566.76 212.65 566.73 212.57 566.79 212.53"/>
      <path class="st32" d="M744.12,325.32v.5l-.06,7.24v.02l-42.66.06.19-17.34h-31.31v10.55h-18.05v-29.94h-38.78v20.41h-33.02v-76.39l-2.63-5.34-4.34-8.81-4.44-9.01-.51-1.01v-4.88l3.57-2.4-1.26-1.98-2.31-3.64v-4.02c0-1.02-.42-1.95-1.09-2.61-.48-.48-1.09-.83-1.77-.99-.23-.1-.48-.15-.76-.15h-.14c-.24,0-.47.04-.68.13-.02,0-.04.01-.07.01-1.65.37-2.9,1.85-2.9,3.61v16.42l-.8,1.52-4.81,9.01-4.7,8.81-2.32,4.37v75.78h-24.96v-8.73s.02-9.36.02-9.36v-9.01s.02-9.07.02-9.07v-9.01s.02-7.93.02-7.93v-9.01s.03-18.02.03-18.02v-17.83s.02-7.76.02-7.76l-.26-.54-4.37-9.01-4.55-9.38-3.84-7.92-1.84-3.79-1.78,3.79-3.71,7.92-4.41,9.38-4.24,9.01-.08.18.02,8.12.03,9.01.03,8.81.07,18.02.03,9.01.03,7.93.03,9.01.03,9.07.02,9.01.04,9.36.03,9.01v2.89s-7.75.13-7.75.13v-11.45l-28.12-.02v-63.11h-23.11v72.18h-27.22v-36.77h-35.84v61.27h-9.99v-24.95h-41.28v37.2h-40.38v23.6l-9.47-.1c.02-.66.4-33.02.4-33.02h38.11v-10.31s-.01-17.54-.01-17.54v-8.96s52.08.17,52.08.17v-34.83h54.1l-.02,7.16v9.07s-.03,9.01-.03,9.01l-.02,9.14,12.5-.24.02-8.9.02-9.01.02-9.07v-9.01s.03-7.93.03-7.93l.03-9.01v-9.01s.03-7.24.03-7.24h39.78v59.12h16.82v-87.15l4.57-8.88,4.83-9.38,4.08-7.92,4.33-8.38,5.21-10.12.23.12,4.89,10.11h0s4,8.27,4,8.27l3.83,7.92,4.54,9.38,4.29,8.88v97.68h9.88v-74.75l2.25-5.49,3.7-9.01,3.39-8.3,3.7-9.01.96-9.38v-.1c.35-3.38,3.28-5.88,6.68-5.7l7.17.41c3,.15,5.48,2.41,5.92,5.39l1.42,9.38,1.36,9.01.2,1.34,3.1,6.95,4.02,9.01,3.92,8.81,1.55,3.47v67.95h15.66v-17.25h57.17v18.05h50.03v18.02h31.64Z"/>
      <polygon class="st66" points="561.11 207.19 561.11 212.27 560.15 212.16 559.43 208.96 559.31 208.41 561.11 207.19"/>
      <polygon class="st130" points="562.86 212.45 562.86 212.48 562.85 212.48 562.86 212.45"/>
      <polygon class="st34" points="566.79 212.53 566.79 212.65 566.76 212.65 566.73 212.57 566.79 212.53"/>
      <polygon class="st126" points="574.31 207.25 574.12 208.96 573.77 212.38 568.52 212.59 568.52 206.8 570.83 206.98 574.31 207.25"/>
      <polygon class="st38" points="566.79 212.53 566.79 212.73 566.76 212.65 566.73 212.57 566.79 212.53"/>
    </g>
    <path class="st35" d="M453.43,334.04c-.91.09-1.83.18-2.75.28-1.04.11-2.08.23-3.12.36-1.05.12-2.08.25-3.13.4-1.04.14-2.08.3-3.12.45h0s.01-.01.01-.01l.26-.4s4.21-.46,11.8-1.08h.04Z"/>
    <path class="st5" d="M507.66,125.86c-152.49,0-276.11,119.47-276.11,266.83,0,62.71,22.39,120.36,59.86,165.91.19.24.39.47.58.72h21.78c-.22-.24-.44-.47-.65-.72-18.77-20.4-33.83-43.43-44.85-68.61-1.49-3.39-2.89-6.81-4.21-10.26-.82-2.08-1.59-4.18-2.32-6.28-.04-.14-.09-.24-.12-.32.02.09.06.2.1.31h-.01c-1-.36-1.96-.86-2.88-1.47-.01-.01-.03-.02-.04-.03-10.4-7.01-15.43-28.56-15.43-28.56-4.81-31.78,1.56-44.1,4.62-47.98,0-.9-.01-1.81-.01-2.71,0-33.75,6.83-66.48,20.32-97.28,13.04-29.81,31.74-56.59,55.55-79.6,23.85-23.05,51.64-41.16,82.57-53.81,32.06-13.1,66.14-19.74,101.27-19.74s69.21,6.64,101.27,19.74c30.94,12.65,58.72,30.76,82.57,53.81,23.81,23,42.49,49.79,55.55,79.6,13.49,30.8,20.32,63.54,20.32,97.28s-6.83,66.48-20.32,97.29c-4.15,9.47-8.87,18.64-14.13,27.48-8.75,14.66-19,28.41-30.73,41.14-.21.24-.43.47-.65.72h21.79c.2-.24.4-.47.58-.72,37.47-45.54,59.86-103.2,59.86-165.91,0-147.36-123.62-266.83-276.11-266.83Z"/>
    <path class="st110" d="M201.06,315.02c-1.38.68-2.77,1.41-3.97,2.36-2.53,2.02-4.92,4.25-7.44,6.31-.5.39-1.26.68-1.89.64-2.26-.1-4.5-.36-7.04-.6.97-.88,1.73-1.57,2.63-2.38-.61-.64-.98-1.03-1.38-1.46-.78.75-1.59,1.37-2.16,2.14-1.02,1.33-2.31,1.49-3.84,1.28-2.02-.27-4.06-.42-6.33-.65.91-.85,1.64-1.54,2.45-2.31-.48-.58-.81-.96-1.23-1.47-1.19,1.14-2.34,2.23-3.51,3.32-.07.08-.16.16-.24.24-4.19-.39-8.34-.76-12.54-1.15-.82-.06-1.66-.14-2.48-.22-.66.66-1.27,1.26-2.1,2.1,2.94,1.02,5.86,2.04,8.78,3.06,4.87,1.71,9.75,3.4,14.64,5.09,2.09.74,4.2,1.47,6.33,2.21-1.07,1.1-2.14,2.17-3.2,3.26l-.12.13c-2.26,2.3-4.52,4.62-6.91,7.05-.51.5-1,1.01-1.5,1.52-1.84-.15-3.99-.34-6.27-.55-1.25-.11-2.54-.22-3.84-.34-.79.77-1.58,1.55-2.56,2.51,1.73.62,3.27,1.16,4.8,1.71.59.19,1.17.39,1.76.58,1.12.36,2.25.74,3.3,1.25.78.37,1.28,1.34,1.89,2.05l.23,1.77c.85,2.56,1.61,4.86,2.46,7.38.91-.87,1.72-1.64,2.4-2.29l-.39-10.89c2.29-2.04,4.65-4.15,7.09-6.33,1.64-1.46,3.33-2.96,5.05-4.5,3.24,10.02,6.44,19.84,9.68,29.86.79-.74,1.49-1.38,2.23-2.04-.38-5-.74-9.94-1.12-14.96,1.15-1.15,2.32-2.32,3.62-3.62-.38-.4-.74-.79-1.12-1.22-.84.77-1.58,1.46-2.58,2.39-.25-3.08-.47-5.83-.71-8.68,1.19-1.18,2.38-2.37,3.66-3.65-.37-.4-.69-.78-1.09-1.23-.85.77-1.63,1.48-2.73,2.49-.18-2.88-.38-5.43-.46-7.98-.01-.4.48-.85.82-1.22,2.28-2.6,4.63-5.15,6.86-7.79.81-.97,1.47-2.14,1.98-3.3.21-.5.1-1.39-.23-1.8-.26-.31-1.22-.33-1.67-.11Z"/>
    <path class="st134" d="M811.63,395.62c1.38.68,2.77,1.41,3.97,2.36,2.53,2.02,4.92,4.25,7.44,6.31.5.39,1.26.68,1.89.64,2.26-.1,4.5-.36,7.04-.6-.97-.88-1.73-1.57-2.63-2.38.61-.64.98-1.03,1.38-1.46.78.75,1.59,1.37,2.16,2.14,1.02,1.33,2.31,1.49,3.84,1.28,2.02-.27,4.06-.42,6.33-.65-.91-.85-1.64-1.54-2.45-2.31.48-.58.81-.96,1.23-1.47,1.19,1.14,2.34,2.23,3.51,3.32.07.08.16.16.24.24,4.19-.39,8.34-.76,12.54-1.15.82-.06,1.66-.14,2.48-.22.66.66,1.27,1.26,2.1,2.1-2.94,1.02-5.86,2.04-8.78,3.06-4.87,1.71-9.75,3.4-14.64,5.09-2.09.74-4.2,1.47-6.33,2.21,1.07,1.1,2.14,2.17,3.2,3.26l.12.13c2.26,2.3,4.52,4.62,6.91,7.05.51.5,1,1.01,1.5,1.52,1.84-.15,3.99-.34,6.27-.55,1.25-.11,2.54-.22,3.84-.34.79.77,1.58,1.55,2.56,2.51-1.73.62-3.27,1.16-4.8,1.71-.59.19-1.17.39-1.76.58-1.12.36-2.25.74-3.3,1.25-.78.37-1.28,1.34-1.89,2.05l-.23,1.77c-.85,2.56-1.61,4.86-2.46,7.38-.91-.87-1.72-1.64-2.4-2.29l.39-10.89c-2.29-2.04-4.65-4.15-7.09-6.33-1.64-1.46-3.33-2.96-5.05-4.5-3.24,10.02-6.44,19.84-9.68,29.86-.79-.74-1.49-1.38-2.23-2.04.38-5,.74-9.94,1.12-14.96-1.15-1.15-2.32-2.32-3.62-3.62.38-.4.74-.79,1.12-1.22.84.77,1.58,1.46,2.58,2.39.25-3.08.47-5.83.71-8.68-1.19-1.18-2.38-2.37-3.66-3.65.37-.4.69-.78,1.09-1.23.85.77,1.63,1.48,2.73,2.49.18-2.88.38-5.43.46-7.98.01-.4-.48-.85-.82-1.22-2.28-2.6-4.63-5.15-6.86-7.79-.81-.97-1.47-2.14-1.98-3.3-.21-.5-.1-1.39.23-1.8.26-.31,1.22-.33,1.67-.11Z"/>
    <polygon class="st55" points="562.86 212.45 562.86 212.48 562.85 212.48 562.86 212.45"/>
    <polygon class="st55" points="566.79 212.53 566.79 212.73 566.76 212.65 566.73 212.57 566.79 212.53"/>
  </g>
  <path class="st54" d="M400.4,679.89s.08.16.22.45c.79,1.6,3.57,6.98,6.01,9.28"/>
  <path class="st54" d="M964.01,679.89c2.45-2.3,5.22-7.68,6.01-9.28.14-.29.22-.45.22-.45"/>
  <path class="st103" d="M664.22,777.69c-1.54-.5-3.17-.78-4.82-.81-1.65-.05-3.21.61-4.13,1.76l-.91-.68c.72-1.46,1.07-3.02,1.04-4.6-.17-3.43-.59-6.85-1.26-10.24l-2.17-12.16,1.26-.55c1.3,5.36,4.78,10.17,9.86,13.63,3.94,2.31,8.7,3.46,13.51,3.26,8,0,12.03-2.63,12.03-8.25,0-13.63-33.67-8.22-33.67-32.93,0-12.95,8.91-21.01,23.9-21.01,3.44.05,6.86.41,10.2,1.08,2.3.55,5.26.81,6.77-.95l.91.55c-.74,1.41-1.1,2.93-1.04,4.46.11,2.8.41,5.58.91,8.35l1.73,10.66-1.51.42c-.85-3.83-3.13-7.33-6.52-10.01-3.18-2.1-7.17-3.16-11.21-2.97-7.12,0-10.65,2.63-10.65,8.11,0,7.56,12,9.98,21.73,14.58,7.66,3.87,12.19,10.92,11.81,18.38,0,13.37-8.94,21.46-25.2,21.46-4.27.06-8.53-.46-12.6-1.55Z"/>
  <path class="st22" d="M920.5,681.46c-1.81-4.43-3.12-9.54-3.94-14.97-.82-5.42-2.3-10.85-4.77-16.28-2.47-5.26-5.59-8.71-9.7-10.36,11.01-4.44,16.44-13.48,16.44-27.14,0-17.93-9.7-28.94-29.43-28.94h-31.08v1.81c2.96,1.47,4.93,3.12,5.92,4.93.99,1.97,1.65,5.59,2.13,10.69.34,5.11.5,14.48.5,28.12v14.97c0,8.88,0,15.45-.16,19.74-.16,4.27-.34,8.21-.5,11.67-1.31,10.52-2.96,9.87-8.39,13.16v1.81h33.39v-1.81c-3.46-1.47-4.44-2.63-5.93-4.77-.81-.99-1.15-2.8-1.31-5.43-.32-5.09-.66-10.02-.66-23.02v-6.25c0-2.13.34-2.63,2.15-2.63h2.3c3.46,0,6.42,2.15,8.55,6.42,2.13,4.28,3.46,9.05,4.11,14.31.5,5.27,1.49,10.2,2.8,14.97,1.32,4.77,2.97,7.56,5.1,8.23h20.06v-1.81c-3.12-.32-5.75-2.8-7.56-7.4ZM887.29,632.79h-1.65c-1.81,0-2.63-.82-2.63-2.47v-31.57c0-1.81.99-2.63,2.8-2.63h1.49c8.39,0,13.98,6.42,13.98,17.59,0,12.34-5.93,19.09-13.98,19.09Z"/>
  <path class="st120" d="M37.82,691.08v-2.41c6.23-3,8.21-2.8,10.63-13.39,1.13-7.01,1.83-14.4,3.11-31.8l.97-13.04c.86-12.17,1.28-21.16,1.28-26.97.35-3.98-.28-7.99-1.83-11.68-2.18-2.51-5.12-4.26-8.37-4.98v-2.41h29.31c.31,6.26,1.9,12.4,4.67,18.02l17.05,41.84c.58,1.4,1.13,1.4,1.56,0l17.9-41.8c2.84-5.62,4.56-11.74,5.06-18.02h28.88v2.41c-3.16.61-6.04,2.22-8.21,4.59-1.58,3.51-2.21,7.38-1.83,11.21,0,5.8.43,15.57,1.28,29.19l1.25,16.81c.86,12.61,1.71,21.21,2.41,25.81.3,3.46,1.36,6.81,3.11,9.81,1.76,2.21,4.22,3.76,6.97,4.4v2.41h-36.39v-2.41c6.93-2.37,8.49-4.98,8.49-16.39,0-5.02-.27-12.81-.82-23.35l-1.56-25.61c0-.78-.31-1.17-.74-1.17s-.54.39-.7.97l-24.91,61.22h-3.11l-24.48-61.22c-.43-.58-.7-.78-.82-.78s-.74.39-.74,1.21l-1.4,22.77c-.7,12.84-.97,21.64-.97,26.23,0,11.01,1.4,13.58,8.76,16.19v2.41l-35.81-.08Z"/>
  <path class="st41" d="M160.11,691.08v-2.41c6.66-2.37,8.33-5.18,9.19-15.57.43-5.18.58-14.6.58-28.18v-15.84c0-13,0-21.99-.58-26.97-.08-3.62-.94-7.18-2.53-10.43-1.8-2.17-4.15-3.83-6.81-4.79v-2.41h36.78v2.41c-6.93,2.41-8.49,5.22-9.46,14.99-.43,5.02-.7,14.01-.7,27.01v18.02c0,16.19.27,22.22.82,29-.03,2.49.5,4.95,1.56,7.2,1.56,2.71,4.09,4.71,7.08,5.6v2.41l-35.93-.04Z"/>
  <path class="st29" d="M203.82,691.08v-2.41c3.32-.93,6.13-3.16,7.78-6.19,2.43-7.22,4.13-14.67,5.1-22.22l8.06-45.81c1.16-5.74,1.97-11.55,2.41-17.4,0-5.6-2.26-7.78-10.63-10.2v-2.41h60.02v2.41c-3.52.99-5.79,4.39-5.37,8.02.52,6.45,1.47,12.86,2.84,19.19l7.78,45.23c1.14,7.6,2.94,15.09,5.37,22.38,1.82,3.29,4.81,5.79,8.37,7.01v2.41h-36.39v-2.41c6.66-2.61,7.78-4.59,7.78-8.8-.2-6.09-1.1-12.14-2.69-18.02-.43-2.57-1.83-3.89-3.89-3.89h-23.7c-1.99,0-3.27,1.21-3.89,3.89-1.44,5.9-2.25,11.95-2.41,18.02,0,4.2,1.28,6.19,7.78,8.8v2.41h-34.33ZM257.61,642.07c1.83,0,2.69-1.21,2.69-3.43-.09-2.14-.33-4.27-.7-6.38l-3.89-25.22c-.74-4.2-2.14-5.41-5.53-5.41h-3.27c-3.23,0-4.4,1.4-5.37,5.6l-3.89,26.43c-.4,1.7-.65,3.43-.74,5.18,0,2.22,1.01,3.23,2.84,3.23h17.87Z"/>
  <path class="st144" d="M298.63,691.08v-2.41c6.23-3,8.21-2.8,10.63-13.39,1.13-7.01,1.83-14.4,3.11-31.8l1.01-13.04c.8-12.17,1.22-21.16,1.25-26.97.37-3.98-.26-8-1.83-11.68-2.18-2.51-5.12-4.26-8.37-4.98v-2.41h29.31c.31,6.26,1.9,12.4,4.67,18.02l17.01,41.84c.58,1.4,1.13,1.4,1.56,0l18.14-41.8c2.85-5.62,4.58-11.74,5.1-18.02h28.84v2.41c-3.15.6-6.02,2.21-8.17,4.59-1.6,3.51-2.24,7.37-1.87,11.21,0,5.8.43,15.57,1.28,29.19l1.28,16.81c.86,12.61,1.67,21.21,2.37,25.81.32,3.46,1.4,6.81,3.15,9.81,1.74,2.22,4.18,3.77,6.93,4.4v2.41h-36.55v-2.41c6.93-2.37,8.49-4.98,8.49-16.39,0-5.02-.31-12.81-.86-23.35l-1.56-25.61c0-.78-.27-1.17-.7-1.17s-.58.39-.7.97l-24.91,61.22h-3.11l-24.48-61.22c-.43-.58-.74-.78-.86-.78s-.7.39-.7,1.21l-1.44,22.77c-.7,12.84-.97,21.64-.97,26.23,0,11.01,1.4,13.58,8.76,16.19v2.41l-35.81-.08Z"/>
  <path class="st78" d="M420.93,691.08v-2.41c6.66-2.37,8.37-5.18,9.19-15.57.43-5.18.58-14.6.58-28.18v-15.84c0-13,0-21.99-.58-26.97-.06-3.62-.92-7.19-2.53-10.43-1.8-2.17-4.15-3.83-6.81-4.79v-2.41h36.82v2.41c-6.97,2.41-8.49,5.22-9.5,14.99-.43,5.02-.7,14.01-.7,27.01v18.02c0,16.19.27,22.22.86,29-.06,2.49.47,4.96,1.56,7.2,1.55,2.7,4.07,4.7,7.04,5.6v2.41l-35.93-.04Z"/>
  <path class="st15" d="M502.04,623.71c0-33.08,0-36.44-9.81-36.44v-3.76c4.3.13,11.13.27,18.08.27s13.34-.13,17.75-.27v3.76c-9.37,0-9.48,3.36-9.48,36.44v44.37c0,3.23.77,4.3,3.64,4.3h15.1c3.64,0,6.17-.94,8.16-3.23,1.32-1.61,2.2-4.97,2.65-9.01h2.98c-.44,12.1-.66,21.11-.77,28.77-6.94-.13-18.85-.27-29.32-.27-12.34,0-23.15.13-28.44.27v-3.9c9.59,0,9.48-3.23,9.48-38.72v-22.59Z"/>
  <path class="st9" d="M560.23,625.02c0-34.16.12-37.49-9.91-37.49v-4.03c5.73.14,11.94.28,19.47.28,6.81,0,12.9-.14,19.23-.28v4.03c-10.39,0-10.39,3.33-10.39,37.49v19.72c0,10.14,2.03,16.39,5.73,21.39,3.58,4.58,9.08,7.36,15.89,7.36,5.26,0,10.75-2.64,14.57-7.5,3.7-4.72,5.61-10.69,5.61-21.25v-19.72c0-34.16,0-37.63-10.99-37.63v-3.89c7.17.14,13.74.28,19.47.28,7.88,0,13.98-.14,18.4-.28v3.89c-9.32,0-9.32,3.47-9.32,37.63v18.89c0,20.41-4.54,30.55-11.35,38.33-5.02,5.55-14.45,11.66-26.64,11.66-14.1,0-25.2-5.83-32.01-16.66-5.49-8.19-7.76-17.36-7.76-32.22v-20Z"/>
  <path class="st12" d="M689.75,636.83l-8.5-16.13c-15.63-28.37-17.12-32.27-24.36-32.27v-3.9c2.41.13,9.08.27,17.24.27,7.59,0,14.94-.13,20.23-.27v3.9c-10.92,0-7.7,4.84-1.95,15.87,2.76,5.11,5.4,10.62,7.7,15.33h.11c2.53-4.84,5.52-10.62,8.16-15.6,5.63-11.03,7.7-15.6-1.38-15.6v-3.9c6.09.13,13.33.27,20.34.27s11.03-.13,13.56-.27v3.9c-7.36,0-8.73,3.9-24.14,32.4l-7.36,14.25,7.93,15.06c17.24,31.87,18.73,35.9,25.86,35.9v3.9c-2.99-.13-10-.27-18.16-.27-7.59,0-14.71.13-20.23.27v-3.9c11.15,0,9.08-4.3,1.49-19.36-2.64-4.98-5.29-10.22-7.24-14.39h-.23c-2.07,4.3-4.71,9.28-7.24,14.12-7.7,14.66-9.54,19.63.34,19.63v3.9c-5.86-.13-13.22-.27-20.11-.27s-13.33.13-16.66.27v-3.9c7.36,0,9.54-4.44,27.58-36.17l7.01-13.04Z"/>
  <path class="st45" d="M758.6,626.05c0-33.08.12-36.3-9.98-36.3v-3.9c5.77.13,12.02.27,19.59.27,6.85,0,12.98-.13,19.35-.27v3.9c-10.46,0-10.46,3.23-10.46,36.3v19.09c0,9.82,2.04,15.87,5.77,20.71,3.61,4.44,9.13,7.13,15.98,7.13,5.29,0,10.82-2.55,14.66-7.26,3.73-4.57,5.65-10.35,5.65-20.57v-19.09c0-33.08,0-36.44-11.06-36.44v-3.76c7.21.13,13.82.27,19.59.27,7.93,0,14.06-.13,18.51-.27v3.76c-9.37,0-9.37,3.36-9.37,36.44v18.29c0,19.77-4.57,29.58-11.42,37.11-5.05,5.38-14.54,11.29-26.8,11.29-14.18,0-25.36-5.65-32.21-16.13-5.53-7.93-7.81-16.81-7.81-31.19v-19.36Z"/>
  <path class="st143" d="M982.43,645.89v8.87c0,27.16-.12,30.25,11.18,30.25v3.9c-5.05-.13-12.03-.27-19.96-.27s-15.75.13-20.44.27v-3.9c11.06,0,11.06-3.09,11.06-30.25v-6.99l-9.5-19.9c-18.04-37.11-18.88-40.47-26.7-40.47v-3.9c3.73.13,9.02.27,15.75.27,7.82,0,15.75-.13,23.21-.27v3.9c-11.42,0-9.5,3.5-1.08,21.78,3.37,7.26,6.61,14.66,7.94,18.29h.24c1.56-3.63,4.93-10.76,8.3-17.61,8.9-19.23,10.58-22.45.6-22.45v-3.9c7.1.13,12.51.27,19.84.27s11.67-.13,15.63-.27v3.9c-6.61,0-7.7,2.82-26.82,39.93l-9.26,18.56Z"/>
  <g>
    <path class="st0" d="M237.55,264.08c-12.68-16.42-24.36-34-34.92-52.58,2.07-.09,4.14-.16,6.2-.21-7.32,11.47-14.12,23.55-20.34,36.24-.66-2.79-1.3-5.59-1.91-8.41,4.69,2.42,9.37,4.83,14.06,7.25-1.9,3.7-3.74,7.45-5.53,11.26-6-2.82-12-5.65-18.01-8.47,8.52-18.11,18.16-35.05,28.78-50.81,2.08,1.42,4.16,2.85,6.24,4.27,9.47,17.75,19.95,34.64,31.35,50.54-2.03,3.58-4,7.22-5.92,10.93Z"/>
    <path class="st59" d="M282.32,200.44c-3.25,3.63-6.54,6.38-9.98,8.23-3.43,1.85-6.85,2.77-10.29,2.71-3.44-.06-6.66-1.2-9.65-3.5-2.94-2.27-4.8-5.01-5.51-8.26-.71-3.25-.34-6.88,1.17-10.82,1.5-3.94,4.13-8.08,7.89-12.28,3.72-4.15,7.5-7.16,11.22-9.07,3.73-1.91,7.26-2.62,10.54-2.2,3.28.42,6.16,2,8.67,4.66,2.59,2.75,4.06,5.85,4.5,9.25.44,3.41-.08,6.89-1.52,10.49-1.45,3.6-3.79,7.16-7.05,10.79ZM260.4,180.55c-3.32,3.71-6.58,6.56-9.87,8.53-3.28,1.97-6.47,3.02-9.59,3.1-3.12.08-6.02-.88-8.67-2.95-2.78-2.18-4.51-4.89-5.11-8.16-.6-3.27-.18-6.92,1.3-10.9,1.49-3.98,3.96-7.96,7.44-11.84,3.52-3.93,7.19-6.81,10.92-8.66,3.73-1.85,7.26-2.61,10.53-2.33,3.28.28,6.13,1.74,8.57,4.3,2.33,2.44,3.6,5.21,3.88,8.31.28,3.1-.39,6.36-1.97,9.82-1.59,3.47-4.07,7.03-7.43,10.78ZM275.8,194.53c2.77-3.09,4.35-6.08,4.73-9.09.38-3-.47-5.57-2.61-7.69-2.14-2.12-4.71-2.91-7.72-2.29-3,.62-6.02,2.56-8.97,5.85-2.94,3.29-4.56,6.53-4.87,9.61-.31,3.08.73,5.58,3.05,7.5,2.32,1.93,4.95,2.5,7.88,1.81,2.93-.7,5.74-2.6,8.51-5.7ZM255.17,175.81c2.64-2.95,4.18-5.69,4.6-8.34.42-2.64-.3-4.89-2.21-6.76-1.95-1.91-4.3-2.56-7.04-1.89-2.74.67-5.47,2.46-8.11,5.41-2.64,2.95-4.13,5.86-4.48,8.65-.35,2.79.55,5.06,2.63,6.82,2.04,1.72,4.35,2.21,6.91,1.51,2.56-.69,5.11-2.5,7.7-5.4Z"/>
    <path class="st113" d="M332.39,155.93c-4.14,2.91-8.33,4.59-12.7,5.03-4.37.44-8.75-.41-13.18-2.6-4.43-2.19-8.77-5.73-12.93-10.73-4.49-5.4-7.27-10.8-8.19-16.28-.91-5.47-.15-10.77,2.33-15.8,2.48-5.02,6.48-9.5,11.95-13.25,2.73-1.87,5.6-3.39,8.58-4.56,2.98-1.16,5.79-1.79,8.43-1.91.18,3.26.39,6.52.64,9.76-2.12.04-4.19.47-6.17,1.28-1.99.82-3.98,1.91-5.96,3.26-5.12,3.51-8.11,7.88-8.93,12.89-.82,5.02.97,10.24,5.2,15.7.71.92,1.55,1.92,2.51,3.02.96,1.09,2.04,2.09,3.26,2.99-1.71-.26-3.43-.5-5.16-.73-.64-2.53-.69-5.01-.16-7.44.53-2.42,1.62-4.76,3.27-6.98,1.65-2.22,3.75-4.23,6.29-6,3.44-2.39,6.98-3.81,10.56-4.26,3.58-.45,6.91.04,9.98,1.43,3.07,1.39,5.57,3.75,7.56,7.03,2.05,3.38,3.02,6.84,2.99,10.36-.02,3.53-.93,6.79-2.68,9.84-1.76,3.05-4.23,5.66-7.45,7.93ZM326.87,148.95c1.81-1.28,3.21-2.74,4.18-4.42.98-1.68,1.43-3.42,1.34-5.24-.09-1.82-.69-3.6-1.84-5.36-1.71-2.62-3.99-4.15-6.87-4.5-2.87-.35-5.9.55-8.99,2.73-2.03,1.43-3.54,3.08-4.5,4.91-.96,1.83-1.39,3.69-1.28,5.58.11,1.89.79,3.63,2.02,5.25,1.13,1.48,2.55,2.55,4.24,3.23,1.69.68,3.54.85,5.56.52,2.01-.33,4.05-1.24,6.13-2.71Z"/>
    <path class="st62" d="M409.21,117.22c-2.55.85-5.11,1.41-7.72,1.68-2.61.27-5.06.18-7.37-.29.16-3.15.37-6.3.6-9.45,1.86.42,3.72.52,5.59.32,1.87-.2,3.78-.63,5.74-1.29,5.05-1.69,8.56-4.58,10.67-8.85,2.1-4.26,2.3-9.7.45-16.35-.31-1.12-.71-2.36-1.18-3.73-.48-1.37-1.08-2.71-1.82-4.01,1.48.88,2.95,1.78,4.41,2.68-.34,2.55-1.19,4.83-2.52,6.86-1.34,2.03-3.06,3.77-5.17,5.25-2.11,1.48-4.56,2.67-7.37,3.59-3.68,1.2-7.22,1.61-10.7,1.2-3.48-.4-6.6-1.54-9.37-3.45-2.77-1.91-4.9-4.62-6.34-8.17-1.5-3.71-1.86-7.32-.97-10.84.88-3.52,2.78-6.68,5.71-9.43,2.93-2.75,6.6-4.86,10.95-6.27,5.75-1.85,11.06-2.19,15.81-1.1,4.75,1.09,8.74,3.6,11.95,7.43,3.21,3.84,5.53,8.94,7.06,15.24,1.66,6.82,1.85,12.85.72,18.09-1.13,5.25-3.32,9.58-6.57,13.09-3.25,3.51-7.4,6.06-12.54,7.79ZM402.78,84.54c2.33-.75,4.26-1.81,5.79-3.2,1.53-1.4,2.59-3,3.17-4.82.58-1.82.61-3.68.07-5.58-.53-1.84-1.49-3.36-2.92-4.55-1.43-1.19-3.22-1.96-5.39-2.28-2.16-.32-4.65-.05-7.42.84-2.36.76-4.32,1.85-5.86,3.27-1.54,1.41-2.53,3.03-2.99,4.82-.46,1.8-.31,3.7.43,5.71,1.08,2.94,3,4.91,5.72,5.96,2.72,1.05,5.83.98,9.39-.16Z"/>
    <path class="st46" d="M474.98,103c-4.53.47-8.53.24-12.06-.74-3.53-.99-6.47-2.65-8.83-5.05-2.36-2.39-3.91-5.42-4.59-9.13-.67-3.65-.29-6.9,1.19-9.74,1.48-2.84,3.95-5.21,7.42-7.05,3.46-1.84,7.85-3.09,13.09-3.63,5.18-.54,9.73-.23,13.56.86,3.84,1.09,6.79,2.91,8.87,5.41,2.08,2.5,3.14,5.58,3.26,9.23.12,3.77-.77,7.05-2.59,9.88-1.82,2.83-4.37,5.06-7.64,6.76-3.27,1.7-7.14,2.74-11.67,3.21ZM471.83,73.62c-4.63.48-8.67.36-12.18-.44-3.51-.8-6.37-2.21-8.59-4.28-2.22-2.07-3.66-4.75-4.24-8.06-.61-3.48-.17-6.62,1.41-9.4,1.57-2.78,4.1-5.14,7.58-7.03,3.48-1.89,7.66-3.12,12.51-3.62,4.9-.51,9.29-.17,13.09.96,3.8,1.13,6.78,2.92,8.93,5.32,2.15,2.4,3.27,5.37,3.41,8.9.13,3.36-.7,6.27-2.44,8.76-1.74,2.49-4.25,4.46-7.53,5.96-3.29,1.5-7.25,2.46-11.94,2.95ZM474.04,94.28c3.86-.4,6.83-1.55,8.97-3.51,2.14-1.96,3.14-4.43,2.94-7.44-.2-3-1.53-5.31-4.04-6.86-2.51-1.55-5.86-2.15-9.96-1.73-4.1.43-7.24,1.7-9.34,3.73-2.1,2.04-2.91,4.56-2.46,7.54.44,2.98,1.93,5.19,4.41,6.67,2.48,1.48,5.62,1.99,9.48,1.59ZM471.08,66.62c3.68-.38,6.47-1.37,8.41-3.04,1.94-1.66,2.83-3.81,2.64-6.47-.19-2.71-1.45-4.77-3.81-6.12-2.35-1.35-5.4-1.86-9.08-1.48-3.68.38-6.52,1.51-8.48,3.3-1.96,1.8-2.72,4.06-2.34,6.76.38,2.64,1.69,4.56,3.91,5.79,2.22,1.23,5.12,1.63,8.74,1.26Z"/>
    <path class="st1" d="M532.48,102.35c-3.81-.31-7.51-1.15-11.17-2.53-3.65-1.38-6.74-3.2-9.28-5.49,1.52-2.9,3.08-5.8,4.68-8.68,2.04,1.86,4.52,3.4,7.45,4.65,2.93,1.25,5.93,2,9.06,2.26,3.72.3,6.72-.22,9.08-1.63,2.35-1.4,3.72-3.5,4.07-6.32.34-2.76-.41-5.07-2.29-6.91-1.88-1.84-5.12-2.99-9.69-3.36-1.83-.15-3.65-.28-5.48-.39.17-2.57.34-5.15.51-7.72,6.3-6.51,12.94-12.84,19.92-18.98.39,1.5.77,3.01,1.14,4.51-11.47-1.37-22.99-2.19-34.53-2.46.08-3.19.16-6.37.23-9.56,15,.36,29.97,1.61,44.84,3.77-.37,2.49-.74,4.99-1.11,7.48-7.13,5.91-13.92,12.02-20.37,18.31-1.86-1.31-3.74-2.6-5.65-3.88,1.17.09,2.34.19,3.51.29,7.5.65,12.94,3.03,16.18,6.82,3.24,3.81,4.38,8.32,3.57,13.47-.53,3.38-1.85,6.39-3.88,9.05-2.04,2.66-4.78,4.63-8.22,5.97-3.44,1.33-7.6,1.75-12.56,1.35Z"/>
    <path class="st63" d="M624.58,124.41c-4.25-1.75-7.68-3.85-10.33-6.4-2.65-2.55-4.44-5.4-5.37-8.62-.93-3.22-.83-6.61.36-10.19,1.17-3.52,3.08-6.2,5.76-7.99,2.68-1.79,6.01-2.7,9.97-2.67,3.96.03,8.44,1.02,13.36,3.05,4.86,2,8.75,4.46,11.63,7.26,2.88,2.8,4.63,5.83,5.28,9.02.64,3.2.09,6.42-1.57,9.68-1.72,3.36-4.1,5.81-7.09,7.41-3,1.6-6.34,2.33-10.07,2.25-3.73-.09-7.68-1.02-11.93-2.78ZM636.01,97.11c-4.34-1.79-7.86-3.82-10.58-6.19-2.72-2.36-4.57-4.96-5.53-7.84-.96-2.87-.94-5.9.15-9.09,1.14-3.35,3.06-5.89,5.79-7.59,2.74-1.69,6.11-2.58,10.11-2.58,3.99,0,8.3.91,12.84,2.78,4.6,1.9,8.33,4.3,11.16,7.11,2.83,2.82,4.61,5.83,5.37,8.97.76,3.14.31,6.3-1.28,9.46-1.51,3.01-3.66,5.16-6.41,6.5-2.75,1.34-5.94,1.86-9.59,1.6-3.65-.26-7.64-1.32-12.03-3.14ZM627.97,116.3c3.62,1.49,6.82,1.91,9.67,1.22,2.85-.69,4.93-2.38,6.21-5.11,1.28-2.73,1.21-5.39-.27-7.97-1.48-2.57-4.16-4.7-8.01-6.29-3.85-1.59-7.24-1.96-10.09-1.17-2.85.79-4.78,2.62-5.83,5.45-1.05,2.83-.81,5.48.68,7.96,1.48,2.48,4.02,4.43,7.64,5.92ZM638.73,90.61c3.45,1.42,6.41,1.89,8.94,1.36,2.53-.53,4.36-1.98,5.48-4.41,1.14-2.48,1.02-4.88-.42-7.2-1.44-2.32-3.89-4.22-7.35-5.65-3.45-1.42-6.51-1.79-9.12-1.14-2.61.65-4.38,2.27-5.34,4.82-.94,2.5-.71,4.81.66,6.95,1.37,2.14,3.75,3.87,7.14,5.27Z"/>
    <path class="st117" d="M681.12,155.23c-3.71-2.59-6.38-5.81-8.09-9.79-1.71-3.98-2.29-8.49-1.73-13.6.56-5.11,2.46-10.56,5.85-16.32,3.38-5.76,7.25-10.08,11.71-12.86,4.46-2.78,9.15-4.09,14.03-3.88,4.88.22,9.63,1.89,14.11,5.01,4.43,3.08,7.64,6.96,9.57,11.48,1.93,4.53,2.36,9.41,1.32,14.58-1.04,5.17-3.74,10.31-7.98,15.47-4.24,5.16-8.72,8.82-13.35,11.09-4.64,2.27-9.11,3.26-13.46,3.01-4.35-.24-8.31-1.63-11.97-4.18ZM686.75,147.16c2.19,1.53,4.53,2.26,7.08,2.21,2.54-.05,5.24-.98,8.1-2.82,2.86-1.84,5.8-4.68,8.76-8.55,2.96-3.88,4.92-7.46,5.83-10.78.91-3.31.91-6.27-.01-8.86-.92-2.58-2.64-4.76-5.13-6.5-2.49-1.74-5.14-2.59-7.9-2.58-2.76.02-5.55,1.03-8.36,3.03-2.81,1.99-5.51,5.07-8.12,9.18-2.62,4.12-4.25,7.85-4.98,11.18-.72,3.33-.65,6.19.2,8.6.85,2.41,2.36,4.35,4.55,5.88Z"/>
    <path class="st80" d="M731.85,200.06c-3.52-3.91-5.78-7.96-6.81-12.32-1.03-4.35-.77-8.85.83-13.55,1.6-4.7,4.56-9.46,8.99-14.22,4.78-5.14,9.79-8.57,15.12-10.14,5.33-1.56,10.71-1.42,16.08.52,5.36,1.94,10.41,5.51,14.97,10.7,2.28,2.6,4.23,5.39,5.85,8.34,1.61,2.95,2.68,5.8,3.19,8.52-3.27.49-6.52,1.02-9.76,1.59-.36-2.19-1.1-4.27-2.22-6.23-1.12-1.96-2.51-3.89-4.16-5.78-4.27-4.87-9.07-7.42-14.2-7.7-5.14-.28-10.11,2.13-14.98,7.02-.82.82-1.71,1.78-2.67,2.87-.96,1.09-1.81,2.3-2.54,3.62.02-1.75.03-3.51.03-5.28,2.44-.93,4.91-1.28,7.4-1.01,2.49.26,4.98,1.1,7.43,2.53,2.46,1.43,4.77,3.34,6.91,5.75,2.9,3.26,4.85,6.75,5.83,10.39.98,3.64.99,7.13.06,10.44-.93,3.31-2.94,6.13-5.95,8.5-3.1,2.44-6.45,3.77-10.01,4.07-3.56.31-7-.31-10.33-1.82-3.33-1.51-6.33-3.77-9.06-6.81ZM738.07,193.7c1.54,1.71,3.22,2.98,5.05,3.81,1.83.83,3.65,1.11,5.47.84,1.82-.27,3.53-1.07,5.12-2.42,2.39-2.02,3.58-4.52,3.52-7.5-.06-2.98-1.41-5.98-4.05-8.9-1.73-1.92-3.59-3.26-5.56-4.04-1.97-.78-3.89-1-5.76-.68-1.87.32-3.53,1.21-4.97,2.63-1.32,1.31-2.2,2.86-2.65,4.64-.45,1.79-.36,3.67.25,5.68.61,2,1.8,3.97,3.58,5.94Z"/>
    <path class="st146" d="M769.62,252.42c-2.57-4.48-4.24-8.64-4.99-12.61-.75-3.97-.6-7.58.49-10.89,1.1-3.31,3.16-6.06,6.25-8.22,3.05-2.12,6.21-3.05,9.52-2.69,3.31.35,6.65,1.88,9.98,4.66,3.33,2.77,6.54,6.74,9.5,11.92,2.93,5.13,4.79,9.99,5.59,14.44.8,4.45.51,8.31-.81,11.5-1.33,3.19-3.67,5.54-6.97,7.09-3.41,1.6-6.85,1.93-10.3,1.1-3.46-.83-6.71-2.66-9.8-5.42-3.1-2.77-5.88-6.39-8.45-10.88ZM795.18,237.6c-2.63-4.58-4.41-8.74-5.32-12.61-.92-3.86-.96-7.3-.1-10.36.86-3.05,2.65-5.55,5.43-7.45,2.91-2,6.01-2.8,9.32-2.33,3.3.47,6.66,2.07,10.04,4.84,3.37,2.77,6.48,6.56,9.22,11.35,2.78,4.85,4.53,9.55,5.27,13.97.74,4.42.49,8.28-.7,11.5-1.19,3.23-3.41,5.58-6.6,7.11-3.03,1.45-6.1,1.7-9.2.84-3.1-.87-6.1-2.76-9.02-5.61-2.93-2.86-5.67-6.61-8.33-11.25ZM777.21,248.02c2.19,3.82,4.64,6.46,7.45,7.93,2.81,1.47,5.55,1.55,8.23.16,2.67-1.39,4.17-3.69,4.42-6.93.25-3.24-.77-6.95-3.1-11.01-2.33-4.06-4.97-6.75-7.83-8.08-2.86-1.33-5.56-1.14-8.1.49-2.54,1.63-3.87,4.01-4.07,7.11-.2,3.11.81,6.51,3,10.33ZM801.27,234.07c2.08,3.64,4.31,6.15,6.75,7.52,2.44,1.37,4.84,1.46,7.2.22,2.41-1.27,3.7-3.39,3.84-6.38.14-2.99-.82-6.35-2.91-9.99-2.08-3.64-4.45-6.1-7.03-7.38-2.58-1.28-5.02-1.16-7.32.3-2.25,1.43-3.4,3.52-3.49,6.27-.09,2.75.9,5.87,2.96,9.45Z"/>
  </g>
</svg>