<?xml version="1.0" encoding="UTF-8"?>
<svg id="Layer_1" xmlns="http://www.w3.org/2000/svg" version="1.1" viewBox="0 0 35 35">
  <!-- Generator: Adobe Illustrator 29.8.2, SVG Export Plug-In . SVG Version: 2.1.1 Build 3)  -->
  <defs>
    <style>
      .st0 {
        fill: #fff;
      }
    </style>
  </defs>
  <path class="st0" d="M20.27,31.96c-.1-.13-.15-.26-.17-.42-.05-.46-.06-1.64,0-2.09.01-.11.16-.42.26-.42h2.97v-5.26H3.38c-.43,0-.45-.74-.11-.74h19.97l.08-.08v-5.18h-3.82s-.19-.12-.21-.18l-1.09-7.46-.07-.11c-.23.02-.53.03-.58-.25-.06-.3-.04-1.76,0-2.09.02-.17.2-.31.36-.31h6.42v-.79c-2.09-.41-1.73-3.51.37-3.51s2.46,3.1.37,3.51v.79h6.53c.12,0,.3.18.37.28v2.15c-.15.26-.31.23-.59.23l-.08.09-1.04,7.33c0,.11-.22.33-.3.33h-3.82v5.26h5.57c.13,0,.17.21.25.28v.11c-.07.17-.23.34-.42.34h-5.4v5.26h2.91c.09,0,.24.31.26.42.05.45.05,1.7,0,2.15-.02.16-.08.24-.17.37h-8.88ZM24.5,3.8c-1.29.22-1.04,2.35.48,2.07,1.18-.22,1-2.32-.48-2.07ZM31.24,8.08h-12.93l-.08.08v1.07l.08.08h12.93v-1.24ZM22.25,17.02v-6.93l-.08-.08h-3.17l.93,7.01h2.32ZM26.49,10.01h-3.48l-.08.08v6.93h3.56v-7.01ZM30.57,10.01h-3.34v7.01h2.38l.96-7.01ZM25.42,17.76h-1.41v11.26h1.41v-11.26ZM28.59,29.75h-7.75v1.53h7.75v-1.53Z"/>
  <path class="st0" d="M8.05,9.1c-1.31-.89-2.64-1.79-3.92-2.73-.36-.26-1.34-.75-1.03-1.23s1.24-1.24,1.81-1.24l6.72,1.9c1.04-.91,2.24-2.85,3.79-2.76.72.04,1.25.68,1.22,1.39-.06,1.56-1.9,2.54-2.72,3.68l1.87,6.56c.06.46-.14.82-.42,1.16-.26.32-1.03,1.23-1.38.65l-3.42-4.83-1.64,1.47c.08.89.97,1.73.29,2.6-.1.12-.81.85-.9.91-.28.16-.42,0-.6-.2-.61-.72-1.23-1.99-1.87-2.6-.74-.7-1.97-1.23-2.72-1.98-.15-.2-.14-.25,0-.45.11-.16.78-.82.93-.93.8-.58,1.71.23,2.54.39l1.45-1.75ZM14.33,15.78c.08.05.55-.45.61-.55.13-.21.15-.37.12-.61-.47-2.03-1.36-4.11-1.79-6.13-.09-.41-.15-.56.12-.92.66-.86,2.78-2.21,2.51-3.41-.03-.13-.19-.31-.32-.35-1.21-.37-2.61,1.9-3.45,2.55-.12.1-.26.19-.43.2l-6.69-1.91c-.45-.05-.75.36-1.03.65l.08.14,4.7,3.34c.25.25.24.33.05.62-.32.49-1.28,1.63-1.72,2.01-.57.5-1.53-.23-2.16-.39-.17-.04-.25-.08-.42.01-.07.04-.58.56-.53.62l2.38,1.67,1.78,2.46c.14-.19.64-.53.65-.76,0-.38-.61-1.36-.66-1.83-.02-.21.11-.44.24-.58.35-.38,1.59-1.48,2.01-1.72.13-.08.25-.12.41-.08l3.55,4.97Z"/>
</svg>