<?xml version="1.0" encoding="UTF-8"?>
<svg id="Layer_1" xmlns="http://www.w3.org/2000/svg" version="1.1" viewBox="0 0 35 35">
  <!-- Generator: Adobe Illustrator 29.8.2, SVG Export Plug-In . SVG Version: 2.1.1 Build 3)  -->
  <defs>
    <style>
      .st0 {
        fill: #fff;
      }
    </style>
  </defs>
  <path class="st0" d="M24.96,14.79h1.78c1.14,0,2.53,1.16,2.53,2.34v1.03c.88.16,3-.5,3.18.79.2,1.45-.13,3.3,0,4.8-.08.52-.71.75-.75.94v5.86c-.18.69-.76,1.15-1.46,1.22h-14.17c-.67-.06-.95-.38-1.37-.81l-11.92-.06-.22-.16-.03-18.63.32-.24,6.31-2.21.04-6.23.22-.22h9.09s.2.16.2.19v3.81l.09.09h5.93s.22.2.22.22v7.27ZM17.97,3.99h-7.99v26.14h2v-4.65c0-.06.22-.28.28-.28h2.28v-.64c-.26-.2-.63-.49-.68-.83v-4.91c.22-1.03,1.96-.58,2.71-.67.09-.01.16,0,.22-.1v-1.19s.14-.43.18-.51c.2-.49.57-.89,1.01-1.17V3.99ZM24.21,8.11h-5.49v6.74l5.49-.06v-6.68ZM9.17,10.54l-5.87,2v17.6h5.87V10.54ZM28.45,18.16v-1.03c0-.69-.91-1.5-1.6-1.52-2.45.15-5.19-.23-7.6,0-1.3.12-1.87,1.24-1.71,2.46.05.16.52.15.62,0v-1c0-.27.63-.9.97-.84h7.86c.88.27.96,1.14.91,1.93h.56ZM19.25,16.97c-.35,0-.47.97-.25,1.19h5.12l.09-.09v-1l-.09-.09h-4.87ZM25.05,16.97l-.09.09v1l.09.09h1.93c.21-.22.12-1.19-.25-1.19h-1.68ZM31.63,18.97H14.66v4.65c.65.58,1.66.84,2.5,1.06,1.51.4,4.52,1.07,6.02,1.08.72,0,1.97-.26,2.73-.38,1.5-.25,3.83-.64,5.17-1.32.12-.06.56-.31.56-.44v-4.65ZM30.95,25.02c-.64.14-1.28.38-1.92.54-1.57.39-3.76.83-5.36.95-1.32.09-3.5-.36-4.84-.63-1.18-.24-2.34-.54-3.48-.92v5.4c0,.19.48.63.72.59l14.32-.03c.26-.07.56-.43.56-.69v-5.21ZM14.54,26.02h-1.75v4.12h1.75v-4.12Z"/>
  <path class="st0" d="M14.83,8.62c.23-.05,1.17-.04,1.42-.01.28.03.37.13.41.41.03.22.03,1.32-.03,1.47-.01.03-.15.17-.18.19-.16.09-1.26.09-1.5.06-.28-.03-.37-.13-.41-.41s-.04-1.43.1-1.59c.05-.06.12-.1.2-.11ZM15.85,9.42h-.5v.5h.5v-.5Z"/>
  <path class="st0" d="M14.83,15.17c.19-.04,1.29-.05,1.48-.01.09.02.24.14.29.21.09.16.09,1.26.06,1.5-.01.12-.03.23-.13.31-.16.14-1.26.12-1.53.1-.3-.03-.43-.08-.47-.41-.03-.26-.04-1.43.1-1.59.05-.06.12-.1.2-.11ZM15.85,15.97h-.5v.5h.5v-.5Z"/>
  <path class="st0" d="M11.52,8.62c.15-.04,1.52-.03,1.64.02.14.06.23.28.25.43.04.33.08,1.42-.22,1.6-.15.09-1.27.09-1.5.06s-.38-.1-.41-.34-.04-1.27,0-1.5c.02-.11.13-.24.23-.27ZM12.6,9.42h-.56v.5h.56v-.5Z"/>
  <path class="st0" d="M11.59,15.17c.2-.04,1.28-.05,1.48-.01s.32.27.35.47c.04.33.08,1.42-.22,1.6-.14.08-1.34.09-1.57.06-.21-.03-.32-.13-.34-.34-.03-.24-.04-1.28,0-1.5.03-.14.16-.24.29-.27ZM12.6,15.97h-.56v.5h.56v-.5Z"/>
  <path class="st0" d="M14.89,5.31c.21-.05,1.13-.04,1.36,0,.26.04.38.22.41.46.05.39.14,1.59-.34,1.66-.2.03-1.46.02-1.59-.04-.12-.05-.18-.19-.19-.31-.03-.24-.04-1.22,0-1.44.03-.15.21-.3.35-.33ZM15.85,6.11h-.5v.56h.5v-.56Z"/>
  <path class="st0" d="M14.77,11.93c.17-.05,1.34-.04,1.55-.02.24.03.32.18.34.41.04.31.06,1.42-.16,1.59-.27.22-1.9.29-1.97-.28-.03-.23-.02-1.43.06-1.57.03-.05.12-.12.17-.14ZM15.85,12.66h-.5v.56h.5v-.56Z"/>
  <path class="st0" d="M11.52,18.48c.18-.05,1.26-.04,1.49-.01.32.04.37.17.4.47s.06,1.33-.15,1.53c-.18.18-1.09.14-1.38.12-.34-.02-.55-.02-.59-.41-.03-.24-.03-1.42.06-1.56.03-.05.12-.12.17-.14ZM12.6,19.22c-.14.02-.46-.05-.53.06l-.03.5h.56s0-.56,0-.56Z"/>
  <path class="st0" d="M11.65,5.32c.29-.05,1.46-.07,1.64.14.17.19.14,1.09.12,1.38-.02.34-.02.55-.41.59-.22.03-1.39.03-1.53-.03-.04-.02-.11-.08-.13-.12-.09-.15-.09-1.39-.05-1.62s.14-.29.35-.33ZM12.6,6.11h-.56s.03.5.03.5c.08.11.4.04.53.06v-.56Z"/>
  <path class="st0" d="M11.37,13.9c-.14-.14-.11-1.63,0-1.9.12-.12,1.76-.12,1.89-.02.23.17.22,1.76,0,1.94s-1.69.18-1.89-.02ZM12.6,12.66l-.53.06c-.04.11-.07.41.03.48l.5.03v-.56Z"/>
  <path class="st0" d="M22.76,22.79c1.79-.36,2.37,1.88.83,2.39-1.08.36-2.23-.71-1.63-1.76.13-.24.54-.57.81-.63ZM23.07,23.53c-.25.03-.48.26-.49.52.16.38.61.54.94.26.41-.35-.02-.83-.46-.77Z"/>
</svg>