<?xml version="1.0" encoding="UTF-8"?>
<svg id="Layer_1" xmlns="http://www.w3.org/2000/svg" version="1.1" viewBox="0 0 35 35">
  <!-- Generator: Adobe Illustrator 29.8.2, SVG Export Plug-In . SVG Version: 2.1.1 Build 3)  -->
  <defs>
    <style>
      .st0 {
        fill: #fff;
      }
    </style>
  </defs>
  <path class="st0" d="M19.35,11.7c-1.14-3.44,1.06-7.13,4.36-8.29,5.47-1.93,10.99,3.43,8.72,8.92-1.28,3.1-3.89,5.91-6.07,8.42-.21.15-.53.15-.74-.03l-1.9-2.16-2.39-3.12v4.57c.87.22,1.42.04,1.34,1.12-.09,1.35-.72,3.27-1.29,4.51l-1.09,1.97c.18-.04.31-.17.5-.24.74-.27,1.29-.18,1.93.23.38.24,1.01.69,1.05,1.14.08.9-.06,1.92,0,2.83-.07.29-.32.42-.6.43H3.01c-.4-.04-.57-.15-.61-.55-.06-.64-.07-2.15,0-2.77.04-.38.8-.93,1.13-1.13.59-.36,1.25-.45,1.9-.16.1.05.46.34.52.29-1.06-1.6-1.83-3.39-2.22-5.28-.09-.42-.39-1.74-.09-2.03.2-.19.93-.31,1.22-.36v-5.09h-2.42c-.21,0-.34-.36-.36-.54-.04-.48-.06-1.8,0-2.25.02-.14.22-.42.35-.42h16.91ZM25.65,4.05c-3.06.2-5.76,2.93-5.59,6.07.12,2.22,2.9,5.87,4.32,7.6.2.24,1.56,1.87,1.7,1.84,1.87-2.25,4.1-4.69,5.31-7.39,1.82-4.07-1.39-8.4-5.74-8.12ZM20.38,13.89l-.61-1.16H3.11v1.16h17.26ZM20.31,14.92H5.88v4.77l7.18-1.94,7.25,1.94v-4.77ZM12.58,27.61v-8.7l-7.99,2.29c.28,2.22,1.12,4.41,2.45,6.19.39-.04.69-.19,1.13-.16.66.04,1.05.59,1.68.52.31-.03.57-.3.88-.41.65-.21,1.3-.13,1.85.28ZM13.61,18.92v8.7c.55-.41,1.21-.48,1.85-.28.35.11.58.39.95.41.56.03.93-.46,1.56-.51.46-.04.77.1,1.18.16,1.33-1.79,2.18-3.97,2.45-6.19l-7.99-2.29ZM22.76,30.96v-2.03c-.3-.22-.68-.64-1.06-.68-.57-.05-.94.46-1.55.52-.99.1-1.37-.54-2-.52-.45.01-.76.43-1.24.5-1,.16-1.06-.21-1.78-.44-.61-.19-.65.05-1.11.25-.58.26-1.12.29-1.72.06-.52-.2-.62-.54-1.29-.29-.73.27-.82.59-1.79.41-.46-.08-.74-.48-1.19-.49-.63-.02-1,.61-2,.52-.61-.06-.96-.56-1.55-.52-.42.03-.74.45-1.06.68v2.03h19.33Z"/>
  <path class="st0" d="M25.45,5.73c3.77-.43,6.25,3.72,4.03,6.8-1.93,2.69-6.15,2.17-7.43-.87-1.08-2.57.61-5.62,3.39-5.93ZM25.58,6.76c-4.08.47-3.55,6.91.81,6.48,4.15-.41,3.65-6.99-.81-6.48Z"/>
</svg>