<?xml version="1.0" encoding="UTF-8"?>
<svg id="Layer_1" xmlns="http://www.w3.org/2000/svg" version="1.1" viewBox="0 0 35 35">
  <!-- Generator: Adobe Illustrator 29.8.2, SVG Export Plug-In . SVG Version: 2.1.1 Build 3)  -->
  <defs>
    <style>
      .st0 {
        fill: #fff;
      }
    </style>
  </defs>
  <path class="st0" d="M3.02,32.33c-.21-.15-.27-.23-.29-.49-.04-.42-.06-1.58,0-1.97.02-.1.19-.38.26-.38h.9v-7.42c-1.27-.39-1.59-2.03-.49-2.84,1.01-.75,2.49-.02,2.55,1.22.69-.79,1.09-1.84,1.39-2.84.46-1.55.7-3.23.79-4.84v-.08c-1.98-.68-1.08-3.62.93-3.06,1.52.42,1.54,2.69-.01,3.05v8l1.55-2.65c.11-.86-.1-1.92.02-2.76.02-.17.2-.44.37-.44h.84v-2.52c0-.13.29-.3.43-.26h10.49c.14-.04.43.13.43.26v2.52h.84c.17,0,.35.27.37.44.12.84-.09,1.9.02,2.76l1.55,2.65v-8c-1.56-.36-1.53-2.64-.01-3.05,2.01-.55,2.91,2.38.95,3.06.04,1.47.27,3.04.64,4.46.3,1.14.74,2.39,1.52,3.29.05-1.24,1.54-1.96,2.55-1.22,1.1.81.78,2.45-.49,2.84v7.42h.9c.07,0,.24.28.26.38.06.39.04,1.55,0,1.97-.02.26-.08.34-.29.49H10.95c-.42-.13-.31-.87.03-.87h18.11v-1.71c0-.29.62-.29.81-.26v-.13s-2.52-4.38-2.52-4.38c-.16-.14-1.76,0-2.14-.06-.32-.05-.41-.17-.44-.48-.03-.33-.05-1.87.03-2.12.11-.35.57-.26.84-.32l-1.92-3.35c-.04-.09-.11-.09-.19-.1-.6-.07-1.51.12-2.06-.02s-.35-.84-.09-.84h2.03l.09-.09v-1.88h-7.97s-.22-.2-.23-.23c-.1-.22.08-.64.29-.64h6.69v-1.91h-9.62v1.91h1.13c.14,0,.32.28.32.43,0,.15-.19.43-.32.43h-2.35v1.88l.09.09h8.17s.2.2.22.25c.14.32-.15.58-.45.62l-8.19.03-1.97,3.42c.28.06.73-.04.84.32.08.25.06,1.79.03,2.12-.03.31-.12.44-.44.48-.37.05-1.98-.08-2.14.06l-2.51,4.38v.13c.18-.03.8-.03.8.26v1.71h3.27c.34,0,.45.74.03.87H3.02ZM8.51,10.44c-.88.12-.81,1.48.09,1.47,1.07,0,.9-1.61-.09-1.47ZM26.29,10.44c-.89.12-.81,1.52.15,1.47s.84-1.61-.15-1.47ZM8.17,22.02v-4.06l-.7,1.76c-.52.96-1.11,1.82-2.15,2.25-.19.08-.41.06-.56.19v6l2.23-3.82c.1-.6-.04-1.29.03-1.89s.73-.41,1.16-.43ZM30.25,28.16v-6c-.15-.13-.37-.11-.56-.19-1.03-.42-1.64-1.3-2.15-2.25l-.7-1.76v4.06c.43.03,1.09-.16,1.16.43s-.08,1.28.03,1.89l2.23,3.82ZM4.85,20.01c-.57-.57-1.61.14-1.13.93.57.92,1.89-.17,1.13-.93ZM30.15,20.01c-.76.76.56,1.84,1.13.93.48-.78-.56-1.49-1.13-.93ZM9.33,22.89h-1.45v1.16h1.45v-1.16ZM27.12,22.89h-1.45v1.16h1.45v-1.16ZM5.04,30.36h-1.45v1.1h1.45v-1.1ZM31.4,30.36h-1.45v1.1h1.45v-1.1Z"/>
  <path class="st0" d="M17.67,2.67c.5.43.49,1.53,1.02,1.9.33.23,1.09.34,1.06.85-.03.42-.95.56-1.22.87s-.53,1.59-.82,1.72c-.14.06-.3.06-.44,0-.29-.14-.55-1.4-.82-1.72s-1.19-.45-1.22-.87c-.03-.49.74-.62,1.06-.85.53-.37.52-1.47,1.02-1.9h.35ZM17.56,4.35c-.11-.11-.22.34-.26.41-.14.25-.31.5-.61.58.33.3.69.56.75,1.04.13.02.09,0,.13-.07.08-.15.1-.3.22-.48s.35-.33.52-.46c-.4-.21-.67-.57-.75-1.01Z"/>
  <path class="st0" d="M23.34,4.82c.19-.04.35-.01.47.14.3.37.41,1.3.73,1.65s1.43.44,1.15,1.08c-.13.3-.93.44-1.17.74-.27.32-.53,1.59-.82,1.72-.13.06-.3.06-.44,0-.29-.14-.55-1.4-.82-1.72-.29-.35-1.21-.42-1.21-.93,0-.45.75-.57,1.05-.79.44-.32.52-1.28.84-1.71.07-.1.1-.15.23-.18ZM23.52,6.49c-.11-.11-.23.37-.28.45-.15.26-.34.4-.59.57.39.23.67.56.75,1.01.13.02.09,0,.13-.07.08-.15.1-.3.22-.48s.35-.33.52-.46c-.36-.26-.68-.55-.75-1.01Z"/>
  <path class="st0" d="M11.4,4.82c.18-.04.35-.01.47.14.28.36.39,1.28.73,1.65.25.26.97.4,1.12.68.36.67-.84.78-1.15,1.15-.27.32-.53,1.59-.82,1.72-.13.06-.3.06-.44,0-.29-.14-.55-1.4-.82-1.72-.31-.37-1.46-.46-1.17-1.11.13-.3.93-.44,1.17-.74.3-.36.4-1.19.68-1.58.07-.1.1-.15.23-.18ZM11.59,6.49c-.13-.02-.09,0-.13.07-.08.15-.1.3-.22.48s-.35.33-.52.46c.36.26.68.55.75,1.01.11.11.23-.37.28-.45.15-.26.34-.4.59-.57-.39-.23-.67-.56-.75-1.01Z"/>
</svg>