<?xml version="1.0" encoding="UTF-8"?>
<svg id="Layer_1" xmlns="http://www.w3.org/2000/svg" version="1.1" viewBox="0 0 35 35">
  <!-- Generator: Adobe Illustrator 29.8.2, SVG Export Plug-In . SVG Version: 2.1.1 Build 3)  -->
  <defs>
    <style>
      .st0 {
        fill: #fff;
      }
    </style>
  </defs>
  <path class="st0" d="M18.19,2.68l1.22.2c1,.22,1.98.6,2.85,1.14.3.19,1.63,1.16,1.71,1.42.14.46-.24.74-.65.53-.17-.09-.98-.99-1.14-.86.03.12-.09.24-.1.33,0,.07.56,1.14.65,1.35.11.26.26.88.38,1.06.04.07.52.37.64.47.23.21.43.46.66.67l.54-.6c-.07-.44-.8-1.04-.45-1.46.53-.65,1.13.79,1.29,1.15,1.32,3.06.89,6.47-1.09,9.12-.22.3-.55.58-.74.88-.21.31-.33.67-.56,1-.62.87-1.5,1.31-1.93,2.36-.64,1.57-.36,3.49.04,5.09.9.07,1.93-.3,2.29.8.42,1.26.5,2.86.89,4.16,0,.43-.27.68-.64.84h-12.79c-.38-.14-.58-.42-.63-.83.39-1.3.48-2.88.89-4.15.34-1.03,1.17-.78,2.05-.82.5-2.25.88-4.73-.98-6.45-.81-.76-1.29-1.17-1.97-2.09-4.53-6.11-1.58-14.37,6.1-15.26l.09-.05h1.39ZM16.89,3.56c-.13.04-.58.64-.54.74l1.13.67,1.21-.7-.61-.71h-1.19ZM15.58,3.78c-.71.15-1.37.46-2.02.76l.05.34c.06.01.12,0,.18-.03.18-.06,1.45-.64,1.58-.74.11-.08.22-.19.21-.34ZM21.42,4.54c-.65-.3-1.3-.63-2.02-.76l.19.33,1.7.76c.12.05.16-.29.13-.33ZM17.08,5.7l-1.4-.75-1.91.85c-.21.26-1.03,2.03-.94,2.2.55.42,1.11.88,1.74,1.16l2.49-1.27.03-2.2ZM17.96,7.88l2.51,1.28c.17.01,1.73-1.08,1.75-1.2-.25-.75-.55-1.51-1-2.17l-1.86-.85-1.38.8-.02,2.13ZM11.92,7.87c.08-.11.37-1.05.47-1.3s.49-.87.52-1.05c.03-.19-.11-.3-.11-.48-.84.54-1.59,1.33-2.14,2.17-.14.22-.58.92-.61,1.13-.03.15.51.66.58.64.13-.18.27-.35.44-.49.15-.14.81-.57.85-.62ZM20.08,9.93l-2.51-1.29c-.35.14-2.51,1.15-2.6,1.33-.04.08-.08.33-.09.43-.02.27-.04,2.36.03,2.46.48.16,1.79,1.13,2.2,1.15.09,0,.91,0,.95-.02.3-.09,1.34-.7,1.66-.89.34-.21.44-.18.48-.62.06-.56,0-1.74-.06-2.32,0-.08-.02-.19-.07-.25ZM12.21,8.71c-.12.02-1.06.93-1.14,1.07-.4.72-.18,2.34-.23,3.16.03.13.75.95.88,1.03.54.32,1.69-.83,2.21-1.04.07-.05.08-.12.09-.2.11-.85-.12-1.9.05-2.77l-1.86-1.25ZM22.74,8.71l-1.75,1.2c.03.84.12,1.68.09,2.52,0,.17-.12.32,0,.46.25.29,1.22.66,1.52,1.03.6.18.67.12,1.06-.3.65-.71.6-1.3.55-2.23-.06-1.12-.11-1.64-.98-2.38-.1-.09-.37-.33-.48-.31ZM9.7,9.34c-.36.94-.44,2.09-.38,3.1,0,.13.11.95.2.95.14-.09.4-.26.43-.43.1-.51-.03-1.39,0-1.97.02-.29.19-.94.17-1.16-.01-.15-.34-.36-.43-.49ZM25.28,9.34c-.08.11-.25.21-.31.32-.15.28.09,1.33.11,1.73.02.33,0,.71,0,1.05,0,.14-.07.28-.07.4.01.23.31.38.44.55.09,0,.19-.83.2-.95.07-1.01-.02-2.15-.38-3.1ZM19.11,26.53h1.45c-.33-1.83-.63-3.84.16-5.6s2.59-2.05,2.68-4.45c.02-.45-.09-2.08-.87-1.56-.32.21-.17.42-.17.69,0,.92.04,2.2-1.01,2.59-1.74.64-2.33-1.88-3.12-2.92-.25-.33-.52-.52-.95-.39-.51.15-.44.58-.76.75-.19.1-.41.03-.54-.14-.32-.42.3-.81.21-.96l-1.73-.91-1.19.77c.58.72.13,1.48.3,2.3.08.36.27.78.7.74.56-.05.49-.89,1.05-.87.91.04-.03,1.56-.57,1.62l-.04.12s.11.02.14.06c1.05,1,2.19,1.61,3.24,2.49,1.59,1.33,1.63,3.84,1.01,5.67ZM18.82,14.55l1.56,2.69c.58.48,1,.01,1.09-.6.08-.57-.12-1.25.04-1.75.05-.16.16-.31.25-.44l-.02-.08-1.15-.74-1.78.92ZM10.77,16.34c.01-.6.11-1.2.34-1.76l-.71-.79-.65.61c.27.67.55,1.38,1.03,1.94ZM24.32,16.28l.91-1.88-.6-.54-.71.73.18.55.21,1.15ZM14.42,26.53h.9c.29,0,.51.69.03.84-.86.13-1.92-.09-2.76.02-.08.01-.15.01-.2.09l-.86,3.97h12.22l-.87-4.03-5.59-.03c-.32-.05-.46-.15-.44-.49.04-.6.89-.31,1.3-.38.69-1.41.74-3.85-.54-4.95-1.63-1.41-4.97-2.93-4.98-5.44,0-.38.3-1.05-.18-1.26-.67-.29-.78.82-.8,1.26-.12,2.67,1.77,2.88,2.64,4.72.68,1.44.61,3.22.36,4.76-.05.3-.12.62-.21.91Z"/>
  <path class="st0" d="M20.2,29.58c-.08.09-.29.12-.42.14-1.47.13-3.14-.11-4.64,0-.65-.08-.6-.81-.12-.87l5.1.06c.22.16.26.49.07.68Z"/>
</svg>