<?xml version="1.0" encoding="UTF-8"?>
<svg id="Layer_1" xmlns="http://www.w3.org/2000/svg" version="1.1" viewBox="0 0 35 35">
  <!-- Generator: Adobe Illustrator 29.8.2, SVG Export Plug-In . SVG Version: 2.1.1 Build 3)  -->
  <defs>
    <style>
      .st0 {
        fill: #fff;
      }
    </style>
  </defs>
  <path class="st0" d="M2.58,27c.68-2.45,2.56-4.47,5.01-5.19.09-.09-.25-.23-.32-.29-3.46-3.06-.29-8.34,3.89-6.86.32.11.58.3.88.39.91-.93,2.03-1.71,3.31-2.03-2.31-1.55-2.5-4.98-.19-6.64,2.89-2.07,6.76.3,6.31,3.8-.15,1.18-.86,2.14-1.8,2.83,1.28.33,2.39,1.1,3.31,2.03.3-.09.56-.27.88-.39,4.18-1.48,7.35,3.8,3.89,6.86-.07.06-.41.2-.32.29,2.45.72,4.33,2.74,5.01,5.19v.7c-.25.91-.89,1.55-1.84,1.68h-10.61c-3.53-.67-1.49-4.43.21-5.97.82-.74,1.82-1.27,2.86-1.63-.19-.2-.49-.36-.67-.55-.15-.15-.41-.61-.58-.64l-8.69.05c-.29.48-.74.79-1.13,1.17,2.18.59,4.29,2.61,4.91,4.79.4,1.4-.39,2.65-1.85,2.79H4.47c-.97-.12-1.64-.77-1.9-1.69v-.7ZM17.2,6.56c-4.24.4-3.24,7.08,1.11,6,3.5-.86,2.69-6.36-1.11-6ZM21.41,19.66c-.43-1.41-.1-2.85.85-3.96-2.17-2.43-5.92-2.77-8.56-.86-.16.12-1.01.78-.95.92.98,1.03,1.25,2.55.85,3.9h7.81ZM9.44,15.36c-3.91.43-3.4,6.44.62,6.1s3.46-6.55-.62-6.1ZM24.89,15.36c-3.94.41-3.44,6.44.62,6.1s3.44-6.52-.62-6.1ZM14.39,24.28c-2.94-2.94-7.95-2.33-10.12,1.17-.63,1.01-1.43,2.67.32,3l10.58-.03c.4-.11.81-.45.87-.88.13-.95-.99-2.61-1.65-3.27ZM20.55,24.34c-.83.85-2.65,3.49-.72,4.09l10.58.03c1.75-.33.95-1.99.32-3-2.2-3.54-7.26-4.11-10.18-1.12Z"/>
</svg>