<?xml version="1.0" encoding="UTF-8"?>
<svg id="Layer_1" xmlns="http://www.w3.org/2000/svg" version="1.1" viewBox="0 0 35 35">
  <!-- Generator: Adobe Illustrator 29.8.2, SVG Export Plug-In . SVG Version: 2.1.1 Build 3)  -->
  <defs>
    <style>
      .st0 {
        fill: #fff;
      }
    </style>
  </defs>
  <path class="st0" d="M17.64,11.66h8.7c.11,0,.55.16.68.22.38.18.59.47.76.85.73,1.63,1.82,4.42,2.78,5.82.36.52,1.27,1.28,1.75,1.78.08.08.18.12.26.19v11.94s-.25.13-.25.13l-3.82-.03c-.11-.05-.17-.28-.19-.39-.11-.75-.06-1.58-.2-2.34h-2.89c-.02.4-.2.79-.61.9-2.15-.14-4.56.2-6.68,0-.47-.04-.77-.43-.74-.9h-2.95c-.02.62-.01,1.28-.06,1.89-.02.2-.05.77-.19.84l-4.09-.05-.08-.46v-11.3c.07-.4,1.57-1.57,1.89-2.03.24-.34.39-.85.61-1.22-2.37.7-4.9.21-6.86-1.26C.9,12.85,1.63,5.62,6.75,3.18c5.79-2.76,12.21,2.26,10.89,8.49ZM9.81,3c-1.67.03-3.21.73-4.46,1.8-.08.08,0,.11.03.16.19.28,1.22,1.04,1.15,1.33l-.23.23c-.3.08-1.05-.95-1.33-1.15-.06-.04-.09-.11-.16-.03-1.06,1.25-1.77,2.8-1.8,4.46h1.57c.29,0,.33.58.13.58h-1.7c0,1.08.33,2.22.85,3.17.27.5.64.92.95,1.39.09.03.11-.03.16-.06.25-.17,1.27-1.6,1.48-.9.02.08.03.11,0,.19-.12.26-.96.82-1.1,1.09-.05.09-.01.09.03.16.11.16.63.54.82.66,1.06.69,2.34,1.11,3.62,1.17v-1.64s.16-.26.24-.28c.08-.04.34.11.34.15v1.77c1.27-.03,2.46-.44,3.53-1.13.18-.11.81-.56.91-.7.05-.07.08-.07.03-.16-.13-.25-1.51-1.16-.93-1.45.41-.21,1.03.87,1.35,1.03.09.05.1.02.16-.03.12-.09.53-.68.63-.84.67-1.04,1.15-2.35,1.19-3.59h-1.77s-.19-.26-.15-.34c.02-.07.24-.24.28-.24h1.64c-.04-.84-.22-1.66-.55-2.44-.2-.49-.86-1.71-1.28-2-.07-.05-.07-.08-.16-.03-.29.15-.89,1.04-1.16,1.16-.25.11-.46-.17-.35-.42s.92-.83,1.13-1.12c.04-.05.09-.07.06-.16-.47-.31-.89-.68-1.39-.95-.95-.51-2.08-.84-3.17-.85v1.7c0,.19-.58.2-.58-.19v-1.51ZM27.27,13.08c-.02-.46-.57-.79-.99-.83l-8.77.04-.25.8h10.02ZM29.9,18.6l-2.42-4.93h-10.54c-.55,1.11-1.39,2.06-2.4,2.76-.33.23-1.29.67-1.46.85-.23.25-.47.99-.64,1.32h17.46ZM13.02,19.24h-1l-1.57,1.64.84,5.1h5.01v-4.01c.12-.14.25-.15.41-.16,2.83-.26,6.06.2,8.93,0,.12-.05.48.15.48.23v3.95h4.98l.08-.11.83-5.05-1.56-1.58h-1.06c.2.39,1.17,1.03,1.32,1.35.06.13.01.25-.04.37l-18.87-.02c-.12-.13-.14-.22-.06-.38.23-.42,1.01-.88,1.28-1.33ZM29.71,20.46c.03-.11-.05-.13-.1-.19-.25-.33-.69-.63-.96-.97-4.92-.1-9.92-.1-14.84,0l-1.12,1.16h17.01ZM18.09,22.39h-1.19l-.1.1v3.5h1.28v-3.6ZM19.95,22.39h-1.22v3.6h1.22v-3.6ZM21.81,22.39h-1.22v3.6h1.22v-3.6ZM23.68,22.39h-1.19l-.1.1v3.5h1.28v-3.6ZM25.54,22.39h-1.28v3.6h1.28v-3.6ZM13.72,29.83h-2.79c-.08,0-.15-.2-.16-.29-.13-.95.1-2.17,0-3.15l-.38-2.02v7.64h3.21l.13-2.18ZM32.02,32.02v-7.45l-.3,1.58c-.04.99.19,2.37.04,3.32-.01.09-.15.36-.22.36h-2.86l.19,2.18h3.15ZM31.12,29.26v-2.6l-19.77-.1v2.7h5.84c-.05-.67,0-1.34.8-1.42,2.08-.2,4.49.14,6.6.02.71.16.65.8.62,1.4h5.91ZM24.57,30.15c.08,0,.1-1.46.03-1.6-.01-.03-.12-.13-.13-.13h-6.48s-.15.07-.16.11c0,.3.01.59,0,.89,0,.24-.18.54.03.74h6.71Z"/>
  <path class="st0" d="M9.08,5.72l1.37,3.22c.23.03.51.39.67.42.67.13,2.35-.24,2.79.24.34.37.18,1.11-.3,1.22-.67.15-1.75-.11-2.42.01-.14.03-.36.3-.58.39-.25.11-.48.12-.74.16l-1.37,3.25c-.28.21-.51-.12-.41-.41l1.27-3.1c-.28-.38-.52-.69-.43-1.2.03-.18.17-.32.15-.5-.29-.94-.95-1.99-1.2-2.92-.22-.81.56-1.3,1.2-.78ZM9.81,8.97c.01-.07,0-.13-.03-.19-.16-.52-.79-2.1-1.05-2.55-.16-.27-.38-.16-.31.11l1.07,2.69.32-.07ZM9.7,9.63c-.71.59.39,1.67.94.85.43-.64-.37-1.32-.94-.85ZM11.35,10.32h2.02s.17-.16.16-.22l-.1-.16h-2.09v.39Z"/>
  <path class="st0" d="M28.99,21.82c2.11-.11,2.34,3.05.42,3.32-2.52.35-2.63-3.2-.42-3.32ZM28.92,22.4c-1.15.17-1.32,1.83-.15,2.17,1.7.5,1.89-2.42.15-2.17Z"/>
  <path class="st0" d="M13.26,21.82c2.24-.12,2.38,3.35.11,3.35s-2.18-3.24-.11-3.35ZM13.19,22.4c-1.61.26-.93,2.8.64,2.12,1.16-.51.63-2.32-.64-2.12Z"/>
  <path class="st0" d="M30.21,28.6c-.1.07-.22.07-.34.08-.26.02-1.67.03-1.83-.04-.3-.13-.29-1.32.01-1.46.19-.09,1.83-.08,2.02,0,.35.15.23,1.09.13,1.41ZM29.71,27.71h-1.28v.39h1.28v-.39Z"/>
  <path class="st0" d="M12.49,27.15c.27-.05,1.85-.06,2.01.08.09.08.1,1.2.03,1.32-.03.05-.11.08-.16.1-.21.07-1.55.06-1.83.03-.22-.02-.33-.05-.36-.29-.02-.18-.02-1.08.07-1.16.04-.04.18-.07.24-.08ZM13.98,27.71h-1.19c-.13.09-.1.25-.1.39h1.28v-.39Z"/>
</svg>