<?xml version="1.0" encoding="UTF-8"?>
<svg id="Layer_1" xmlns="http://www.w3.org/2000/svg" version="1.1" viewBox="0 0 35 35">
  <!-- Generator: Adobe Illustrator 29.8.2, SVG Export Plug-In . SVG Version: 2.1.1 Build 3)  -->
  <defs>
    <style>
      .st0 {
        fill: #fff;
      }
    </style>
  </defs>
  <path class="st0" d="M31.4,19.18v.65c-.36.95-1.3.67-2.12.71,0,.36-.18.66-.33.98h2.2c.06,0,.2.26.24.33v.16c-.05.09-.19.33-.3.33h-10.35l5.65,8.39c.2.29.06.54-.22.68h-.22c-.22-.17-.37-.41-.53-.63-1.96-2.76-3.73-5.67-5.71-8.41l-4.48-.03-.16.05-6.16,9.02h-.27c-.29-.22-.38-.33-.21-.67l5.69-8.4h-1.17s-.22-.11-.23-.12c-.15-.16-.08-.69.18-.69h12.9c-.18-.3-.33-.62-.33-.98-.06-.07-1.55.07-1.85-.02s-.38-.52-.16-.71c.23-.2,1.69-.02,2.08-.08.71-1.67,2.6-1.26,4.06-1.28-.26-.31-.59-.53-.98-.65-2.57-.79-5.04-.22-7.58-.46-.38-.04-.56-.17-.57-.58,0-.16.06-.28.06-.43,0-.44,0-.89,0-1.33h-.81v2.09s-.26.29-.35.25c-2.05-.14-4.34.18-6.36,0-.2-.02-.46-.13-.46-.36v-1.98h-.71v2.04c0,.1-.27.33-.41.3h-5.15c-.45.25-.86.67-1.07,1.14h3.34c.1,0,.55.2.66.26.37.21.62.62.81.99l11.09.04c.34.25.2.75-.23.78h-10.78c.03.36-.14.68-.33.98.42-.02,1.16-.1.97.56-.02.07-.24.26-.29.26H3.89c-.11,0-.25-.23-.3-.33v-.22c.07-.05.12-.18.19-.22.3-.2,2.36.07,2.86-.08-.18-.29-.29-.61-.33-.94-.93-.13-2.28.4-2.71-.71v-.65c.11-.15.12-.33.27-.46.12-.11.43-.2.48-.26.04-.05.15-.39.22-.51.46-.75.85-.87,1.42-1.4.88-.82,1.31-2.09,2.67-2.33l13.87-.04c1.26.08,2.05,1.2,2.96,1.93s1.89.57,2.99.81c.6.13,1.25.42,1.68.87.17.17.31.49.46.63.14.12.37.16.52.3s.16.31.27.46ZM11.04,15h-2.2c-.11,0-.6.24-.71.33-.39.28-.72.85-1.06,1.19h3.96v-1.52ZM24.67,16.52c-.09-.13-.21-.25-.33-.35-.3-.28-1.29-1.17-1.66-1.17h-1.33c0,.37.01.74,0,1.12,0,.09-.11.41.02.41h3.29ZM18.91,15.06h-5.54v1.47h5.54v-1.47ZM6.64,19.29h-2.15c-.12.1-.13.33,0,.43h1.9l.24-.43ZM8.04,19.31c-1.56.24-.9,2.76.63,2.1,1.16-.5.68-2.3-.63-2.1ZM27.15,19.31c-1.28.22-1.07,2.28.25,2.21,1.53-.08,1.36-2.48-.25-2.21ZM28.96,19.29l.24.43h1.3c.12-.1.13-.33,0-.43h-1.55Z"/>
  <path class="st0" d="M31.4,12.18c-.11.2-.16.3-.41.33h-6.4c-2.08-.35-1.72-3.58.4-3.43.36-3.21,5.01-3.19,5.27.06.42.05.9-.17,1.14.27v.22c-.06.45-1.41.39-1.67.28-.32-.13-.23-.65-.3-.95-.44-2.03-3.26-1.93-3.62.1-.04.25.08.5-.17.7-.43.36-1.21-.2-1.57.55-.29.6-.04,1.24.62,1.37h6.3c.25.03.3.13.41.33v.16Z"/>
  <path class="st0" d="M5.55,31.4c-.06-.06-.16-.07-.22-.13-.16-.19-.15-1.76-.02-1.98.19-.31.4-.15.65-.16,1.07-.08,1.35-2,1.47-2.82.2-.31.45-.16.7-.17,1.03-.06,1.33-2.02,1.43-2.81.21-.3.66-.23.77.12-.07.98.09,2.08,0,3.04-.02.22-.06.37-.31.4-.54.08-.51-.3-.54-.7-.34.39-.73.7-1.27.77-.07.8.07,1.68,0,2.47-.03.37-.26.58-.64.42-.28-.12-.15-.41-.18-.64-.11-.11-.13.08-.21.16-.33.32-.69.48-1.14.58-.1.48.22,1.18-.28,1.46h-.22Z"/>
  <path class="st0" d="M29.23,31.4c-.49-.28-.18-.98-.28-1.46-.46-.12-1.03-.3-1.24-.77l-.11.03c.22.76-.75.99-.82.22s.06-1.67,0-2.47c-.53-.06-.93-.38-1.27-.77-.03.4,0,.78-.54.7-.25-.04-.29-.18-.31-.4-.09-.96.07-2.06,0-3.04.09-.36.67-.43.78-.08.13.42.14.98.29,1.45.16.5.53,1.29,1.13,1.32.24.01.49-.15.67.14.18.79.38,2.62,1.36,2.82.29.06.68-.13.83.26.07.18.07,1.39.04,1.64s-.11.31-.32.41h-.22Z"/>
  <path class="st0" d="M21.08,3.6c.42.31.21.8.33,1.27.18.73.82,1.25,1.55,1.33.52.06,1.11-.17.91.65-.41,1.64-2.66,2.19-3.95,1.15-1.62-1.31-1.04-3.79.9-4.4h.27ZM22.82,7.02c-1.29-.11-2.12-1.16-2.28-2.39-1.49,1.06-.61,3.31,1.22,3.09.37-.04.93-.34,1.06-.7Z"/>
  <path class="st0" d="M8.6,7.01c1.64.13,1.69,2.48-.03,2.62-.93.07-2.89.1-3.8,0-1.53-.18-1.5-2.44.01-2.55.31-2.2,3.39-2.21,3.82-.06ZM8.9,8.68c.18-.16.17-.54.02-.72-.29-.33-1,.14-1.13-.5-.07-.33.04-.5-.21-.83-.46-.62-1.57-.47-1.9.21-.13.27-.09.73-.24.9-.25.28-.68-.02-.92.28-.25.31-.04.75.34.78,1.17-.1,2.55.13,3.7,0,.1-.01.26-.06.33-.13Z"/>
  <path class="st0" d="M15.94,9.89c1.59.08,1.67,2.48.07,2.62-1.26.11-2.69-.08-3.96,0-1.48-.22-1.42-2.4.07-2.56.33-2.1,3.42-2.18,3.82-.06ZM13.85,9.15c-.4.06-.76.36-.88.75-.1.32,0,.77-.39.86-.26.06-.52-.08-.72.2-.25.35,0,.7.41.74,1.17.11,2.51-.09,3.7,0,.54-.05.57-.86.04-.97-.33-.06-.75.13-.86-.33-.05-.19,0-.37-.07-.58-.16-.51-.71-.74-1.21-.66Z"/>
  <path class="st0" d="M8.52,20.69c-.41.44-1.01-.34-.51-.64.46-.27.77.36.51.64Z"/>
  <path class="st0" d="M27.64,20.07c.25.2.11.73-.23.74-.75.04-.35-1.22.23-.74Z"/>
</svg>