<?xml version="1.0" encoding="UTF-8"?>
<svg id="Layer_1" xmlns="http://www.w3.org/2000/svg" version="1.1" viewBox="0 0 35 35">
  <!-- Generator: Adobe Illustrator 29.8.2, SVG Export Plug-In . SVG Version: 2.1.1 Build 3)  -->
  <defs>
    <style>
      .st0 {
        fill: #fff;
      }
    </style>
  </defs>
  <path class="st0" d="M19.01,7.03l3.25,3.73c.55.06,1.17-.05,1.71.03.86.13,1.12,1.23.4,1.74-.05.04-.29.16-.33.16h-2.78v1.59h7.5s.3.11.36.13c.48.23.68.7.71,1.21.23,3.06-.18,6.41,0,9.51-.04.54-.37,1.08-.93,1.18l.33.13c.26.33-.75,1.2-.92.58-.07-.26.41-.47.53-.66h-2.23c-.14.29-.19.57-.35.86-.14.25-.34.45-.5.68h2.01c.08,0,.4.12.49.17.41.25.51.76.37,1.2h2.5c.14,0,.36.5-.05.55H6.29c-.2,0-.29-.23-.22-.39.11-.25.52-.15.74-.17-.24-.48.01-1.09.51-1.28.05-.02.32-.1.34-.1h2.01c-.41-.44-.7-.92-.82-1.52-1.14-.18-2.89.5-3.23-1.05v-9.93c0-.47.59-1.13,1.06-1.13h7.5v-1.59h-2.78s-.28-.13-.33-.16c-.47-.34-.55-.99-.17-1.43.5-.58,1.6-.21,2.28-.36l3.24-3.71H7.66s-.29-.08-.34-.1c-.91-.34-.74-1.72.23-1.83h20.34c.95.09,1.15,1.46.27,1.82-.04.02-.37.11-.39.11h-8.77ZM7.56,5.67c-.35.16-.39.71.04.76l20.36-.03c.25-.11.25-.64-.05-.72H7.56ZM21.54,10.77l-3.22-3.68c-.11-.1-1.01-.09-1.16,0l-3.27,3.68.8-.05c.88-.95,1.69-1.98,2.58-2.92.09-.09.34-.38.44-.39.15-.01.38.27.49.39.88.93,1.69,1.99,2.55,2.94l.77.03ZM20.06,10.77l-2.25-2.64-2.36,2.64h4.62ZM11.52,11.33c-.44.14-.39.67.04.76h12.32c.45-.06.46-.7,0-.77h-12.36ZM20.71,14.29v-1.57l-.08-.08h-5.91v1.65h5.99ZM29.23,21.15v-5.85c0-.13-.31-.4-.44-.44l-21.9-.03c-.2-.08-.68.32-.68.47v5.85h23.03ZM29.23,21.7H6.21v3.6s.13.24.16.28c.41.45,1.85.16,2.44.25.17-.64.33-1.19.84-1.65,1.51-1.36,4.04-.4,4.15,1.65h7.91c.31-3.02,4.54-3,4.89,0h2.06l.08-.14-.26-.34c-.01-.14.18-.34.32-.32.23.03.23.29.44.3v-3.63ZM11.14,24.08c-2.48.23-2.21,3.99.31,3.83s2.24-4.06-.31-3.83ZM23.95,24.08c-2.51.23-2.17,4.02.31,3.83s2.22-4.06-.31-3.83ZM12.91,27.91h9.62c-.44-.42-.73-.95-.86-1.54h-7.91c-.1.61-.42,1.11-.86,1.54ZM7.51,28.53c-.37.2-.24.8.21.76h20.06c.49-.06.48-.81-.06-.77H7.51Z"/>
  <path class="st0" d="M4.32,29.3c.15-.03.89-.04,1.02,0,.2.06.28.35.12.48-.08.07-1.06.08-1.2.04-.21-.06-.24-.46.06-.53Z"/>
  <path class="st0" d="M29.55,9.19c.29.29-.46.91-.7.84-.42-.12-.17-.45.03-.64.16-.15.47-.41.67-.21Z"/>
  <path class="st0" d="M30.37,25.17c.16-.03.23.04.32.16.16.35-.81,1.11-.95.56-.06-.23.46-.69.64-.72Z"/>
  <path class="st0" d="M27.84,10.28c.18-.05.35.12.35.29,0,.3-.82.98-.97.42-.05-.18.49-.67.62-.71Z"/>
  <path class="st0" d="M7.13,11.49c.22-.06.45.14.38.38-.03.08-.42.44-.51.49-.25.13-.52-.05-.44-.33.03-.1.48-.52.57-.54Z"/>
  <path class="st0" d="M27.57,8.96c.21-.06.74.53.73.73,0,.06-.06.19-.11.23-.06.04-.12.03-.19.03-.28-.03-.96-.84-.43-.98Z"/>
  <path class="st0" d="M6.85,10.17c.34-.1.92.63.68.9-.05.03-.1.06-.15.07-.27.04-.99-.83-.52-.97Z"/>
  <path class="st0" d="M8.55,10.34c.17-.04.37.04.38.24.01.24-.59.78-.88.57-.34-.24.29-.76.5-.81Z"/>
  <path class="st0" d="M4.32,27.54c.21-.06.45.13.39.34-.05.17-.78.85-.96.42-.18-.18.48-.73.56-.76Z"/>
  <path class="st0" d="M28.82,10.35c.24,0,.66.54.63.77-.1.75-1.48-.78-.63-.77Z"/>
  <path class="st0" d="M6.02,26.85s-.38.33-.4.34c-.23.12-.42.05-.5-.19-.01-.16.49-.6.62-.62.33-.06.47.25.28.48Z"/>
  <path class="st0" d="M30.15,26.5c.05.04.44.51.45.57.02.14-.11.32-.25.33-.17.01-.66-.52-.68-.68-.03-.28.27-.4.48-.23Z"/>
  <path class="st0" d="M5.2,27.65c.38-.12,1.11.93.48.93-.29,0-.97-.78-.48-.93Z"/>
  <path class="st0" d="M4.38,26.34c.15.13.45.5.39.71-.13.46-.85-.25-.9-.45-.04-.15.1-.28.21-.35.08-.04.23.03.3.09Z"/>
  <path class="st0" d="M7.92,11.66c.05-.05.21-.08.29-.07.17.02.6.57.58.74-.09.63-1.17-.37-.87-.67Z"/>
  <path class="st0" d="M8.06,15.95c1.4.07,2.95-.13,4.33-.02.58.05.91.31.96.91.05.57.06,1.81,0,2.37s-.42.81-.96.85c-1.06.09-3.07.09-4.13,0-.46-.04-.89-.25-.95-.75s-.07-2.13,0-2.63c.06-.41.37-.64.75-.73ZM7.92,19.38l4.71.04.11-.22-.03-2.56-.22-.11-4.54.03c-.09.11-.1.25-.11.38-.05.57-.04,1.52,0,2.09,0,.12.03.23.07.34Z"/>
  <path class="st0" d="M15.48,15.95c1.31-.19,2.98.11,4.33-.02.47.02.85.31.91.8.06.57.06,1.96,0,2.53s-.46.76-.96.8c-1.06.09-3.07.09-4.13,0-.51-.04-.88-.26-.95-.8-.07-.48-.07-2.03,0-2.52.06-.45.36-.72.81-.79ZM15.42,16.55c-.12.04-.14.12-.15.23-.06.45-.06,1.98,0,2.42.01.09.02.17.11.22l4.54.03.22-.11c0-.77.09-1.64.03-2.39-.01-.13-.02-.27-.11-.38h-4.63Z"/>
  <path class="st0" d="M22.85,15.95c1.39.06,2.95-.14,4.33-.02.37.03.74.18.88.55s.12,2.14.08,2.61c-.06.63-.33.91-.96.96-1.08.09-3.04.08-4.13,0-.47-.04-.89-.24-.95-.75-.06-.47-.07-2.22,0-2.68.05-.33.42-.65.75-.68ZM22.78,16.55c-.13.04-.14.23-.15.35-.05.54-.06,1.73,0,2.26.01.1.03.2.11.27l4.54.03.22-.11.03-2.56-.11-.22-4.64-.02Z"/>
  <path class="st0" d="M10.97,24.74c1.91-.39,2.2,2.45.42,2.57-1.61.1-1.84-2.28-.42-2.57ZM11.14,25.29c-.7.13-.71,1.2-.1,1.39,1.23.38,1.35-1.62.1-1.39Z"/>
  <path class="st0" d="M23.78,24.74c1.99-.34,2.12,2.45.42,2.57-1.6.11-1.84-2.32-.42-2.57ZM23.94,25.29c-.86.18-.67,1.62.36,1.4.85-.18.65-1.61-.36-1.4Z"/>
</svg>