<?xml version="1.0" encoding="UTF-8"?>
<svg id="Layer_1" xmlns="http://www.w3.org/2000/svg" version="1.1" viewBox="0 0 35 35">
  <!-- Generator: Adobe Illustrator 29.8.2, SVG Export Plug-In . SVG Version: 2.1.1 Build 3)  -->
  <defs>
    <style>
      .st0 {
        fill: #fff;
      }
    </style>
  </defs>
  <path class="st0" d="M12.27,5.54v1.77h1.42s.32.2.38.25c.58.52.36,1.32.42,2.01,3.6,1.18,5.86,4.75,5.54,8.52h10.75c.27,0,.57.67.34.91l-6.04,7.32v3.24c.85.34,2.26.27,2.6,1.28.1.29.23,1.03-.14,1.16l-7.43-.02c-.32-.15-.19-.93-.09-1.2.34-.92,1.81-.9,2.59-1.22v-3.24s-3.77-4.61-3.77-4.61c-.09-.07-.1-.01-.16.04-.23.21-.54.76-.79,1.04-3.43,3.76-9.57,3.34-12.53-.77-3.23-4.47-1.16-10.73,4.01-12.45.07-.62-.17-1.5.33-1.97.05-.05.44-.29.47-.29h1.42v-1.77h-2.93c-.3,0-.72-.51-.77-.8-.05-.26-.06-1.43.08-1.59.04-.05.09-.08.15-.1l7.41-.03c.64-.1.52,1.2.46,1.6-.05.34-.42.92-.78.92h-2.93ZM15.3,3.71h-6.75v.98c0,.06.31.25.41.22,1.89-.14,4.01.17,5.87,0,.12-.01.47-.1.47-.22v-.98ZM13.78,9.39v-1.17c0-.14-.39-.27-.53-.29-.58-.05-2.29-.08-2.84,0-.12.02-.35.16-.35.28v1.1c1.23-.19,2.51-.31,3.72.06ZM14.22,13.99c-.09-1.55-1.72-6.16-3.56-3.21-.56.9-.91,2.16-1.04,3.21,1.5-.19,3.1-.19,4.6,0ZM10.44,9.95c-2.87.57-5.2,2.88-5.8,5.74,1.22-.97,2.78-1.32,4.28-1.65.21-1.43.63-2.93,1.52-4.09ZM19.2,15.69c-.63-2.86-2.92-5.16-5.8-5.74.9,1.21,1.25,2.69,1.57,4.13,1.5.24,3,.69,4.23,1.6ZM14.34,19.83c.17-1.08.25-2.2.21-3.3-.02-.45-.06-1.13-.13-1.57-.01-.08-.05-.28-.12-.32-1.58-.19-3.19-.24-4.77.03-.05.04-.07.1-.09.17-.07.4-.11,1.09-.13,1.51-.05,1.15.03,2.3.16,3.44.07.07.16.11.26.12.48.07,1.21.12,1.7.13.36.01,2.8-.07,2.92-.21ZM8.8,19.72c-.22-1.65-.21-3.33,0-4.98-1.85.23-6.56,2.01-3.09,4,.91.52,2.06.84,3.09.98ZM19.33,18.09v-1.17c0-.14-.5-.65-.63-.76-.97-.81-2.45-1.13-3.66-1.42.18,1.65.19,3.33,0,4.98l1.76-.38c-.11-.31-.35-.33-.32-.72.01-.18.25-.54.41-.54h2.43ZM30.43,18.72h-13.18s1.1,1.3,1.1,1.3c1.36-.11,2.77-.02,4.07.37.79.24,1.43.61,2.27.76,1.26.22,2.71.11,3.94-.22l1.79-2.21ZM10.38,24.52c-.85-1.2-1.21-2.64-1.51-4.07-1.49-.27-3-.68-4.23-1.6.58,2.8,2.91,5.17,5.74,5.67ZM13.47,24.52c2-.37,3.81-1.69,4.84-3.44-.21-.17-.9-1.22-1.08-1.22-.15,0-.82.28-1.05.33-.19.05-1.18.22-1.23.28-.24,1.2-.53,2.4-1.13,3.47-.05.09-.39.53-.35.57ZM14.22,20.54c-1.52.18-3.08.19-4.6,0,.09,1.36,1.49,5.8,3.34,3.5.72-.89,1.08-2.38,1.26-3.5ZM27.9,21.81c-1.02.09-1.96.19-2.99.05-1.38-.18-2.49-.91-3.87-1.11-.29-.04-2.05-.23-2.16-.08l4.1,5.01.16.09,1.52-.06,3.24-3.91ZM24.44,26.47h-1.2v3.5s-.16.14-.22.16c-.55.24-1.71.32-2.16.61-.19.12-.28.36-.27.58h6.49c.01-.22-.08-.46-.27-.58-.47-.3-1.6-.37-2.16-.61-.06-.02-.22-.12-.22-.16v-3.5Z"/>
  <path class="st0" d="M22.4,5.68c.8-.16.2.87.11,1.19-.74,2.61,1.53,5.11,4.2,4.57.3-.06,1.15-.47,1.32-.38.5.25-.36,1.25-.6,1.49-3.21,3.21-8.67-.23-7.08-4.56.25-.69,1.3-2.15,2.05-2.3ZM21.73,8.53c-.04-.39,0-.92,0-1.32,0-.04.1-.13.06-.22-3.16,3.48,1.55,8.22,5.11,5.14-.64.03-1.2.07-1.83-.06-1.6-.33-3.15-1.88-3.34-3.53Z"/>
  <path class="st0" d="M28.26,7.66c-.19.21-.72.4-.96.65-.21.22-.53.97-.82.99-.36.02-.59-.77-.85-1.02-.32-.31-1-.46-1.08-.94.03-.27.9-.64,1.11-.85.23-.23.45-1,.82-1,.31,0,.6.8.85,1.04.3.29,1.4.63.93,1.15ZM26.79,7.83c.09-.09.61-.34.61-.43-.35-.29-.71-.48-.91-.91-.25.46-.6.63-.98.94.45.16.73.49.98.88.03.01.24-.42.3-.48Z"/>
</svg>