<?xml version="1.0" encoding="UTF-8"?>
<svg id="Layer_1" xmlns="http://www.w3.org/2000/svg" version="1.1" viewBox="0 0 35 35">
  <!-- Generator: Adobe Illustrator 29.8.2, SVG Export Plug-In . SVG Version: 2.1.1 Build 3)  -->
  <defs>
    <style>
      .st0 {
        fill: #fff;
      }
    </style>
  </defs>
  <path class="st0" d="M12.43,4.26c1.12.2,2.06.87,2.49,1.93.08.19.25.71.25.89v1.06h4.66v-1.06c0-.18.17-.7.25-.89.43-1.07,1.37-1.74,2.49-1.93h.78c1.34.23,2.41,1.18,2.67,2.53.09.47.08.93.07,1.4,2.07.04,3.93,1.6,4.47,3.57.08.27.1.56.18.83v13.71c-.08.27-.1.55-.18.83-.45,1.62-1.77,2.98-3.4,3.43-.29.08-.58.11-.87.19H8.71c-.27-.08-.55-.1-.83-.18-1.62-.45-2.98-1.77-3.43-3.4-.08-.29-.11-.58-.19-.87v-2.28c.21-.27.64-.32.75.05.13.41-.01,1.48.02,2,.14,2.07,1.8,3.72,3.86,3.9h17.13c1.81.04,3.96-1.93,3.96-3.75v-11.82h-5.04s-.22-.14-.24-.18c-.11-.18-.02-.6.18-.6h5.1v-.96c0-.55-.46-1.56-.78-2.01-1.62-2.26-4.19-1.67-6.61-1.74v1.94c0,.83-1.09,1.36-1.84,1.12-.38-.12-.9-.71-.9-1.12v-1.94h-8.17v1.99c0,.17-.29.64-.42.77-.8.78-2.32.18-2.32-.87v-1.84c-1.66.04-3.2,1.29-3.69,2.86-.06.18-.19.68-.19.84v.96h18.29c.12,0,.28.26.28.39s-.23.39-.33.39H5.03v8.1c0,.28-.66.37-.78.03v-9.93c.08-.27.1-.55.18-.83.56-1.98,2.39-3.52,4.47-3.57-.07-1.16.14-2.32,1.03-3.13.38-.35,1.2-.75,1.71-.8h.78ZM14.4,8.14v-1.01c0-.36-.37-1.07-.62-1.34-1.28-1.39-3.65-.74-4.02,1.1-.14.67-.15,3.12-.06,3.81s.98.77,1.17.1c.1-1.13-.1-2.4.01-3.5.09-.88,1.02-1.36,1.79-.91.18.11.54.55.54.75v1.01h1.19ZM25.31,8.14v-.85c0-1.65-1.87-2.69-3.33-2.04-2.08.93-1.19,3.7-1.37,5.5.12.68,1.08.68,1.18,0,.16-1.03-.12-2.44,0-3.51.11-.97,1.3-1.36,1.99-.69.11.11.34.5.34.64v.96h1.19ZM12.43,8.14v-.91s-.18-.19-.21-.21c-.21-.09-.57.05-.57.26v.85h.78ZM23.35,8.14v-.85c0-.21-.36-.35-.57-.26-.03.01-.21.19-.21.21v.91h.78Z"/>
  <path class="st0" d="M8.15,17.47c3.39-3.38,9.23-2.08,10.88,2.4,2,5.45-3.47,10.66-8.82,8.4-4.3-1.82-5.38-7.5-2.07-10.8ZM14.19,16.47c-.54-.08-1.08-.18-1.63-.16-.16,0-.92.1-1.03.16-.16.1-.09.41,0,.56s.94.66,1.11.7c.37.1.83-.21,1.14-.42.35-.25.48-.37.42-.85ZM12.42,18.49c-.75-.39-1.74-.76-1.75-1.77-.5.25-1.02.48-1.45.85l.38.39c.41.59.17,1.38.24,2.06l1.22.67,1.35-.73v-1.48ZM15.78,20.02c.08-.69-.18-1.48.28-2.08.12-.15.27-.22.35-.37-.43-.37-.93-.64-1.45-.85,0,1.02-.98,1.38-1.75,1.77v1.46s1.36.76,1.36.76l1.2-.68ZM8.58,18.18c-.31.06-1.32,1.89-1.36,2.3.18.24.47.28.75.19.16-.05,1.01-.57,1.06-.7.06-.14.07-1.22.03-1.4-.03-.15-.33-.42-.47-.39ZM18.43,20.55c-.24-.88-.71-1.75-1.38-2.37-.27.08-.45.25-.49.53-.03.24-.03,1.09.08,1.27.08.13.95.68,1.09.72.29.07.44-.06.69-.15ZM7,21.46c-.06.36,0,1,0,1.4,0,.03.08.11.05.18.49-.27.96-.19,1.43.04.27.13.67.46.9.55.06.02.1.04.15,0l1.17-.7c-.03-.5-.08-1.03.03-1.52l-1.27-.74c-.71.43-1.51,1.14-2.37.66-.02,0-.08.12-.08.13ZM12.62,20.72c-.14.03-1.02.59-1.09.72-.14.24-.12,1.23.01,1.48.11.22,1.08.76,1.33.74.22-.02,1.16-.57,1.26-.76.11-.22.1-1.33-.05-1.54-.06-.08-.92-.6-1.03-.63-.13-.04-.3-.04-.43-.01ZM18.64,21.33c-.92.45-1.63-.13-2.37-.61-.2-.06-1.1.58-1.33.71v1.51s1.24.72,1.24.72c.75-.38,1.49-1.14,2.38-.62.05-.04.07-.07.08-.13.02-.13.05-.54.06-.67,0-.29-.1-.6-.06-.91ZM12.42,25.87l-.02-1.5-1.32-.75-1.21.7c-.12.72.18,1.47-.29,2.09-.07.1-.4.33-.35.4.48.26.9.65,1.45.78.04-.99.99-1.35,1.75-1.71ZM16.47,26.71c-.98-.45-.55-1.58-.72-2.41l-1.22-.68-1.31.77v1.49c.75.33,1.76.74,1.75,1.71.09.1,1.56-.78,1.5-.88ZM7.55,23.67c-.1.02-.29.11-.3.22.14.6.44,1.15.79,1.65.08.11.48.66.58.65.17-.12.4-.2.45-.44.03-.17.03-1.17-.02-1.32-.06-.2-.61-.5-.8-.59-.25-.12-.38-.23-.69-.17ZM18.43,23.82c-.23-.14-.4-.21-.68-.15-.11.02-.97.52-1.04.61-.18.22-.19,1.34-.07,1.57.05.1.36.36.46.32.64-.65,1.09-1.47,1.34-2.35ZM12.78,26.56c-.18.02-1.06.54-1.18.69-.11.13-.24.45-.13.6.15.2,2.35.21,2.7,0,.21-.6-.56-.97-1.01-1.17-.11-.05-.25-.13-.38-.12Z"/>
  <path class="st0" d="M21.68,15.55c1.79.07,3.75-.15,5.52-.02.73.05,1.47.49,1.57,1.27.07.52.06,1.95,0,2.48-.08.71-.73,1.25-1.42,1.32-1.82-.12-3.84.16-5.64,0-.66-.06-1.35-.54-1.46-1.23-.07-.47-.07-2.1,0-2.57.09-.65.78-1.25,1.43-1.26ZM21.73,16.32c-.4.06-.67.28-.71.68-.05.43-.06,1.81,0,2.22s.44.57.8.6c1.73.15,3.68-.11,5.43,0,.41-.04.71-.27.75-.7.04-.46.06-1.79,0-2.22s-.48-.57-.85-.6c-1.72-.15-3.67.1-5.42.02Z"/>
  <path class="st0" d="M20.49,25.68h7.96c.5.04.44.74-.05.77h-7.76c-.42,0-.55-.67-.14-.77Z"/>
  <path class="st0" d="M20.54,23.72h7.85c.44.04.54.49.18.74h-8.12c-.32-.22-.29-.61.09-.74Z"/>
  <path class="st0" d="M20.64,21.76h7.69c.51-.03.64.7.1.76h-7.87c-.51-.05-.43-.76.07-.76Z"/>
  <path class="st0" d="M20.49,27.65l4.98.02c.36.23.25.7-.18.75-1.44.17-3.19-.13-4.66,0-.47-.05-.54-.55-.14-.77Z"/>
</svg>